G75*
%MOIN*%
%OFA0B0*%
%FSLAX25Y25*%
%IPPOS*%
%LPD*%
%AMOC8*
5,1,8,0,0,1.08239X$1,22.5*
%
%ADD10R,0.04882X0.05906*%
%ADD11R,0.05906X0.04882*%
%ADD12R,0.04724X0.04724*%
%ADD13R,0.03937X0.03937*%
%ADD14R,0.02165X0.04724*%
%ADD15R,0.04331X0.07480*%
%ADD16R,0.05906X0.05118*%
%ADD17R,0.01102X0.05906*%
%ADD18R,0.05906X0.01102*%
%ADD19R,0.05709X0.01575*%
%ADD20R,0.05906X0.07087*%
%ADD21R,0.05906X0.09843*%
%ADD22C,0.07400*%
%ADD23R,0.02400X0.13200*%
%ADD24C,0.08661*%
%ADD25C,0.06693*%
%ADD26R,0.03150X0.03543*%
%ADD27R,0.05512X0.05512*%
%ADD28R,0.05118X0.05906*%
%ADD29C,0.04362*%
%ADD30C,0.00800*%
%ADD31C,0.01000*%
%ADD32C,0.04559*%
%ADD33C,0.01200*%
%ADD34C,0.01600*%
D10*
X0021042Y0074464D03*
X0028523Y0074464D03*
X0026587Y0125900D03*
X0019106Y0125900D03*
X0037106Y0130900D03*
X0044587Y0130900D03*
X0044634Y0139121D03*
X0037154Y0139121D03*
X0026395Y0147860D03*
X0018914Y0147860D03*
X0077606Y0142400D03*
X0085087Y0142400D03*
D11*
X0097346Y0143140D03*
X0097346Y0135660D03*
X0044982Y0084148D03*
X0044982Y0076668D03*
X0043408Y0057419D03*
X0035946Y0057388D03*
X0035946Y0049908D03*
X0043408Y0049939D03*
X0059972Y0041078D03*
X0059972Y0033598D03*
X0068590Y0033652D03*
X0068590Y0041132D03*
X0077815Y0040932D03*
X0077815Y0033452D03*
D12*
X0084346Y0126266D03*
X0084346Y0134534D03*
X0026980Y0133400D03*
X0026980Y0140791D03*
X0018713Y0140791D03*
X0018713Y0133400D03*
D13*
X0062221Y0126274D03*
X0068520Y0126274D03*
X0068520Y0110526D03*
X0062221Y0110526D03*
D14*
X0028735Y0067159D03*
X0024994Y0067159D03*
X0021254Y0067159D03*
X0021254Y0056922D03*
X0028735Y0056922D03*
D15*
X0059558Y0049488D03*
X0069007Y0049488D03*
D16*
X0162346Y0026640D03*
X0162346Y0019160D03*
X0162846Y0059160D03*
X0162846Y0066640D03*
X0162846Y0098660D03*
X0162846Y0106140D03*
X0162346Y0138660D03*
X0162346Y0146140D03*
D17*
X0091173Y0094132D03*
X0089205Y0094132D03*
X0087236Y0094132D03*
X0085268Y0094132D03*
X0083299Y0094132D03*
X0081331Y0094132D03*
X0079362Y0094132D03*
X0077394Y0094132D03*
X0075425Y0094132D03*
X0073457Y0094132D03*
X0071488Y0094132D03*
X0069520Y0094132D03*
X0069520Y0060668D03*
X0071488Y0060668D03*
X0073457Y0060668D03*
X0075425Y0060668D03*
X0077394Y0060668D03*
X0079362Y0060668D03*
X0081331Y0060668D03*
X0083299Y0060668D03*
X0085268Y0060668D03*
X0087236Y0060668D03*
X0089205Y0060668D03*
X0091173Y0060668D03*
D18*
X0097079Y0066573D03*
X0097079Y0068542D03*
X0097079Y0070510D03*
X0097079Y0072479D03*
X0097079Y0074447D03*
X0097079Y0076416D03*
X0097079Y0078384D03*
X0097079Y0080353D03*
X0097079Y0082321D03*
X0097079Y0084290D03*
X0097079Y0086258D03*
X0097079Y0088227D03*
X0063614Y0088227D03*
X0063614Y0086258D03*
X0063614Y0084290D03*
X0063614Y0082321D03*
X0063614Y0080353D03*
X0063614Y0078384D03*
X0063614Y0076416D03*
X0063614Y0074447D03*
X0063614Y0072479D03*
X0063614Y0070510D03*
X0063614Y0068542D03*
X0063614Y0066573D03*
D19*
X0032075Y0094282D03*
X0032075Y0096841D03*
X0032075Y0099400D03*
X0032075Y0101959D03*
X0032075Y0104518D03*
D20*
X0021346Y0113908D03*
X0021346Y0084892D03*
D21*
X0021346Y0099400D03*
D22*
X0041346Y0116400D03*
X0051346Y0116400D03*
X0048346Y0158400D03*
X0038346Y0158400D03*
X0028346Y0158400D03*
X0058346Y0158400D03*
X0075346Y0159400D03*
X0085346Y0159400D03*
X0109346Y0159400D03*
X0119346Y0159400D03*
X0145346Y0151400D03*
X0145346Y0141400D03*
X0145346Y0131400D03*
X0145346Y0121400D03*
X0145346Y0111400D03*
X0145346Y0101400D03*
X0145346Y0091400D03*
X0145346Y0081400D03*
X0145346Y0071400D03*
X0145346Y0061400D03*
X0145346Y0051400D03*
X0145346Y0041400D03*
X0145346Y0031400D03*
X0145346Y0021400D03*
X0124846Y0013400D03*
X0114846Y0013400D03*
X0091846Y0013400D03*
X0081846Y0013400D03*
D23*
X0106846Y0115300D03*
X0111846Y0115300D03*
X0116846Y0115300D03*
X0121846Y0115300D03*
X0121846Y0139500D03*
X0116846Y0139500D03*
X0111846Y0139500D03*
X0106846Y0139500D03*
D24*
X0172504Y0132620D03*
X0172504Y0120180D03*
X0172504Y0092620D03*
X0172504Y0080180D03*
X0172504Y0052620D03*
X0172504Y0040180D03*
X0172504Y0012620D03*
X0172504Y0160180D03*
D25*
X0182346Y0156243D03*
X0182346Y0136557D03*
X0182346Y0116243D03*
X0182346Y0096557D03*
X0182346Y0076243D03*
X0182346Y0056557D03*
X0182346Y0036243D03*
X0182346Y0016557D03*
D26*
X0045087Y0018337D03*
X0037606Y0018337D03*
X0041346Y0010069D03*
D27*
X0053563Y0016900D03*
X0068130Y0016900D03*
D28*
X0045087Y0026900D03*
X0037606Y0026900D03*
D29*
X0034346Y0040400D03*
X0043386Y0064439D03*
X0032346Y0080400D03*
X0030346Y0086400D03*
X0056346Y0082400D03*
X0061346Y0094400D03*
X0068846Y0105440D03*
X0085346Y0109400D03*
X0093346Y0101400D03*
X0087346Y0082400D03*
X0079346Y0074400D03*
X0071346Y0079400D03*
X0070346Y0069400D03*
X0097346Y0061400D03*
X0095346Y0042400D03*
X0091346Y0033400D03*
X0133346Y0024400D03*
X0155346Y0012400D03*
X0155346Y0051400D03*
X0137346Y0074400D03*
X0154346Y0092400D03*
X0159346Y0126400D03*
X0116846Y0126900D03*
X0061346Y0133400D03*
X0037385Y0146438D03*
D30*
X0014854Y0011307D02*
X0015690Y0009289D01*
X0017235Y0007744D01*
X0019254Y0006908D01*
X0020346Y0006800D01*
X0061117Y0006800D01*
X0054973Y0012944D01*
X0052153Y0012944D01*
X0047478Y0008269D01*
X0044121Y0008269D01*
X0044121Y0007801D01*
X0043418Y0007098D01*
X0039275Y0007098D01*
X0038572Y0007801D01*
X0038572Y0012338D01*
X0039275Y0013041D01*
X0043418Y0013041D01*
X0044121Y0012338D01*
X0044121Y0011869D01*
X0045987Y0011869D01*
X0049607Y0015490D01*
X0049607Y0020153D01*
X0050310Y0020856D01*
X0056816Y0020856D01*
X0057519Y0020153D01*
X0057519Y0015490D01*
X0062909Y0010100D01*
X0078217Y0010100D01*
X0077692Y0010624D01*
X0076946Y0012425D01*
X0076946Y0014375D01*
X0077164Y0014900D01*
X0072086Y0014900D01*
X0072086Y0013647D01*
X0071383Y0012944D01*
X0064877Y0012944D01*
X0064174Y0013647D01*
X0064174Y0020153D01*
X0064877Y0020856D01*
X0069257Y0020856D01*
X0073630Y0025228D01*
X0074801Y0026400D01*
X0082518Y0026400D01*
X0088223Y0032105D01*
X0087965Y0032727D01*
X0087965Y0034073D01*
X0088480Y0035315D01*
X0089431Y0036266D01*
X0090674Y0036781D01*
X0092019Y0036781D01*
X0093262Y0036266D01*
X0094213Y0035315D01*
X0094728Y0034073D01*
X0094728Y0032727D01*
X0094213Y0031485D01*
X0093262Y0030534D01*
X0092019Y0030019D01*
X0091794Y0030019D01*
X0085346Y0023572D01*
X0085346Y0023572D01*
X0084175Y0022400D01*
X0076458Y0022400D01*
X0072958Y0018900D01*
X0079175Y0018900D01*
X0080096Y0017979D01*
X0080872Y0018300D01*
X0082821Y0018300D01*
X0084622Y0017554D01*
X0086000Y0016176D01*
X0086746Y0014375D01*
X0086746Y0012425D01*
X0086000Y0010624D01*
X0085476Y0010100D01*
X0086001Y0010100D01*
X0087351Y0011450D01*
X0086946Y0012425D01*
X0086946Y0014375D01*
X0087692Y0016176D01*
X0089071Y0017554D01*
X0090872Y0018300D01*
X0092821Y0018300D01*
X0094622Y0017554D01*
X0096000Y0016176D01*
X0096746Y0014375D01*
X0096746Y0012425D01*
X0096000Y0010624D01*
X0094622Y0009246D01*
X0092821Y0008500D01*
X0090872Y0008500D01*
X0089896Y0008904D01*
X0087792Y0006800D01*
X0168346Y0006800D01*
X0168346Y0008956D01*
X0167815Y0009488D01*
X0166973Y0011520D01*
X0166973Y0013721D01*
X0167815Y0015753D01*
X0168346Y0016285D01*
X0168346Y0031700D01*
X0157451Y0031700D01*
X0158824Y0030327D01*
X0158897Y0030399D01*
X0165796Y0030399D01*
X0166499Y0029696D01*
X0166499Y0023584D01*
X0165902Y0022987D01*
X0166159Y0022839D01*
X0166419Y0022579D01*
X0166604Y0022259D01*
X0166699Y0021903D01*
X0166699Y0019560D01*
X0162746Y0019560D01*
X0162746Y0018760D01*
X0162746Y0015201D01*
X0165484Y0015201D01*
X0165840Y0015296D01*
X0166159Y0015481D01*
X0166419Y0015741D01*
X0166604Y0016060D01*
X0166699Y0016416D01*
X0166699Y0018760D01*
X0162746Y0018760D01*
X0161946Y0018760D01*
X0157994Y0018760D01*
X0157994Y0016416D01*
X0158089Y0016060D01*
X0158273Y0015741D01*
X0158534Y0015481D01*
X0158853Y0015296D01*
X0159209Y0015201D01*
X0161946Y0015201D01*
X0161946Y0018760D01*
X0161946Y0019560D01*
X0157994Y0019560D01*
X0157994Y0021903D01*
X0158089Y0022259D01*
X0158273Y0022579D01*
X0158534Y0022839D01*
X0158791Y0022987D01*
X0158194Y0023584D01*
X0158194Y0026149D01*
X0151646Y0032696D01*
X0151310Y0033033D01*
X0151039Y0032920D01*
X0150215Y0032920D01*
X0150321Y0032594D01*
X0150446Y0031801D01*
X0150446Y0031800D01*
X0145747Y0031800D01*
X0145747Y0031000D01*
X0150446Y0031000D01*
X0150446Y0030999D01*
X0150321Y0030206D01*
X0150073Y0029442D01*
X0149708Y0028727D01*
X0149237Y0028078D01*
X0148669Y0027510D01*
X0148019Y0027038D01*
X0147304Y0026674D01*
X0146541Y0026426D01*
X0145748Y0026300D01*
X0145746Y0026300D01*
X0145746Y0031000D01*
X0144946Y0031000D01*
X0140246Y0031000D01*
X0140246Y0030999D01*
X0140372Y0030206D01*
X0140620Y0029442D01*
X0140985Y0028727D01*
X0141456Y0028078D01*
X0142024Y0027510D01*
X0142673Y0027038D01*
X0143389Y0026674D01*
X0144152Y0026426D01*
X0144945Y0026300D01*
X0144946Y0026300D01*
X0144946Y0031000D01*
X0144946Y0031800D01*
X0140246Y0031800D01*
X0140246Y0031801D01*
X0140372Y0032594D01*
X0140620Y0033358D01*
X0140985Y0034073D01*
X0141456Y0034722D01*
X0142024Y0035290D01*
X0142673Y0035762D01*
X0143389Y0036126D01*
X0144152Y0036374D01*
X0144945Y0036500D01*
X0144946Y0036500D01*
X0144946Y0031800D01*
X0145746Y0031800D01*
X0145746Y0036500D01*
X0145748Y0036500D01*
X0146541Y0036374D01*
X0146867Y0036268D01*
X0146867Y0036726D01*
X0146321Y0036500D01*
X0144372Y0036500D01*
X0142571Y0037246D01*
X0141192Y0038624D01*
X0140446Y0040425D01*
X0140446Y0042375D01*
X0140892Y0043450D01*
X0117501Y0066842D01*
X0101231Y0066842D01*
X0101231Y0065525D01*
X0100529Y0064822D01*
X0093629Y0064822D01*
X0092926Y0065525D01*
X0092926Y0072747D01*
X0084401Y0072747D01*
X0082313Y0072728D01*
X0082213Y0072485D01*
X0081262Y0071534D01*
X0081046Y0071444D01*
X0081046Y0070104D01*
X0081062Y0070088D01*
X0081062Y0068503D01*
X0081397Y0069310D01*
X0082375Y0070289D01*
X0083654Y0070819D01*
X0085039Y0070819D01*
X0086317Y0070289D01*
X0087296Y0069310D01*
X0087826Y0068031D01*
X0087826Y0066647D01*
X0087296Y0065368D01*
X0086748Y0064820D01*
X0092221Y0064820D01*
X0092924Y0064118D01*
X0092924Y0057218D01*
X0092221Y0056515D01*
X0089110Y0056515D01*
X0115551Y0030074D01*
X0116546Y0029079D01*
X0116546Y0018000D01*
X0117622Y0017554D01*
X0119000Y0016176D01*
X0119746Y0014375D01*
X0119746Y0012425D01*
X0119000Y0010624D01*
X0117622Y0009246D01*
X0115821Y0008500D01*
X0113872Y0008500D01*
X0112071Y0009246D01*
X0110692Y0010624D01*
X0109946Y0012425D01*
X0109946Y0014375D01*
X0110692Y0016176D01*
X0112071Y0017554D01*
X0113146Y0018000D01*
X0113146Y0027670D01*
X0098728Y0042089D01*
X0098728Y0041727D01*
X0098213Y0040485D01*
X0097262Y0039534D01*
X0096019Y0039019D01*
X0094674Y0039019D01*
X0093431Y0039534D01*
X0092480Y0040485D01*
X0091965Y0041727D01*
X0091965Y0043073D01*
X0092055Y0043288D01*
X0083578Y0051764D01*
X0083317Y0051503D01*
X0082039Y0050973D01*
X0080654Y0050973D01*
X0079375Y0051503D01*
X0078397Y0052482D01*
X0077867Y0053761D01*
X0077867Y0055145D01*
X0078379Y0056382D01*
X0078129Y0056315D01*
X0077394Y0056315D01*
X0077394Y0060668D01*
X0077394Y0060668D01*
X0077394Y0056315D01*
X0077125Y0056315D01*
X0077125Y0048526D01*
X0078519Y0047132D01*
X0079515Y0046136D01*
X0079515Y0044573D01*
X0081265Y0044573D01*
X0081968Y0043870D01*
X0081968Y0037994D01*
X0081265Y0037291D01*
X0080958Y0037291D01*
X0081308Y0037197D01*
X0081628Y0037013D01*
X0081888Y0036752D01*
X0082072Y0036433D01*
X0082168Y0036077D01*
X0082168Y0033852D01*
X0078215Y0033852D01*
X0078215Y0033052D01*
X0078215Y0029611D01*
X0080952Y0029611D01*
X0081308Y0029706D01*
X0081628Y0029891D01*
X0081888Y0030151D01*
X0082072Y0030471D01*
X0082168Y0030827D01*
X0082168Y0033052D01*
X0078215Y0033052D01*
X0077415Y0033052D01*
X0073462Y0033052D01*
X0073462Y0030827D01*
X0073558Y0030471D01*
X0073742Y0030151D01*
X0074003Y0029891D01*
X0074322Y0029706D01*
X0074678Y0029611D01*
X0077415Y0029611D01*
X0077415Y0033052D01*
X0077415Y0033852D01*
X0073462Y0033852D01*
X0073462Y0036077D01*
X0073558Y0036433D01*
X0073742Y0036752D01*
X0074003Y0037013D01*
X0074322Y0037197D01*
X0074672Y0037291D01*
X0074365Y0037291D01*
X0073662Y0037994D01*
X0073662Y0043870D01*
X0074365Y0044573D01*
X0076115Y0044573D01*
X0076115Y0044728D01*
X0073725Y0047118D01*
X0073725Y0056515D01*
X0073188Y0056515D01*
X0073188Y0055696D01*
X0071795Y0054303D01*
X0072372Y0053725D01*
X0072372Y0045251D01*
X0071895Y0044773D01*
X0072040Y0044773D01*
X0072743Y0044070D01*
X0072743Y0038194D01*
X0072040Y0037491D01*
X0071733Y0037491D01*
X0072084Y0037397D01*
X0072403Y0037213D01*
X0072663Y0036952D01*
X0072848Y0036633D01*
X0072943Y0036277D01*
X0072943Y0034052D01*
X0068990Y0034052D01*
X0068990Y0033252D01*
X0068990Y0029811D01*
X0071728Y0029811D01*
X0072084Y0029906D01*
X0072403Y0030091D01*
X0072663Y0030351D01*
X0072848Y0030671D01*
X0072943Y0031027D01*
X0072943Y0033252D01*
X0068990Y0033252D01*
X0068190Y0033252D01*
X0064238Y0033252D01*
X0064238Y0033198D01*
X0060372Y0033198D01*
X0060372Y0029757D01*
X0063110Y0029757D01*
X0063466Y0029852D01*
X0063785Y0030037D01*
X0064045Y0030297D01*
X0064230Y0030617D01*
X0064289Y0030836D01*
X0064333Y0030671D01*
X0064517Y0030351D01*
X0064778Y0030091D01*
X0065097Y0029906D01*
X0065453Y0029811D01*
X0068190Y0029811D01*
X0068190Y0033252D01*
X0068190Y0034052D01*
X0064325Y0034052D01*
X0064325Y0033998D01*
X0060372Y0033998D01*
X0060372Y0033198D01*
X0059572Y0033198D01*
X0055620Y0033198D01*
X0055620Y0030973D01*
X0055715Y0030617D01*
X0055899Y0030297D01*
X0056160Y0030037D01*
X0056479Y0029852D01*
X0056835Y0029757D01*
X0059572Y0029757D01*
X0059572Y0033198D01*
X0059572Y0033998D01*
X0055620Y0033998D01*
X0055620Y0036223D01*
X0055715Y0036579D01*
X0055899Y0036898D01*
X0056160Y0037159D01*
X0056479Y0037343D01*
X0056830Y0037437D01*
X0056523Y0037437D01*
X0055820Y0038140D01*
X0055820Y0044016D01*
X0056523Y0044719D01*
X0056724Y0044719D01*
X0056193Y0045251D01*
X0056193Y0053725D01*
X0056896Y0054428D01*
X0057858Y0054428D01*
X0057858Y0057316D01*
X0061642Y0061100D01*
X0067769Y0061100D01*
X0067769Y0064118D01*
X0068471Y0064820D01*
X0071757Y0064820D01*
X0071757Y0065954D01*
X0072240Y0066437D01*
X0072128Y0066708D01*
X0072128Y0068092D01*
X0072657Y0069371D01*
X0073636Y0070350D01*
X0074915Y0070880D01*
X0076299Y0070880D01*
X0077578Y0070350D01*
X0077646Y0070281D01*
X0077646Y0071444D01*
X0077431Y0071534D01*
X0076480Y0072485D01*
X0076391Y0072700D01*
X0067767Y0072700D01*
X0067767Y0065525D01*
X0067064Y0064822D01*
X0060164Y0064822D01*
X0059461Y0065525D01*
X0059461Y0066842D01*
X0057192Y0066842D01*
X0054046Y0063696D01*
X0054046Y0040936D01*
X0044163Y0031053D01*
X0048143Y0031053D01*
X0048846Y0030350D01*
X0048846Y0023450D01*
X0048143Y0022747D01*
X0046787Y0022747D01*
X0046787Y0021309D01*
X0047158Y0021309D01*
X0047861Y0020606D01*
X0047861Y0016068D01*
X0047158Y0015365D01*
X0043015Y0015365D01*
X0042312Y0016068D01*
X0042312Y0020606D01*
X0043015Y0021309D01*
X0043387Y0021309D01*
X0043387Y0022747D01*
X0042030Y0022747D01*
X0041346Y0023431D01*
X0040662Y0022747D01*
X0034550Y0022747D01*
X0033847Y0023450D01*
X0033847Y0030350D01*
X0034550Y0031053D01*
X0039355Y0031053D01*
X0050646Y0042344D01*
X0050646Y0065104D01*
X0054788Y0069246D01*
X0055784Y0070242D01*
X0059461Y0070242D01*
X0059461Y0074716D01*
X0049135Y0074716D01*
X0049135Y0073730D01*
X0048432Y0073027D01*
X0041533Y0073027D01*
X0040830Y0073730D01*
X0040830Y0079606D01*
X0041533Y0080309D01*
X0041840Y0080309D01*
X0041489Y0080403D01*
X0041170Y0080587D01*
X0040909Y0080848D01*
X0040725Y0081167D01*
X0040630Y0081523D01*
X0040630Y0083748D01*
X0044582Y0083748D01*
X0044582Y0084548D01*
X0040630Y0084548D01*
X0040630Y0086773D01*
X0040725Y0087129D01*
X0040909Y0087449D01*
X0041170Y0087709D01*
X0041489Y0087894D01*
X0041845Y0087989D01*
X0044582Y0087989D01*
X0044582Y0084548D01*
X0045382Y0084548D01*
X0045382Y0087989D01*
X0048120Y0087989D01*
X0048476Y0087894D01*
X0048795Y0087709D01*
X0049055Y0087449D01*
X0049240Y0087129D01*
X0049335Y0086773D01*
X0049335Y0084548D01*
X0045383Y0084548D01*
X0045383Y0083748D01*
X0049335Y0083748D01*
X0049335Y0081523D01*
X0049240Y0081167D01*
X0049055Y0080848D01*
X0048795Y0080587D01*
X0048476Y0080403D01*
X0048125Y0080309D01*
X0048432Y0080309D01*
X0049135Y0079606D01*
X0049135Y0078116D01*
X0059261Y0078116D01*
X0059261Y0078384D01*
X0063614Y0078384D01*
X0063614Y0078384D01*
X0059261Y0078384D01*
X0059261Y0079120D01*
X0059357Y0079476D01*
X0059461Y0079657D01*
X0059461Y0080621D01*
X0059269Y0080621D01*
X0059213Y0080485D01*
X0058262Y0079534D01*
X0057019Y0079019D01*
X0055674Y0079019D01*
X0054431Y0079534D01*
X0053480Y0080485D01*
X0052965Y0081727D01*
X0052965Y0083073D01*
X0053480Y0084315D01*
X0054431Y0085266D01*
X0055674Y0085781D01*
X0057019Y0085781D01*
X0058262Y0085266D01*
X0059213Y0084315D01*
X0059335Y0084021D01*
X0059461Y0084021D01*
X0059461Y0089275D01*
X0060164Y0089978D01*
X0067064Y0089978D01*
X0067767Y0089275D01*
X0067767Y0079657D01*
X0067872Y0079476D01*
X0067967Y0079120D01*
X0067967Y0078384D01*
X0063614Y0078384D01*
X0063614Y0078384D01*
X0067967Y0078384D01*
X0067967Y0077649D01*
X0067872Y0077293D01*
X0067767Y0077112D01*
X0067767Y0076100D01*
X0076391Y0076100D01*
X0076480Y0076315D01*
X0077431Y0077266D01*
X0077646Y0077355D01*
X0077646Y0077696D01*
X0067820Y0087523D01*
X0067820Y0090631D01*
X0067769Y0090682D01*
X0067769Y0097582D01*
X0067886Y0097700D01*
X0036129Y0097700D01*
X0036129Y0095791D01*
X0036234Y0095610D01*
X0036329Y0095254D01*
X0036329Y0094282D01*
X0032075Y0094282D01*
X0032075Y0094282D01*
X0036329Y0094282D01*
X0036329Y0093310D01*
X0036234Y0092954D01*
X0036049Y0092635D01*
X0035789Y0092374D01*
X0035470Y0092190D01*
X0035113Y0092094D01*
X0033081Y0092094D01*
X0033081Y0091308D01*
X0032613Y0090179D01*
X0031749Y0089314D01*
X0030619Y0088846D01*
X0029397Y0088846D01*
X0028346Y0089281D01*
X0028346Y0078617D01*
X0029425Y0078617D01*
X0028965Y0079727D01*
X0028965Y0081073D01*
X0029480Y0082315D01*
X0030431Y0083266D01*
X0031674Y0083781D01*
X0033019Y0083781D01*
X0034262Y0083266D01*
X0035213Y0082315D01*
X0035728Y0081073D01*
X0035728Y0079727D01*
X0035213Y0078485D01*
X0034346Y0077618D01*
X0034346Y0077459D01*
X0033175Y0076288D01*
X0032164Y0075277D01*
X0032164Y0071014D01*
X0031461Y0070311D01*
X0030724Y0070311D01*
X0031017Y0070018D01*
X0031017Y0064299D01*
X0030314Y0063596D01*
X0027155Y0063596D01*
X0027006Y0063745D01*
X0026937Y0063676D01*
X0026618Y0063492D01*
X0026261Y0063396D01*
X0025136Y0063396D01*
X0025136Y0067017D01*
X0024853Y0067017D01*
X0024853Y0063396D01*
X0023727Y0063396D01*
X0023371Y0063492D01*
X0023052Y0063676D01*
X0022983Y0063745D01*
X0022834Y0063596D01*
X0019675Y0063596D01*
X0018972Y0064299D01*
X0018972Y0070018D01*
X0019265Y0070311D01*
X0018104Y0070311D01*
X0017401Y0071014D01*
X0017401Y0077914D01*
X0018104Y0078617D01*
X0023980Y0078617D01*
X0024346Y0078251D01*
X0024346Y0079949D01*
X0021746Y0079949D01*
X0021746Y0084492D01*
X0020946Y0084492D01*
X0016994Y0084492D01*
X0016994Y0081164D01*
X0017089Y0080808D01*
X0017273Y0080489D01*
X0017534Y0080229D01*
X0017853Y0080044D01*
X0018209Y0079949D01*
X0020946Y0079949D01*
X0020946Y0084492D01*
X0020946Y0085292D01*
X0016994Y0085292D01*
X0016994Y0088620D01*
X0017089Y0088976D01*
X0017273Y0089295D01*
X0017534Y0089556D01*
X0017853Y0089740D01*
X0018209Y0089835D01*
X0020946Y0089835D01*
X0020946Y0085292D01*
X0021746Y0085292D01*
X0021746Y0089835D01*
X0024346Y0089835D01*
X0024346Y0093079D01*
X0021746Y0093079D01*
X0021746Y0099000D01*
X0020946Y0099000D01*
X0016994Y0099000D01*
X0016994Y0094294D01*
X0017089Y0093938D01*
X0017273Y0093619D01*
X0017534Y0093358D01*
X0017853Y0093174D01*
X0018209Y0093079D01*
X0020946Y0093079D01*
X0020946Y0099000D01*
X0020946Y0099800D01*
X0016994Y0099800D01*
X0016994Y0104506D01*
X0017089Y0104862D01*
X0017273Y0105181D01*
X0017534Y0105442D01*
X0017853Y0105626D01*
X0018209Y0105721D01*
X0020946Y0105721D01*
X0020946Y0099800D01*
X0021746Y0099800D01*
X0021746Y0105721D01*
X0024346Y0105721D01*
X0024346Y0108965D01*
X0021746Y0108965D01*
X0021746Y0113508D01*
X0020946Y0113508D01*
X0016994Y0113508D01*
X0016994Y0110180D01*
X0017089Y0109824D01*
X0017273Y0109505D01*
X0017534Y0109244D01*
X0017853Y0109060D01*
X0018209Y0108965D01*
X0020946Y0108965D01*
X0020946Y0113508D01*
X0020946Y0114308D01*
X0016994Y0114308D01*
X0016994Y0117635D01*
X0017089Y0117992D01*
X0017273Y0118311D01*
X0017534Y0118571D01*
X0017853Y0118756D01*
X0018209Y0118851D01*
X0020946Y0118851D01*
X0020946Y0114308D01*
X0021746Y0114308D01*
X0021746Y0118851D01*
X0024484Y0118851D01*
X0024840Y0118756D01*
X0025159Y0118571D01*
X0025419Y0118311D01*
X0025604Y0117992D01*
X0025699Y0117635D01*
X0025699Y0117581D01*
X0029346Y0121228D01*
X0029346Y0121747D01*
X0023649Y0121747D01*
X0022946Y0122450D01*
X0022946Y0129350D01*
X0023636Y0130040D01*
X0023498Y0130178D01*
X0023314Y0130497D01*
X0023218Y0130853D01*
X0023218Y0133000D01*
X0026580Y0133000D01*
X0026580Y0133800D01*
X0023218Y0133800D01*
X0023218Y0135947D01*
X0023314Y0136303D01*
X0023498Y0136622D01*
X0023758Y0136882D01*
X0024078Y0137067D01*
X0024184Y0137095D01*
X0024078Y0137124D01*
X0023758Y0137308D01*
X0023498Y0137569D01*
X0023314Y0137888D01*
X0023218Y0138244D01*
X0023218Y0140391D01*
X0026580Y0140391D01*
X0026580Y0141190D01*
X0023218Y0141190D01*
X0023218Y0143337D01*
X0023314Y0143693D01*
X0023371Y0143793D01*
X0022754Y0144410D01*
X0022754Y0151310D01*
X0023457Y0152013D01*
X0029333Y0152013D01*
X0030036Y0151310D01*
X0030036Y0149560D01*
X0034782Y0149560D01*
X0030397Y0153946D01*
X0029321Y0153500D01*
X0027372Y0153500D01*
X0025571Y0154246D01*
X0024192Y0155624D01*
X0023446Y0157425D01*
X0023446Y0159375D01*
X0024192Y0161176D01*
X0025571Y0162554D01*
X0027372Y0163300D01*
X0029321Y0163300D01*
X0031122Y0162554D01*
X0032500Y0161176D01*
X0033246Y0159375D01*
X0033246Y0157425D01*
X0032801Y0156350D01*
X0036351Y0152800D01*
X0041542Y0152800D01*
X0040397Y0153946D01*
X0039321Y0153500D01*
X0037372Y0153500D01*
X0035571Y0154246D01*
X0034192Y0155624D01*
X0033446Y0157425D01*
X0033446Y0159375D01*
X0034192Y0161176D01*
X0035571Y0162554D01*
X0037372Y0163300D01*
X0039321Y0163300D01*
X0041122Y0162554D01*
X0042500Y0161176D01*
X0043246Y0159375D01*
X0043246Y0157425D01*
X0042801Y0156350D01*
X0044551Y0154600D01*
X0045217Y0154600D01*
X0044192Y0155624D01*
X0043446Y0157425D01*
X0043446Y0159375D01*
X0044192Y0161176D01*
X0045571Y0162554D01*
X0047372Y0163300D01*
X0049321Y0163300D01*
X0051122Y0162554D01*
X0052500Y0161176D01*
X0053246Y0159375D01*
X0053246Y0157425D01*
X0052801Y0156350D01*
X0056646Y0152504D01*
X0056646Y0153800D01*
X0055571Y0154246D01*
X0054192Y0155624D01*
X0053446Y0157425D01*
X0053446Y0159375D01*
X0054192Y0161176D01*
X0055571Y0162554D01*
X0057372Y0163300D01*
X0059321Y0163300D01*
X0061122Y0162554D01*
X0062500Y0161176D01*
X0063246Y0159375D01*
X0063246Y0157425D01*
X0062500Y0155624D01*
X0061122Y0154246D01*
X0060046Y0153800D01*
X0060046Y0151677D01*
X0080592Y0131131D01*
X0080592Y0128842D01*
X0080680Y0129169D01*
X0080864Y0129488D01*
X0081125Y0129749D01*
X0081444Y0129933D01*
X0081800Y0130028D01*
X0083946Y0130028D01*
X0083946Y0126666D01*
X0084746Y0126666D01*
X0084746Y0130028D01*
X0086893Y0130028D01*
X0087249Y0129933D01*
X0087568Y0129749D01*
X0087829Y0129488D01*
X0088013Y0129169D01*
X0088109Y0128813D01*
X0088109Y0126666D01*
X0084746Y0126666D01*
X0084746Y0125866D01*
X0084746Y0122504D01*
X0086893Y0122504D01*
X0087249Y0122599D01*
X0087568Y0122784D01*
X0087829Y0123044D01*
X0088013Y0123364D01*
X0088109Y0123720D01*
X0088109Y0125866D01*
X0084746Y0125866D01*
X0083946Y0125866D01*
X0083946Y0122504D01*
X0081800Y0122504D01*
X0081444Y0122599D01*
X0081125Y0122784D01*
X0080864Y0123044D01*
X0080680Y0123364D01*
X0080592Y0123691D01*
X0080592Y0106650D01*
X0084353Y0102889D01*
X0097620Y0116157D01*
X0098075Y0116649D01*
X0098114Y0116651D01*
X0098142Y0116679D01*
X0098812Y0116679D01*
X0104446Y0116905D01*
X0104446Y0122397D01*
X0105149Y0123100D01*
X0108544Y0123100D01*
X0109246Y0122397D01*
X0109246Y0108203D01*
X0109143Y0108100D01*
X0109549Y0108100D01*
X0109446Y0108203D01*
X0109446Y0122397D01*
X0110149Y0123100D01*
X0113544Y0123100D01*
X0114246Y0122397D01*
X0114246Y0108203D01*
X0113546Y0107503D01*
X0113546Y0107196D01*
X0112046Y0105696D01*
X0111051Y0104700D01*
X0094215Y0104700D01*
X0095262Y0104266D01*
X0096213Y0103315D01*
X0096728Y0102073D01*
X0096728Y0100727D01*
X0096213Y0099485D01*
X0095262Y0098534D01*
X0094019Y0098019D01*
X0092674Y0098019D01*
X0092356Y0098151D01*
X0092924Y0097582D01*
X0092924Y0096100D01*
X0095642Y0096100D01*
X0102646Y0103104D01*
X0103642Y0104100D01*
X0112642Y0104100D01*
X0115146Y0106604D01*
X0115146Y0107503D01*
X0114446Y0108203D01*
X0114446Y0122397D01*
X0115149Y0123100D01*
X0118544Y0123100D01*
X0119246Y0122397D01*
X0119246Y0108203D01*
X0118546Y0107503D01*
X0118546Y0105196D01*
X0115046Y0101696D01*
X0114051Y0100700D01*
X0105051Y0100700D01*
X0097051Y0092700D01*
X0092924Y0092700D01*
X0092924Y0090682D01*
X0092221Y0089980D01*
X0072761Y0089980D01*
X0072580Y0089875D01*
X0072224Y0089780D01*
X0071488Y0089780D01*
X0071488Y0094132D01*
X0071488Y0094132D01*
X0071488Y0089780D01*
X0071220Y0089780D01*
X0071220Y0088931D01*
X0081046Y0079104D01*
X0081046Y0077355D01*
X0081262Y0077266D01*
X0082213Y0076315D01*
X0082291Y0076128D01*
X0083683Y0076141D01*
X0083690Y0076147D01*
X0084385Y0076147D01*
X0085082Y0076154D01*
X0085089Y0076147D01*
X0092726Y0076147D01*
X0092726Y0076416D01*
X0097079Y0076416D01*
X0101431Y0076416D01*
X0101431Y0076684D01*
X0134849Y0076684D01*
X0134480Y0076315D01*
X0134424Y0076179D01*
X0104161Y0076179D01*
X0104092Y0076247D01*
X0101431Y0076247D01*
X0101431Y0076416D01*
X0097079Y0076416D01*
X0097079Y0076416D01*
X0097079Y0076416D01*
X0092726Y0076416D01*
X0092726Y0077151D01*
X0092821Y0077507D01*
X0092926Y0077688D01*
X0092926Y0089275D01*
X0093629Y0089978D01*
X0099381Y0089978D01*
X0099910Y0090506D01*
X0099797Y0090777D01*
X0099797Y0092162D01*
X0100327Y0093441D01*
X0101306Y0094419D01*
X0102585Y0094949D01*
X0103969Y0094949D01*
X0105248Y0094419D01*
X0106227Y0093441D01*
X0106756Y0092162D01*
X0106756Y0090777D01*
X0106227Y0089499D01*
X0105248Y0088520D01*
X0103969Y0087990D01*
X0102585Y0087990D01*
X0102314Y0088102D01*
X0101231Y0087020D01*
X0101231Y0084021D01*
X0125564Y0084021D01*
X0140892Y0099350D01*
X0140446Y0100425D01*
X0140446Y0102375D01*
X0141192Y0104176D01*
X0142571Y0105554D01*
X0144372Y0106300D01*
X0146321Y0106300D01*
X0146867Y0106074D01*
X0146867Y0106726D01*
X0146321Y0106500D01*
X0144372Y0106500D01*
X0142571Y0107246D01*
X0141192Y0108624D01*
X0140446Y0110425D01*
X0140446Y0112375D01*
X0141192Y0114176D01*
X0142571Y0115554D01*
X0144372Y0116300D01*
X0146321Y0116300D01*
X0148122Y0115554D01*
X0149500Y0114176D01*
X0150246Y0112375D01*
X0150246Y0110425D01*
X0150020Y0109880D01*
X0151039Y0109880D01*
X0151310Y0109767D01*
X0155646Y0114104D01*
X0155646Y0114104D01*
X0156642Y0115100D01*
X0168346Y0115100D01*
X0168346Y0116515D01*
X0167815Y0117047D01*
X0166973Y0119079D01*
X0166973Y0121280D01*
X0167815Y0123312D01*
X0168346Y0123844D01*
X0168346Y0128956D01*
X0167815Y0129488D01*
X0166973Y0131520D01*
X0166973Y0133721D01*
X0167815Y0135753D01*
X0168346Y0136285D01*
X0168346Y0151700D01*
X0158051Y0151700D01*
X0154451Y0148100D01*
X0158194Y0148100D01*
X0158194Y0149196D01*
X0158897Y0149899D01*
X0165796Y0149899D01*
X0166499Y0149196D01*
X0166499Y0143084D01*
X0165902Y0142487D01*
X0166159Y0142339D01*
X0166419Y0142079D01*
X0166604Y0141759D01*
X0166699Y0141403D01*
X0166699Y0139060D01*
X0162746Y0139060D01*
X0162746Y0138260D01*
X0162746Y0134701D01*
X0165484Y0134701D01*
X0165840Y0134796D01*
X0166159Y0134981D01*
X0166419Y0135241D01*
X0166604Y0135560D01*
X0166699Y0135916D01*
X0166699Y0138260D01*
X0162746Y0138260D01*
X0161946Y0138260D01*
X0157994Y0138260D01*
X0157994Y0135916D01*
X0158089Y0135560D01*
X0158273Y0135241D01*
X0158534Y0134981D01*
X0158853Y0134796D01*
X0159209Y0134701D01*
X0161946Y0134701D01*
X0161946Y0138260D01*
X0161946Y0139060D01*
X0157994Y0139060D01*
X0157994Y0141403D01*
X0158089Y0141759D01*
X0158273Y0142079D01*
X0158534Y0142339D01*
X0158791Y0142487D01*
X0158194Y0143084D01*
X0158194Y0144700D01*
X0153408Y0144700D01*
X0153296Y0144429D01*
X0152317Y0143450D01*
X0151039Y0142920D01*
X0150020Y0142920D01*
X0150246Y0142375D01*
X0150246Y0140425D01*
X0149500Y0138624D01*
X0148122Y0137246D01*
X0146321Y0136500D01*
X0144372Y0136500D01*
X0142571Y0137246D01*
X0141192Y0138624D01*
X0140446Y0140425D01*
X0140446Y0142375D01*
X0141192Y0144176D01*
X0142571Y0145554D01*
X0144372Y0146300D01*
X0146321Y0146300D01*
X0146867Y0146074D01*
X0146867Y0146726D01*
X0146321Y0146500D01*
X0144372Y0146500D01*
X0142571Y0147246D01*
X0141192Y0148624D01*
X0140446Y0150425D01*
X0140446Y0152375D01*
X0141192Y0154176D01*
X0142571Y0155554D01*
X0144372Y0156300D01*
X0146321Y0156300D01*
X0148122Y0155554D01*
X0149500Y0154176D01*
X0150246Y0152375D01*
X0150246Y0150425D01*
X0150020Y0149880D01*
X0151039Y0149880D01*
X0151310Y0149767D01*
X0156642Y0155100D01*
X0168346Y0155100D01*
X0168346Y0156515D01*
X0167815Y0157047D01*
X0166973Y0159079D01*
X0166973Y0161280D01*
X0167815Y0163312D01*
X0168346Y0163844D01*
X0168346Y0166000D01*
X0021346Y0166000D01*
X0020314Y0165919D01*
X0018350Y0165281D01*
X0016680Y0164067D01*
X0015466Y0162396D01*
X0014828Y0160432D01*
X0014746Y0159400D01*
X0014746Y0109980D01*
X0015626Y0109100D01*
X0015626Y0109100D01*
X0016446Y0108280D01*
X0016446Y0090520D01*
X0014746Y0088820D01*
X0014746Y0012400D01*
X0014854Y0011307D01*
X0014992Y0010975D02*
X0016838Y0010975D01*
X0016921Y0010775D02*
X0018721Y0008974D01*
X0021073Y0008000D01*
X0023619Y0008000D01*
X0025972Y0008974D01*
X0027772Y0010775D01*
X0028746Y0013127D01*
X0028746Y0015673D01*
X0027772Y0018025D01*
X0025972Y0019826D01*
X0023619Y0020800D01*
X0021073Y0020800D01*
X0018721Y0019826D01*
X0016921Y0018025D01*
X0015946Y0015673D01*
X0015946Y0013127D01*
X0016921Y0010775D01*
X0017519Y0010176D02*
X0015323Y0010176D01*
X0015653Y0009378D02*
X0018318Y0009378D01*
X0019675Y0008579D02*
X0016400Y0008579D01*
X0017198Y0007781D02*
X0038592Y0007781D01*
X0038572Y0008579D02*
X0025018Y0008579D01*
X0026375Y0009378D02*
X0038572Y0009378D01*
X0038572Y0010176D02*
X0027174Y0010176D01*
X0027855Y0010975D02*
X0038572Y0010975D01*
X0038572Y0011773D02*
X0028186Y0011773D01*
X0028516Y0012572D02*
X0038805Y0012572D01*
X0039365Y0015165D02*
X0039721Y0015261D01*
X0040041Y0015445D01*
X0040301Y0015706D01*
X0040486Y0016025D01*
X0040581Y0016381D01*
X0040581Y0017950D01*
X0037994Y0017950D01*
X0037994Y0018724D01*
X0040581Y0018724D01*
X0040581Y0020293D01*
X0040486Y0020649D01*
X0040301Y0020968D01*
X0040041Y0021229D01*
X0039721Y0021413D01*
X0039365Y0021509D01*
X0037994Y0021509D01*
X0037994Y0018724D01*
X0037219Y0018724D01*
X0037219Y0017950D01*
X0034631Y0017950D01*
X0034631Y0016381D01*
X0034727Y0016025D01*
X0034911Y0015706D01*
X0035172Y0015445D01*
X0035491Y0015261D01*
X0035847Y0015165D01*
X0037219Y0015165D01*
X0037219Y0017950D01*
X0037994Y0017950D01*
X0037994Y0015165D01*
X0039365Y0015165D01*
X0040336Y0015766D02*
X0042614Y0015766D01*
X0042312Y0016564D02*
X0040581Y0016564D01*
X0040581Y0017363D02*
X0042312Y0017363D01*
X0042312Y0018161D02*
X0037994Y0018161D01*
X0037219Y0018161D02*
X0027636Y0018161D01*
X0028047Y0017363D02*
X0034631Y0017363D01*
X0034631Y0016564D02*
X0028377Y0016564D01*
X0028708Y0015766D02*
X0034877Y0015766D01*
X0037219Y0015766D02*
X0037994Y0015766D01*
X0037994Y0016564D02*
X0037219Y0016564D01*
X0037219Y0017363D02*
X0037994Y0017363D01*
X0037219Y0018724D02*
X0034631Y0018724D01*
X0034631Y0020293D01*
X0034727Y0020649D01*
X0034911Y0020968D01*
X0035172Y0021229D01*
X0035491Y0021413D01*
X0035847Y0021509D01*
X0037219Y0021509D01*
X0037219Y0018724D01*
X0037219Y0018960D02*
X0037994Y0018960D01*
X0037994Y0019758D02*
X0037219Y0019758D01*
X0037219Y0020557D02*
X0037994Y0020557D01*
X0037994Y0021355D02*
X0037219Y0021355D01*
X0035391Y0021355D02*
X0014746Y0021355D01*
X0014746Y0020557D02*
X0020486Y0020557D01*
X0018654Y0019758D02*
X0014746Y0019758D01*
X0014746Y0018960D02*
X0017855Y0018960D01*
X0017057Y0018161D02*
X0014746Y0018161D01*
X0014746Y0017363D02*
X0016646Y0017363D01*
X0016316Y0016564D02*
X0014746Y0016564D01*
X0014746Y0015766D02*
X0015985Y0015766D01*
X0015946Y0014967D02*
X0014746Y0014967D01*
X0014746Y0014169D02*
X0015946Y0014169D01*
X0015946Y0013370D02*
X0014746Y0013370D01*
X0014746Y0012572D02*
X0016176Y0012572D01*
X0016507Y0011773D02*
X0014808Y0011773D01*
X0019074Y0006982D02*
X0060935Y0006982D01*
X0060137Y0007781D02*
X0044101Y0007781D01*
X0047788Y0008579D02*
X0059338Y0008579D01*
X0058540Y0009378D02*
X0048586Y0009378D01*
X0049385Y0010176D02*
X0057741Y0010176D01*
X0056943Y0010975D02*
X0050183Y0010975D01*
X0050982Y0011773D02*
X0056144Y0011773D01*
X0055346Y0012572D02*
X0051780Y0012572D01*
X0049085Y0014967D02*
X0028746Y0014967D01*
X0028746Y0014169D02*
X0048286Y0014169D01*
X0047488Y0013370D02*
X0028746Y0013370D01*
X0026838Y0018960D02*
X0034631Y0018960D01*
X0034631Y0019758D02*
X0026039Y0019758D01*
X0024207Y0020557D02*
X0034702Y0020557D01*
X0034345Y0022952D02*
X0014746Y0022952D01*
X0014746Y0022154D02*
X0043387Y0022154D01*
X0043387Y0021355D02*
X0039822Y0021355D01*
X0040510Y0020557D02*
X0042312Y0020557D01*
X0042312Y0019758D02*
X0040581Y0019758D01*
X0040581Y0018960D02*
X0042312Y0018960D01*
X0041825Y0022952D02*
X0040868Y0022952D01*
X0046787Y0022154D02*
X0070555Y0022154D01*
X0069757Y0021355D02*
X0046787Y0021355D01*
X0047861Y0020557D02*
X0050011Y0020557D01*
X0049607Y0019758D02*
X0047861Y0019758D01*
X0047861Y0018960D02*
X0049607Y0018960D01*
X0049607Y0018161D02*
X0047861Y0018161D01*
X0047861Y0017363D02*
X0049607Y0017363D01*
X0049607Y0016564D02*
X0047861Y0016564D01*
X0047559Y0015766D02*
X0049607Y0015766D01*
X0046689Y0012572D02*
X0043888Y0012572D01*
X0048348Y0022952D02*
X0071354Y0022952D01*
X0072152Y0023751D02*
X0048846Y0023751D01*
X0048846Y0024549D02*
X0072951Y0024549D01*
X0073749Y0025348D02*
X0048846Y0025348D01*
X0048846Y0026146D02*
X0074548Y0026146D01*
X0073754Y0030139D02*
X0072451Y0030139D01*
X0072919Y0030937D02*
X0073462Y0030937D01*
X0073462Y0031736D02*
X0072943Y0031736D01*
X0072943Y0032534D02*
X0073462Y0032534D01*
X0073462Y0034132D02*
X0072943Y0034132D01*
X0072943Y0034930D02*
X0073462Y0034930D01*
X0073462Y0035729D02*
X0072943Y0035729D01*
X0072876Y0036527D02*
X0073612Y0036527D01*
X0074331Y0037326D02*
X0072208Y0037326D01*
X0072673Y0038124D02*
X0073662Y0038124D01*
X0073662Y0038923D02*
X0072743Y0038923D01*
X0072743Y0039721D02*
X0073662Y0039721D01*
X0073662Y0040520D02*
X0072743Y0040520D01*
X0072743Y0041318D02*
X0073662Y0041318D01*
X0073662Y0042117D02*
X0072743Y0042117D01*
X0072743Y0042915D02*
X0073662Y0042915D01*
X0073662Y0043714D02*
X0072743Y0043714D01*
X0072301Y0044512D02*
X0074304Y0044512D01*
X0075532Y0045311D02*
X0072372Y0045311D01*
X0072372Y0046109D02*
X0074734Y0046109D01*
X0073935Y0046908D02*
X0072372Y0046908D01*
X0072372Y0047706D02*
X0073725Y0047706D01*
X0073725Y0048505D02*
X0072372Y0048505D01*
X0072372Y0049303D02*
X0073725Y0049303D01*
X0073725Y0050102D02*
X0072372Y0050102D01*
X0072372Y0050900D02*
X0073725Y0050900D01*
X0073725Y0051699D02*
X0072372Y0051699D01*
X0072372Y0052497D02*
X0073725Y0052497D01*
X0073725Y0053296D02*
X0072372Y0053296D01*
X0072003Y0054094D02*
X0073725Y0054094D01*
X0073725Y0054893D02*
X0072385Y0054893D01*
X0073184Y0055691D02*
X0073725Y0055691D01*
X0073725Y0056490D02*
X0073188Y0056490D01*
X0077125Y0055691D02*
X0078093Y0055691D01*
X0077867Y0054893D02*
X0077125Y0054893D01*
X0077125Y0054094D02*
X0077867Y0054094D01*
X0078059Y0053296D02*
X0077125Y0053296D01*
X0077125Y0052497D02*
X0078390Y0052497D01*
X0079180Y0051699D02*
X0077125Y0051699D01*
X0077125Y0050900D02*
X0084442Y0050900D01*
X0085241Y0050102D02*
X0077125Y0050102D01*
X0077125Y0049303D02*
X0086039Y0049303D01*
X0086838Y0048505D02*
X0077147Y0048505D01*
X0077945Y0047706D02*
X0087636Y0047706D01*
X0088435Y0046908D02*
X0078744Y0046908D01*
X0079515Y0046109D02*
X0089233Y0046109D01*
X0090032Y0045311D02*
X0079515Y0045311D01*
X0081326Y0044512D02*
X0090830Y0044512D01*
X0091629Y0043714D02*
X0081968Y0043714D01*
X0081968Y0042915D02*
X0091965Y0042915D01*
X0091965Y0042117D02*
X0081968Y0042117D01*
X0081968Y0041318D02*
X0092135Y0041318D01*
X0092466Y0040520D02*
X0081968Y0040520D01*
X0081968Y0039721D02*
X0093244Y0039721D01*
X0092632Y0036527D02*
X0104290Y0036527D01*
X0105088Y0035729D02*
X0093799Y0035729D01*
X0094372Y0034930D02*
X0105887Y0034930D01*
X0106685Y0034132D02*
X0094703Y0034132D01*
X0094728Y0033333D02*
X0107484Y0033333D01*
X0108282Y0032534D02*
X0094648Y0032534D01*
X0094317Y0031736D02*
X0109081Y0031736D01*
X0109879Y0030937D02*
X0093666Y0030937D01*
X0092309Y0030139D02*
X0110678Y0030139D01*
X0111476Y0029340D02*
X0091115Y0029340D01*
X0090317Y0028542D02*
X0112275Y0028542D01*
X0113073Y0027743D02*
X0089518Y0027743D01*
X0088720Y0026945D02*
X0113146Y0026945D01*
X0113146Y0026146D02*
X0087921Y0026146D01*
X0087123Y0025348D02*
X0113146Y0025348D01*
X0113146Y0024549D02*
X0086324Y0024549D01*
X0085526Y0023751D02*
X0113146Y0023751D01*
X0113146Y0022952D02*
X0084727Y0022952D01*
X0083063Y0026945D02*
X0048846Y0026945D01*
X0048846Y0027743D02*
X0083861Y0027743D01*
X0084660Y0028542D02*
X0048846Y0028542D01*
X0048846Y0029340D02*
X0085459Y0029340D01*
X0086257Y0030139D02*
X0081876Y0030139D01*
X0082168Y0030937D02*
X0087056Y0030937D01*
X0087854Y0031736D02*
X0082168Y0031736D01*
X0082168Y0032534D02*
X0088045Y0032534D01*
X0087965Y0033333D02*
X0078215Y0033333D01*
X0078215Y0032534D02*
X0077415Y0032534D01*
X0077415Y0031736D02*
X0078215Y0031736D01*
X0078215Y0030937D02*
X0077415Y0030937D01*
X0077415Y0030139D02*
X0078215Y0030139D01*
X0077415Y0033333D02*
X0068990Y0033333D01*
X0068990Y0032534D02*
X0068190Y0032534D01*
X0068190Y0031736D02*
X0068990Y0031736D01*
X0068990Y0030937D02*
X0068190Y0030937D01*
X0068190Y0030139D02*
X0068990Y0030139D01*
X0068190Y0033333D02*
X0060372Y0033333D01*
X0060372Y0032534D02*
X0059572Y0032534D01*
X0059572Y0031736D02*
X0060372Y0031736D01*
X0060372Y0030937D02*
X0059572Y0030937D01*
X0059572Y0030139D02*
X0060372Y0030139D01*
X0059572Y0033333D02*
X0046443Y0033333D01*
X0045645Y0032534D02*
X0055620Y0032534D01*
X0055620Y0031736D02*
X0044846Y0031736D01*
X0047242Y0034132D02*
X0055620Y0034132D01*
X0055620Y0034930D02*
X0048040Y0034930D01*
X0048839Y0035729D02*
X0055620Y0035729D01*
X0055701Y0036527D02*
X0049637Y0036527D01*
X0050436Y0037326D02*
X0056448Y0037326D01*
X0055836Y0038124D02*
X0051235Y0038124D01*
X0052033Y0038923D02*
X0055820Y0038923D01*
X0055820Y0039721D02*
X0052832Y0039721D01*
X0053630Y0040520D02*
X0055820Y0040520D01*
X0055820Y0041318D02*
X0054046Y0041318D01*
X0054046Y0042117D02*
X0055820Y0042117D01*
X0055820Y0042915D02*
X0054046Y0042915D01*
X0054046Y0043714D02*
X0055820Y0043714D01*
X0056316Y0044512D02*
X0054046Y0044512D01*
X0054046Y0045311D02*
X0056193Y0045311D01*
X0056193Y0046109D02*
X0054046Y0046109D01*
X0054046Y0046908D02*
X0056193Y0046908D01*
X0056193Y0047706D02*
X0054046Y0047706D01*
X0054046Y0048505D02*
X0056193Y0048505D01*
X0056193Y0049303D02*
X0054046Y0049303D01*
X0054046Y0050102D02*
X0056193Y0050102D01*
X0056193Y0050900D02*
X0054046Y0050900D01*
X0054046Y0051699D02*
X0056193Y0051699D01*
X0056193Y0052497D02*
X0054046Y0052497D01*
X0054046Y0053296D02*
X0056193Y0053296D01*
X0056562Y0054094D02*
X0054046Y0054094D01*
X0054046Y0054893D02*
X0057858Y0054893D01*
X0057858Y0055691D02*
X0054046Y0055691D01*
X0054046Y0056490D02*
X0057858Y0056490D01*
X0057858Y0057288D02*
X0054046Y0057288D01*
X0054046Y0058087D02*
X0058629Y0058087D01*
X0059428Y0058885D02*
X0054046Y0058885D01*
X0054046Y0059684D02*
X0060226Y0059684D01*
X0061025Y0060482D02*
X0054046Y0060482D01*
X0054046Y0061281D02*
X0067769Y0061281D01*
X0067769Y0062079D02*
X0054046Y0062079D01*
X0054046Y0062878D02*
X0067769Y0062878D01*
X0067769Y0063676D02*
X0054046Y0063676D01*
X0054826Y0064475D02*
X0068126Y0064475D01*
X0067515Y0065273D02*
X0071757Y0065273D01*
X0071875Y0066072D02*
X0067767Y0066072D01*
X0067767Y0066870D02*
X0072128Y0066870D01*
X0072128Y0067669D02*
X0067767Y0067669D01*
X0067767Y0068468D02*
X0072283Y0068468D01*
X0072614Y0069266D02*
X0067767Y0069266D01*
X0067767Y0070065D02*
X0073351Y0070065D01*
X0074875Y0070863D02*
X0067767Y0070863D01*
X0067767Y0071662D02*
X0077303Y0071662D01*
X0077646Y0070863D02*
X0076339Y0070863D01*
X0076505Y0072460D02*
X0067767Y0072460D01*
X0067767Y0076453D02*
X0076617Y0076453D01*
X0077416Y0077251D02*
X0067848Y0077251D01*
X0067967Y0078050D02*
X0077293Y0078050D01*
X0076494Y0078848D02*
X0067967Y0078848D01*
X0067773Y0079647D02*
X0075696Y0079647D01*
X0074897Y0080445D02*
X0067767Y0080445D01*
X0067767Y0081244D02*
X0074099Y0081244D01*
X0073300Y0082042D02*
X0067767Y0082042D01*
X0067767Y0082841D02*
X0072502Y0082841D01*
X0071703Y0083639D02*
X0067767Y0083639D01*
X0067767Y0084438D02*
X0070905Y0084438D01*
X0070106Y0085236D02*
X0067767Y0085236D01*
X0067767Y0086035D02*
X0069308Y0086035D01*
X0068509Y0086833D02*
X0067767Y0086833D01*
X0067767Y0087632D02*
X0067820Y0087632D01*
X0067820Y0088430D02*
X0067767Y0088430D01*
X0067767Y0089229D02*
X0067820Y0089229D01*
X0067820Y0090027D02*
X0032462Y0090027D01*
X0032881Y0090826D02*
X0067769Y0090826D01*
X0067769Y0091624D02*
X0033081Y0091624D01*
X0031542Y0089229D02*
X0059461Y0089229D01*
X0059461Y0088430D02*
X0028346Y0088430D01*
X0028346Y0087632D02*
X0041093Y0087632D01*
X0040646Y0086833D02*
X0028346Y0086833D01*
X0028346Y0086035D02*
X0040630Y0086035D01*
X0040630Y0085236D02*
X0028346Y0085236D01*
X0028346Y0084438D02*
X0044582Y0084438D01*
X0044582Y0085236D02*
X0045382Y0085236D01*
X0045383Y0084438D02*
X0053603Y0084438D01*
X0053200Y0083639D02*
X0049335Y0083639D01*
X0049335Y0082841D02*
X0052965Y0082841D01*
X0052965Y0082042D02*
X0049335Y0082042D01*
X0049260Y0081244D02*
X0053166Y0081244D01*
X0053520Y0080445D02*
X0048549Y0080445D01*
X0049094Y0079647D02*
X0054318Y0079647D01*
X0058375Y0079647D02*
X0059455Y0079647D01*
X0059461Y0080445D02*
X0059173Y0080445D01*
X0059261Y0078848D02*
X0049135Y0078848D01*
X0049135Y0074057D02*
X0059461Y0074057D01*
X0059461Y0073259D02*
X0048664Y0073259D01*
X0045301Y0067305D02*
X0044058Y0067820D01*
X0042713Y0067820D01*
X0041470Y0067305D01*
X0040519Y0066354D01*
X0040004Y0065112D01*
X0040004Y0063767D01*
X0040519Y0062524D01*
X0041386Y0061657D01*
X0041386Y0061060D01*
X0039958Y0061060D01*
X0039661Y0060763D01*
X0039395Y0061029D01*
X0032496Y0061029D01*
X0031793Y0060326D01*
X0031793Y0058921D01*
X0031017Y0058921D01*
X0031017Y0059781D01*
X0030314Y0060484D01*
X0027155Y0060484D01*
X0026452Y0059781D01*
X0026452Y0054062D01*
X0027155Y0053359D01*
X0030314Y0053359D01*
X0031017Y0054062D01*
X0031017Y0054922D01*
X0031793Y0054922D01*
X0031793Y0054450D01*
X0032496Y0053747D01*
X0032803Y0053747D01*
X0032452Y0053653D01*
X0032133Y0053469D01*
X0031872Y0053208D01*
X0031688Y0052889D01*
X0031593Y0052533D01*
X0031593Y0050308D01*
X0035545Y0050308D01*
X0035545Y0049508D01*
X0031593Y0049508D01*
X0031593Y0047282D01*
X0031688Y0046926D01*
X0031872Y0046607D01*
X0032133Y0046346D01*
X0032452Y0046162D01*
X0032808Y0046067D01*
X0035546Y0046067D01*
X0035546Y0049508D01*
X0036345Y0049508D01*
X0036345Y0046067D01*
X0039083Y0046067D01*
X0039439Y0046162D01*
X0039704Y0046315D01*
X0039914Y0046194D01*
X0040270Y0046098D01*
X0043008Y0046098D01*
X0043008Y0049539D01*
X0043807Y0049539D01*
X0043807Y0046098D01*
X0046545Y0046098D01*
X0046901Y0046194D01*
X0047220Y0046378D01*
X0047481Y0046638D01*
X0047665Y0046958D01*
X0047760Y0047314D01*
X0047760Y0049539D01*
X0043808Y0049539D01*
X0043808Y0050339D01*
X0047760Y0050339D01*
X0047760Y0052564D01*
X0047665Y0052920D01*
X0047481Y0053240D01*
X0047220Y0053500D01*
X0046901Y0053685D01*
X0046550Y0053778D01*
X0046857Y0053778D01*
X0047560Y0054481D01*
X0047560Y0060357D01*
X0046857Y0061060D01*
X0045386Y0061060D01*
X0045386Y0061657D01*
X0046252Y0062524D01*
X0046767Y0063767D01*
X0046767Y0065112D01*
X0046252Y0066354D01*
X0045301Y0067305D01*
X0045736Y0066870D02*
X0052413Y0066870D01*
X0051614Y0066072D02*
X0046369Y0066072D01*
X0046700Y0065273D02*
X0050816Y0065273D01*
X0050646Y0064475D02*
X0046767Y0064475D01*
X0046729Y0063676D02*
X0050646Y0063676D01*
X0050646Y0062878D02*
X0046399Y0062878D01*
X0045807Y0062079D02*
X0050646Y0062079D01*
X0050646Y0061281D02*
X0045386Y0061281D01*
X0047435Y0060482D02*
X0050646Y0060482D01*
X0050646Y0059684D02*
X0047560Y0059684D01*
X0047560Y0058885D02*
X0050646Y0058885D01*
X0050646Y0058087D02*
X0047560Y0058087D01*
X0047560Y0057288D02*
X0050646Y0057288D01*
X0050646Y0056490D02*
X0047560Y0056490D01*
X0047560Y0055691D02*
X0050646Y0055691D01*
X0050646Y0054893D02*
X0047560Y0054893D01*
X0047173Y0054094D02*
X0050646Y0054094D01*
X0050646Y0053296D02*
X0047424Y0053296D01*
X0047760Y0052497D02*
X0050646Y0052497D01*
X0050646Y0051699D02*
X0047760Y0051699D01*
X0047760Y0050900D02*
X0050646Y0050900D01*
X0050646Y0050102D02*
X0043808Y0050102D01*
X0043807Y0049303D02*
X0043008Y0049303D01*
X0043007Y0049539D02*
X0039055Y0049539D01*
X0039055Y0049508D01*
X0036346Y0049508D01*
X0036346Y0050308D01*
X0040298Y0050308D01*
X0040298Y0050339D01*
X0043007Y0050339D01*
X0043007Y0049539D01*
X0043007Y0050102D02*
X0036346Y0050102D01*
X0036345Y0049303D02*
X0035546Y0049303D01*
X0035546Y0048505D02*
X0036345Y0048505D01*
X0036345Y0047706D02*
X0035546Y0047706D01*
X0035546Y0046908D02*
X0036345Y0046908D01*
X0036345Y0046109D02*
X0035546Y0046109D01*
X0032650Y0046109D02*
X0014746Y0046109D01*
X0014746Y0045311D02*
X0050646Y0045311D01*
X0050646Y0046109D02*
X0046586Y0046109D01*
X0047636Y0046908D02*
X0050646Y0046908D01*
X0050646Y0047706D02*
X0047760Y0047706D01*
X0047760Y0048505D02*
X0050646Y0048505D01*
X0050646Y0049303D02*
X0047760Y0049303D01*
X0043807Y0048505D02*
X0043008Y0048505D01*
X0043008Y0047706D02*
X0043807Y0047706D01*
X0043807Y0046908D02*
X0043008Y0046908D01*
X0043008Y0046109D02*
X0043807Y0046109D01*
X0040229Y0046109D02*
X0039241Y0046109D01*
X0035545Y0050102D02*
X0014746Y0050102D01*
X0014746Y0050900D02*
X0031593Y0050900D01*
X0031593Y0051699D02*
X0014746Y0051699D01*
X0014746Y0052497D02*
X0031593Y0052497D01*
X0031960Y0053296D02*
X0014746Y0053296D01*
X0014746Y0054094D02*
X0018972Y0054094D01*
X0018972Y0054062D02*
X0019675Y0053359D01*
X0022834Y0053359D01*
X0023537Y0054062D01*
X0023537Y0059781D01*
X0022834Y0060484D01*
X0019675Y0060484D01*
X0018972Y0059781D01*
X0018972Y0054062D01*
X0018972Y0054893D02*
X0014746Y0054893D01*
X0014746Y0055691D02*
X0018972Y0055691D01*
X0018972Y0056490D02*
X0014746Y0056490D01*
X0014746Y0057288D02*
X0018972Y0057288D01*
X0018972Y0058087D02*
X0014746Y0058087D01*
X0014746Y0058885D02*
X0018972Y0058885D01*
X0018972Y0059684D02*
X0014746Y0059684D01*
X0014746Y0060482D02*
X0019673Y0060482D01*
X0022835Y0060482D02*
X0027154Y0060482D01*
X0026452Y0059684D02*
X0023537Y0059684D01*
X0023537Y0058885D02*
X0026452Y0058885D01*
X0026452Y0058087D02*
X0023537Y0058087D01*
X0023537Y0057288D02*
X0026452Y0057288D01*
X0026452Y0056490D02*
X0023537Y0056490D01*
X0023537Y0055691D02*
X0026452Y0055691D01*
X0026452Y0054893D02*
X0023537Y0054893D01*
X0023537Y0054094D02*
X0026452Y0054094D01*
X0031017Y0054094D02*
X0032148Y0054094D01*
X0031793Y0054893D02*
X0031017Y0054893D01*
X0031017Y0059684D02*
X0031793Y0059684D01*
X0031949Y0060482D02*
X0030316Y0060482D01*
X0030394Y0063676D02*
X0040042Y0063676D01*
X0040004Y0064475D02*
X0031017Y0064475D01*
X0031017Y0065273D02*
X0040071Y0065273D01*
X0040402Y0066072D02*
X0031017Y0066072D01*
X0031017Y0066870D02*
X0041035Y0066870D01*
X0042348Y0067669D02*
X0031017Y0067669D01*
X0031017Y0068468D02*
X0054010Y0068468D01*
X0054808Y0069266D02*
X0031017Y0069266D01*
X0030971Y0070065D02*
X0055607Y0070065D01*
X0059461Y0070863D02*
X0032012Y0070863D01*
X0032164Y0071662D02*
X0059461Y0071662D01*
X0059461Y0072460D02*
X0032164Y0072460D01*
X0032164Y0073259D02*
X0041301Y0073259D01*
X0040830Y0074057D02*
X0032164Y0074057D01*
X0032164Y0074856D02*
X0040830Y0074856D01*
X0040830Y0075654D02*
X0032541Y0075654D01*
X0033340Y0076453D02*
X0040830Y0076453D01*
X0040830Y0077251D02*
X0034138Y0077251D01*
X0034778Y0078050D02*
X0040830Y0078050D01*
X0040830Y0078848D02*
X0035363Y0078848D01*
X0035694Y0079647D02*
X0040871Y0079647D01*
X0041416Y0080445D02*
X0035728Y0080445D01*
X0035657Y0081244D02*
X0040705Y0081244D01*
X0040630Y0082042D02*
X0035326Y0082042D01*
X0034687Y0082841D02*
X0040630Y0082841D01*
X0040630Y0083639D02*
X0033362Y0083639D01*
X0031331Y0083639D02*
X0028346Y0083639D01*
X0028346Y0082841D02*
X0030006Y0082841D01*
X0029367Y0082042D02*
X0028346Y0082042D01*
X0028346Y0081244D02*
X0029036Y0081244D01*
X0028965Y0080445D02*
X0028346Y0080445D01*
X0028346Y0079647D02*
X0028999Y0079647D01*
X0029330Y0078848D02*
X0028346Y0078848D01*
X0024346Y0078848D02*
X0014746Y0078848D01*
X0014746Y0078050D02*
X0017537Y0078050D01*
X0017401Y0077251D02*
X0014746Y0077251D01*
X0014746Y0076453D02*
X0017401Y0076453D01*
X0017401Y0075654D02*
X0014746Y0075654D01*
X0014746Y0074856D02*
X0017401Y0074856D01*
X0017401Y0074057D02*
X0014746Y0074057D01*
X0014746Y0073259D02*
X0017401Y0073259D01*
X0017401Y0072460D02*
X0014746Y0072460D01*
X0014746Y0071662D02*
X0017401Y0071662D01*
X0017553Y0070863D02*
X0014746Y0070863D01*
X0014746Y0070065D02*
X0019018Y0070065D01*
X0018972Y0069266D02*
X0014746Y0069266D01*
X0014746Y0068468D02*
X0018972Y0068468D01*
X0018972Y0067669D02*
X0014746Y0067669D01*
X0014746Y0066870D02*
X0018972Y0066870D01*
X0018972Y0066072D02*
X0014746Y0066072D01*
X0014746Y0065273D02*
X0018972Y0065273D01*
X0018972Y0064475D02*
X0014746Y0064475D01*
X0014746Y0063676D02*
X0019594Y0063676D01*
X0022914Y0063676D02*
X0023052Y0063676D01*
X0024853Y0063676D02*
X0025136Y0063676D01*
X0025136Y0064475D02*
X0024853Y0064475D01*
X0024853Y0065273D02*
X0025136Y0065273D01*
X0025136Y0066072D02*
X0024853Y0066072D01*
X0024853Y0066870D02*
X0025136Y0066870D01*
X0025136Y0067300D02*
X0024853Y0067300D01*
X0024853Y0070921D01*
X0024590Y0070921D01*
X0024683Y0071014D01*
X0024683Y0075475D01*
X0024882Y0075277D01*
X0024882Y0071014D01*
X0025136Y0070760D01*
X0025136Y0067300D01*
X0025136Y0067669D02*
X0024853Y0067669D01*
X0024853Y0068468D02*
X0025136Y0068468D01*
X0025136Y0069266D02*
X0024853Y0069266D01*
X0024853Y0070065D02*
X0025136Y0070065D01*
X0025033Y0070863D02*
X0024853Y0070863D01*
X0024882Y0071662D02*
X0024683Y0071662D01*
X0024683Y0072460D02*
X0024882Y0072460D01*
X0024882Y0073259D02*
X0024683Y0073259D01*
X0024683Y0074057D02*
X0024882Y0074057D01*
X0024882Y0074856D02*
X0024683Y0074856D01*
X0024346Y0079647D02*
X0014746Y0079647D01*
X0014746Y0080445D02*
X0017317Y0080445D01*
X0016994Y0081244D02*
X0014746Y0081244D01*
X0014746Y0082042D02*
X0016994Y0082042D01*
X0016994Y0082841D02*
X0014746Y0082841D01*
X0014746Y0083639D02*
X0016994Y0083639D01*
X0016994Y0084438D02*
X0014746Y0084438D01*
X0014746Y0085236D02*
X0020946Y0085236D01*
X0020946Y0084438D02*
X0021746Y0084438D01*
X0021746Y0083639D02*
X0020946Y0083639D01*
X0020946Y0082841D02*
X0021746Y0082841D01*
X0021746Y0082042D02*
X0020946Y0082042D01*
X0020946Y0081244D02*
X0021746Y0081244D01*
X0021746Y0080445D02*
X0020946Y0080445D01*
X0020946Y0086035D02*
X0021746Y0086035D01*
X0021746Y0086833D02*
X0020946Y0086833D01*
X0020946Y0087632D02*
X0021746Y0087632D01*
X0021746Y0088430D02*
X0020946Y0088430D01*
X0020946Y0089229D02*
X0021746Y0089229D01*
X0024346Y0090027D02*
X0015954Y0090027D01*
X0016446Y0090826D02*
X0024346Y0090826D01*
X0024346Y0091624D02*
X0016446Y0091624D01*
X0016446Y0092423D02*
X0024346Y0092423D01*
X0021746Y0093221D02*
X0020946Y0093221D01*
X0020946Y0094020D02*
X0021746Y0094020D01*
X0021746Y0094818D02*
X0020946Y0094818D01*
X0020946Y0095617D02*
X0021746Y0095617D01*
X0021746Y0096415D02*
X0020946Y0096415D01*
X0020946Y0097214D02*
X0021746Y0097214D01*
X0021746Y0098012D02*
X0020946Y0098012D01*
X0020946Y0098811D02*
X0021746Y0098811D01*
X0020946Y0099609D02*
X0016446Y0099609D01*
X0016446Y0098811D02*
X0016994Y0098811D01*
X0016994Y0098012D02*
X0016446Y0098012D01*
X0016446Y0097214D02*
X0016994Y0097214D01*
X0016994Y0096415D02*
X0016446Y0096415D01*
X0016446Y0095617D02*
X0016994Y0095617D01*
X0016994Y0094818D02*
X0016446Y0094818D01*
X0016446Y0094020D02*
X0017067Y0094020D01*
X0016446Y0093221D02*
X0017772Y0093221D01*
X0017235Y0089229D02*
X0015155Y0089229D01*
X0014746Y0088430D02*
X0016994Y0088430D01*
X0016994Y0087632D02*
X0014746Y0087632D01*
X0014746Y0086833D02*
X0016994Y0086833D01*
X0016994Y0086035D02*
X0014746Y0086035D01*
X0028346Y0089229D02*
X0028473Y0089229D01*
X0035837Y0092423D02*
X0067769Y0092423D01*
X0067769Y0093221D02*
X0036305Y0093221D01*
X0036329Y0094020D02*
X0067769Y0094020D01*
X0067769Y0094818D02*
X0036329Y0094818D01*
X0036230Y0095617D02*
X0067769Y0095617D01*
X0067769Y0096415D02*
X0036129Y0096415D01*
X0036129Y0097214D02*
X0067769Y0097214D01*
X0071488Y0094020D02*
X0071488Y0094020D01*
X0071488Y0093221D02*
X0071488Y0093221D01*
X0071488Y0092423D02*
X0071488Y0092423D01*
X0071488Y0091624D02*
X0071488Y0091624D01*
X0071488Y0090826D02*
X0071488Y0090826D01*
X0071488Y0090027D02*
X0071488Y0090027D01*
X0071220Y0089229D02*
X0092926Y0089229D01*
X0092926Y0088430D02*
X0071720Y0088430D01*
X0072519Y0087632D02*
X0092926Y0087632D01*
X0092926Y0086833D02*
X0073317Y0086833D01*
X0074116Y0086035D02*
X0092926Y0086035D01*
X0092926Y0085236D02*
X0074914Y0085236D01*
X0075713Y0084438D02*
X0092926Y0084438D01*
X0092926Y0083639D02*
X0076511Y0083639D01*
X0077310Y0082841D02*
X0092926Y0082841D01*
X0092926Y0082042D02*
X0078108Y0082042D01*
X0078907Y0081244D02*
X0092926Y0081244D01*
X0092926Y0080445D02*
X0079705Y0080445D01*
X0080504Y0079647D02*
X0092926Y0079647D01*
X0092926Y0078848D02*
X0081046Y0078848D01*
X0081046Y0078050D02*
X0092926Y0078050D01*
X0092753Y0077251D02*
X0081277Y0077251D01*
X0082075Y0076453D02*
X0092726Y0076453D01*
X0092926Y0072460D02*
X0082188Y0072460D01*
X0081390Y0071662D02*
X0092926Y0071662D01*
X0092926Y0070863D02*
X0081046Y0070863D01*
X0081062Y0070065D02*
X0082151Y0070065D01*
X0081378Y0069266D02*
X0081062Y0069266D01*
X0086542Y0070065D02*
X0092926Y0070065D01*
X0092926Y0069266D02*
X0087315Y0069266D01*
X0087645Y0068468D02*
X0092926Y0068468D01*
X0092926Y0067669D02*
X0087826Y0067669D01*
X0087826Y0066870D02*
X0092926Y0066870D01*
X0092926Y0066072D02*
X0087588Y0066072D01*
X0087201Y0065273D02*
X0093178Y0065273D01*
X0092567Y0064475D02*
X0119867Y0064475D01*
X0119069Y0065273D02*
X0100980Y0065273D01*
X0101231Y0066072D02*
X0118270Y0066072D01*
X0120666Y0063676D02*
X0092924Y0063676D01*
X0092924Y0062878D02*
X0121464Y0062878D01*
X0122263Y0062079D02*
X0092924Y0062079D01*
X0092924Y0061281D02*
X0123061Y0061281D01*
X0123860Y0060482D02*
X0092924Y0060482D01*
X0092924Y0059684D02*
X0124658Y0059684D01*
X0125457Y0058885D02*
X0092924Y0058885D01*
X0092924Y0058087D02*
X0126255Y0058087D01*
X0127054Y0057288D02*
X0092924Y0057288D01*
X0089934Y0055691D02*
X0128651Y0055691D01*
X0129449Y0054893D02*
X0090732Y0054893D01*
X0091531Y0054094D02*
X0130248Y0054094D01*
X0131046Y0053296D02*
X0092329Y0053296D01*
X0093128Y0052497D02*
X0131845Y0052497D01*
X0132644Y0051699D02*
X0093926Y0051699D01*
X0094725Y0050900D02*
X0133442Y0050900D01*
X0134241Y0050102D02*
X0095523Y0050102D01*
X0096322Y0049303D02*
X0135039Y0049303D01*
X0135838Y0048505D02*
X0097120Y0048505D01*
X0097919Y0047706D02*
X0136636Y0047706D01*
X0137435Y0046908D02*
X0098717Y0046908D01*
X0099516Y0046109D02*
X0138233Y0046109D01*
X0139032Y0045311D02*
X0100314Y0045311D01*
X0101113Y0044512D02*
X0139830Y0044512D01*
X0140629Y0043714D02*
X0101911Y0043714D01*
X0102710Y0042915D02*
X0140670Y0042915D01*
X0140446Y0042117D02*
X0103508Y0042117D01*
X0104307Y0041318D02*
X0140446Y0041318D01*
X0140446Y0040520D02*
X0105105Y0040520D01*
X0105904Y0039721D02*
X0140738Y0039721D01*
X0141069Y0038923D02*
X0106703Y0038923D01*
X0107501Y0038124D02*
X0141693Y0038124D01*
X0142491Y0037326D02*
X0108300Y0037326D01*
X0109098Y0036527D02*
X0144306Y0036527D01*
X0144946Y0035729D02*
X0145746Y0035729D01*
X0145746Y0034930D02*
X0144946Y0034930D01*
X0144946Y0034132D02*
X0145746Y0034132D01*
X0145746Y0033333D02*
X0144946Y0033333D01*
X0144946Y0032534D02*
X0145746Y0032534D01*
X0145747Y0031736D02*
X0152606Y0031736D01*
X0151808Y0032534D02*
X0150330Y0032534D01*
X0150437Y0030937D02*
X0153405Y0030937D01*
X0154203Y0030139D02*
X0150299Y0030139D01*
X0150021Y0029340D02*
X0155002Y0029340D01*
X0155800Y0028542D02*
X0149574Y0028542D01*
X0148902Y0027743D02*
X0156599Y0027743D01*
X0157397Y0026945D02*
X0147837Y0026945D01*
X0146692Y0026146D02*
X0158194Y0026146D01*
X0158194Y0025348D02*
X0148328Y0025348D01*
X0148122Y0025554D02*
X0146321Y0026300D01*
X0144372Y0026300D01*
X0142571Y0025554D01*
X0141192Y0024176D01*
X0140446Y0022375D01*
X0140446Y0020425D01*
X0141192Y0018624D01*
X0142571Y0017246D01*
X0144372Y0016500D01*
X0146321Y0016500D01*
X0148122Y0017246D01*
X0149500Y0018624D01*
X0150246Y0020425D01*
X0150246Y0022375D01*
X0149500Y0024176D01*
X0148122Y0025554D01*
X0149127Y0024549D02*
X0158194Y0024549D01*
X0158194Y0023751D02*
X0149676Y0023751D01*
X0150007Y0022952D02*
X0158730Y0022952D01*
X0158061Y0022154D02*
X0150246Y0022154D01*
X0150246Y0021355D02*
X0157994Y0021355D01*
X0157994Y0020557D02*
X0150246Y0020557D01*
X0149970Y0019758D02*
X0157994Y0019758D01*
X0157994Y0018161D02*
X0149037Y0018161D01*
X0149639Y0018960D02*
X0161946Y0018960D01*
X0161946Y0018161D02*
X0162746Y0018161D01*
X0162746Y0017363D02*
X0161946Y0017363D01*
X0161946Y0016564D02*
X0162746Y0016564D01*
X0162746Y0015766D02*
X0161946Y0015766D01*
X0162746Y0018960D02*
X0168346Y0018960D01*
X0168346Y0019758D02*
X0166699Y0019758D01*
X0166699Y0020557D02*
X0168346Y0020557D01*
X0168346Y0021355D02*
X0166699Y0021355D01*
X0166632Y0022154D02*
X0168346Y0022154D01*
X0168346Y0022952D02*
X0165963Y0022952D01*
X0166499Y0023751D02*
X0168346Y0023751D01*
X0168346Y0024549D02*
X0166499Y0024549D01*
X0166499Y0025348D02*
X0168346Y0025348D01*
X0168346Y0026146D02*
X0166499Y0026146D01*
X0166499Y0026945D02*
X0168346Y0026945D01*
X0168346Y0027743D02*
X0166499Y0027743D01*
X0166499Y0028542D02*
X0168346Y0028542D01*
X0168346Y0029340D02*
X0166499Y0029340D01*
X0166056Y0030139D02*
X0168346Y0030139D01*
X0168346Y0030937D02*
X0158213Y0030937D01*
X0154051Y0035100D02*
X0153714Y0035437D01*
X0153826Y0035708D01*
X0153826Y0037092D01*
X0153296Y0038371D01*
X0152317Y0039350D01*
X0151039Y0039880D01*
X0150020Y0039880D01*
X0150246Y0040425D01*
X0150246Y0042375D01*
X0149500Y0044176D01*
X0148122Y0045554D01*
X0146321Y0046300D01*
X0144372Y0046300D01*
X0143296Y0045854D01*
X0120340Y0068810D01*
X0125532Y0068810D01*
X0140892Y0053450D01*
X0140446Y0052375D01*
X0140446Y0050425D01*
X0141192Y0048624D01*
X0142571Y0047246D01*
X0144372Y0046500D01*
X0146321Y0046500D01*
X0148122Y0047246D01*
X0149500Y0048624D01*
X0150246Y0050425D01*
X0150246Y0052375D01*
X0149500Y0054176D01*
X0148122Y0055554D01*
X0146321Y0056300D01*
X0144372Y0056300D01*
X0143296Y0055854D01*
X0128372Y0070779D01*
X0133564Y0070779D01*
X0140892Y0063450D01*
X0140446Y0062375D01*
X0140446Y0060425D01*
X0141192Y0058624D01*
X0142571Y0057246D01*
X0144372Y0056500D01*
X0146321Y0056500D01*
X0148122Y0057246D01*
X0149500Y0058624D01*
X0150246Y0060425D01*
X0150246Y0062375D01*
X0150020Y0062920D01*
X0151039Y0062920D01*
X0152317Y0063450D01*
X0153296Y0064429D01*
X0153409Y0064700D01*
X0158694Y0064700D01*
X0158694Y0063584D01*
X0159291Y0062987D01*
X0159034Y0062839D01*
X0158773Y0062579D01*
X0158589Y0062259D01*
X0158494Y0061903D01*
X0158494Y0059560D01*
X0162446Y0059560D01*
X0162446Y0058760D01*
X0158494Y0058760D01*
X0158494Y0056416D01*
X0158589Y0056060D01*
X0158773Y0055741D01*
X0159034Y0055481D01*
X0159353Y0055296D01*
X0159709Y0055201D01*
X0162446Y0055201D01*
X0162446Y0058760D01*
X0163246Y0058760D01*
X0163246Y0055201D01*
X0165984Y0055201D01*
X0166340Y0055296D01*
X0166659Y0055481D01*
X0166919Y0055741D01*
X0167104Y0056060D01*
X0167199Y0056416D01*
X0167199Y0058760D01*
X0163246Y0058760D01*
X0163246Y0059560D01*
X0167199Y0059560D01*
X0167199Y0061903D01*
X0167104Y0062259D01*
X0166919Y0062579D01*
X0166659Y0062839D01*
X0166402Y0062987D01*
X0166999Y0063584D01*
X0166999Y0069696D01*
X0166296Y0070399D01*
X0159397Y0070399D01*
X0158694Y0069696D01*
X0158694Y0068100D01*
X0154451Y0068100D01*
X0158051Y0071700D01*
X0168346Y0071700D01*
X0168346Y0056285D01*
X0167815Y0055753D01*
X0166973Y0053721D01*
X0166973Y0051520D01*
X0167815Y0049488D01*
X0168346Y0048956D01*
X0168346Y0043844D01*
X0167815Y0043312D01*
X0166973Y0041280D01*
X0166973Y0039079D01*
X0167815Y0037047D01*
X0168346Y0036515D01*
X0168346Y0035100D01*
X0154051Y0035100D01*
X0153826Y0035729D02*
X0168346Y0035729D01*
X0168335Y0036527D02*
X0153826Y0036527D01*
X0153729Y0037326D02*
X0167700Y0037326D01*
X0167369Y0038124D02*
X0153399Y0038124D01*
X0152745Y0038923D02*
X0167038Y0038923D01*
X0166973Y0039721D02*
X0151421Y0039721D01*
X0150246Y0040520D02*
X0166973Y0040520D01*
X0166989Y0041318D02*
X0150246Y0041318D01*
X0150246Y0042117D02*
X0167320Y0042117D01*
X0167651Y0042915D02*
X0150023Y0042915D01*
X0149692Y0043714D02*
X0168216Y0043714D01*
X0168346Y0044512D02*
X0149164Y0044512D01*
X0148365Y0045311D02*
X0168346Y0045311D01*
X0168346Y0046109D02*
X0146782Y0046109D01*
X0147305Y0046908D02*
X0168346Y0046908D01*
X0168346Y0047706D02*
X0148582Y0047706D01*
X0149381Y0048505D02*
X0168346Y0048505D01*
X0168000Y0049303D02*
X0149782Y0049303D01*
X0150112Y0050102D02*
X0167561Y0050102D01*
X0167230Y0050900D02*
X0150246Y0050900D01*
X0150246Y0051699D02*
X0166973Y0051699D01*
X0166973Y0052497D02*
X0150196Y0052497D01*
X0149865Y0053296D02*
X0166973Y0053296D01*
X0167128Y0054094D02*
X0149534Y0054094D01*
X0148783Y0054893D02*
X0167459Y0054893D01*
X0167790Y0055691D02*
X0166870Y0055691D01*
X0167199Y0056490D02*
X0168346Y0056490D01*
X0168346Y0057288D02*
X0167199Y0057288D01*
X0167199Y0058087D02*
X0168346Y0058087D01*
X0168346Y0058885D02*
X0163246Y0058885D01*
X0163246Y0058087D02*
X0162446Y0058087D01*
X0162446Y0058885D02*
X0149609Y0058885D01*
X0149939Y0059684D02*
X0158494Y0059684D01*
X0158494Y0060482D02*
X0150246Y0060482D01*
X0150246Y0061281D02*
X0158494Y0061281D01*
X0158541Y0062079D02*
X0150246Y0062079D01*
X0150038Y0062878D02*
X0159101Y0062878D01*
X0158694Y0063676D02*
X0152544Y0063676D01*
X0153315Y0064475D02*
X0158694Y0064475D01*
X0158694Y0068468D02*
X0154818Y0068468D01*
X0155617Y0069266D02*
X0158694Y0069266D01*
X0159062Y0070065D02*
X0156415Y0070065D01*
X0157214Y0070863D02*
X0168346Y0070863D01*
X0168346Y0070065D02*
X0166631Y0070065D01*
X0166999Y0069266D02*
X0168346Y0069266D01*
X0168346Y0068468D02*
X0166999Y0068468D01*
X0166999Y0067669D02*
X0168346Y0067669D01*
X0168346Y0066870D02*
X0166999Y0066870D01*
X0166999Y0066072D02*
X0168346Y0066072D01*
X0168346Y0065273D02*
X0166999Y0065273D01*
X0166999Y0064475D02*
X0168346Y0064475D01*
X0168346Y0063676D02*
X0166999Y0063676D01*
X0166592Y0062878D02*
X0168346Y0062878D01*
X0168346Y0062079D02*
X0167152Y0062079D01*
X0167199Y0061281D02*
X0168346Y0061281D01*
X0168346Y0060482D02*
X0167199Y0060482D01*
X0167199Y0059684D02*
X0168346Y0059684D01*
X0163246Y0057288D02*
X0162446Y0057288D01*
X0162446Y0056490D02*
X0163246Y0056490D01*
X0163246Y0055691D02*
X0162446Y0055691D01*
X0158823Y0055691D02*
X0147791Y0055691D01*
X0148164Y0057288D02*
X0158494Y0057288D01*
X0158494Y0056490D02*
X0142661Y0056490D01*
X0142528Y0057288D02*
X0141862Y0057288D01*
X0141730Y0058087D02*
X0141064Y0058087D01*
X0141084Y0058885D02*
X0140265Y0058885D01*
X0140754Y0059684D02*
X0139467Y0059684D01*
X0138668Y0060482D02*
X0140446Y0060482D01*
X0140446Y0061281D02*
X0137870Y0061281D01*
X0137071Y0062079D02*
X0140446Y0062079D01*
X0140655Y0062878D02*
X0136273Y0062878D01*
X0135474Y0063676D02*
X0140666Y0063676D01*
X0139867Y0064475D02*
X0134676Y0064475D01*
X0133877Y0065273D02*
X0139069Y0065273D01*
X0138270Y0066072D02*
X0133079Y0066072D01*
X0132280Y0066870D02*
X0137472Y0066870D01*
X0136673Y0067669D02*
X0131482Y0067669D01*
X0130683Y0068468D02*
X0135875Y0068468D01*
X0135076Y0069266D02*
X0129885Y0069266D01*
X0129086Y0070065D02*
X0134278Y0070065D01*
X0129069Y0065273D02*
X0123877Y0065273D01*
X0124676Y0064475D02*
X0129867Y0064475D01*
X0130666Y0063676D02*
X0125474Y0063676D01*
X0126273Y0062878D02*
X0131464Y0062878D01*
X0132263Y0062079D02*
X0127071Y0062079D01*
X0127870Y0061281D02*
X0133061Y0061281D01*
X0133860Y0060482D02*
X0128668Y0060482D01*
X0129467Y0059684D02*
X0134658Y0059684D01*
X0135457Y0058885D02*
X0130265Y0058885D01*
X0131064Y0058087D02*
X0136255Y0058087D01*
X0137054Y0057288D02*
X0131862Y0057288D01*
X0132661Y0056490D02*
X0137852Y0056490D01*
X0138651Y0055691D02*
X0133459Y0055691D01*
X0134258Y0054893D02*
X0139449Y0054893D01*
X0140248Y0054094D02*
X0135056Y0054094D01*
X0135855Y0053296D02*
X0140828Y0053296D01*
X0140497Y0052497D02*
X0136653Y0052497D01*
X0137452Y0051699D02*
X0140446Y0051699D01*
X0140446Y0050900D02*
X0138250Y0050900D01*
X0139049Y0050102D02*
X0140580Y0050102D01*
X0140911Y0049303D02*
X0139847Y0049303D01*
X0140646Y0048505D02*
X0141312Y0048505D01*
X0141444Y0047706D02*
X0142111Y0047706D01*
X0142243Y0046908D02*
X0143387Y0046908D01*
X0143041Y0046109D02*
X0143911Y0046109D01*
X0146386Y0036527D02*
X0146867Y0036527D01*
X0142628Y0035729D02*
X0109897Y0035729D01*
X0110695Y0034930D02*
X0141664Y0034930D01*
X0141027Y0034132D02*
X0111494Y0034132D01*
X0112292Y0033333D02*
X0140612Y0033333D01*
X0140363Y0032534D02*
X0113091Y0032534D01*
X0113889Y0031736D02*
X0144946Y0031736D01*
X0144946Y0030937D02*
X0145746Y0030937D01*
X0145746Y0030139D02*
X0144946Y0030139D01*
X0144946Y0029340D02*
X0145746Y0029340D01*
X0145746Y0028542D02*
X0144946Y0028542D01*
X0144946Y0027743D02*
X0145746Y0027743D01*
X0145746Y0026945D02*
X0144946Y0026945D01*
X0144001Y0026146D02*
X0116546Y0026146D01*
X0116546Y0025348D02*
X0142365Y0025348D01*
X0141566Y0024549D02*
X0116546Y0024549D01*
X0116546Y0023751D02*
X0141017Y0023751D01*
X0140686Y0022952D02*
X0116546Y0022952D01*
X0116546Y0022154D02*
X0140446Y0022154D01*
X0140446Y0021355D02*
X0116546Y0021355D01*
X0116546Y0020557D02*
X0140446Y0020557D01*
X0140723Y0019758D02*
X0116546Y0019758D01*
X0116546Y0018960D02*
X0141053Y0018960D01*
X0141656Y0018161D02*
X0126697Y0018161D01*
X0126804Y0018126D02*
X0126041Y0018374D01*
X0125248Y0018500D01*
X0125246Y0018500D01*
X0125246Y0013800D01*
X0124446Y0013800D01*
X0124446Y0013000D01*
X0119746Y0013000D01*
X0119746Y0012999D01*
X0119872Y0012206D01*
X0120120Y0011442D01*
X0120485Y0010727D01*
X0120956Y0010078D01*
X0121524Y0009510D01*
X0122173Y0009038D01*
X0122889Y0008674D01*
X0123652Y0008426D01*
X0124445Y0008300D01*
X0124446Y0008300D01*
X0124446Y0013000D01*
X0125246Y0013000D01*
X0125246Y0008300D01*
X0125248Y0008300D01*
X0126041Y0008426D01*
X0126804Y0008674D01*
X0127519Y0009038D01*
X0128169Y0009510D01*
X0128737Y0010078D01*
X0129208Y0010727D01*
X0129573Y0011442D01*
X0129821Y0012206D01*
X0129946Y0012999D01*
X0129946Y0013000D01*
X0125247Y0013000D01*
X0125247Y0013800D01*
X0129946Y0013800D01*
X0129946Y0013801D01*
X0129821Y0014594D01*
X0129573Y0015358D01*
X0129208Y0016073D01*
X0128737Y0016722D01*
X0128169Y0017290D01*
X0127519Y0017762D01*
X0126804Y0018126D01*
X0128069Y0017363D02*
X0142454Y0017363D01*
X0144217Y0016564D02*
X0128851Y0016564D01*
X0129365Y0015766D02*
X0158259Y0015766D01*
X0157994Y0016564D02*
X0146476Y0016564D01*
X0148239Y0017363D02*
X0157994Y0017363D01*
X0166434Y0015766D02*
X0167828Y0015766D01*
X0167490Y0014967D02*
X0129700Y0014967D01*
X0129888Y0014169D02*
X0167159Y0014169D01*
X0166973Y0013370D02*
X0125247Y0013370D01*
X0125246Y0012572D02*
X0124446Y0012572D01*
X0124446Y0013370D02*
X0119746Y0013370D01*
X0119746Y0013800D02*
X0124446Y0013800D01*
X0124446Y0018500D01*
X0124445Y0018500D01*
X0123652Y0018374D01*
X0122889Y0018126D01*
X0122173Y0017762D01*
X0121524Y0017290D01*
X0120956Y0016722D01*
X0120485Y0016073D01*
X0120120Y0015358D01*
X0119872Y0014594D01*
X0119746Y0013801D01*
X0119746Y0013800D01*
X0119746Y0014169D02*
X0119805Y0014169D01*
X0119993Y0014967D02*
X0119501Y0014967D01*
X0119170Y0015766D02*
X0120328Y0015766D01*
X0120841Y0016564D02*
X0118612Y0016564D01*
X0117813Y0017363D02*
X0121624Y0017363D01*
X0122996Y0018161D02*
X0116546Y0018161D01*
X0113146Y0018161D02*
X0093156Y0018161D01*
X0094813Y0017363D02*
X0111880Y0017363D01*
X0111081Y0016564D02*
X0095612Y0016564D01*
X0096170Y0015766D02*
X0110523Y0015766D01*
X0110192Y0014967D02*
X0096501Y0014967D01*
X0096746Y0014169D02*
X0109946Y0014169D01*
X0109946Y0013370D02*
X0096746Y0013370D01*
X0096746Y0012572D02*
X0109946Y0012572D01*
X0110217Y0011773D02*
X0096476Y0011773D01*
X0096146Y0010975D02*
X0110547Y0010975D01*
X0111141Y0010176D02*
X0095552Y0010176D01*
X0094754Y0009378D02*
X0111939Y0009378D01*
X0113681Y0008579D02*
X0093012Y0008579D01*
X0090681Y0008579D02*
X0089571Y0008579D01*
X0088773Y0007781D02*
X0168346Y0007781D01*
X0168346Y0008579D02*
X0126513Y0008579D01*
X0125246Y0008579D02*
X0124446Y0008579D01*
X0124446Y0009378D02*
X0125246Y0009378D01*
X0125246Y0010176D02*
X0124446Y0010176D01*
X0124446Y0010975D02*
X0125246Y0010975D01*
X0125246Y0011773D02*
X0124446Y0011773D01*
X0121706Y0009378D02*
X0117754Y0009378D01*
X0118552Y0010176D02*
X0120885Y0010176D01*
X0120358Y0010975D02*
X0119146Y0010975D01*
X0119476Y0011773D02*
X0120013Y0011773D01*
X0119814Y0012572D02*
X0119746Y0012572D01*
X0124446Y0014169D02*
X0125246Y0014169D01*
X0125246Y0014967D02*
X0124446Y0014967D01*
X0124446Y0015766D02*
X0125246Y0015766D01*
X0125246Y0016564D02*
X0124446Y0016564D01*
X0124446Y0017363D02*
X0125246Y0017363D01*
X0125246Y0018161D02*
X0124446Y0018161D01*
X0129879Y0012572D02*
X0166973Y0012572D01*
X0166973Y0011773D02*
X0129680Y0011773D01*
X0129335Y0010975D02*
X0167199Y0010975D01*
X0167530Y0010176D02*
X0128808Y0010176D01*
X0127987Y0009378D02*
X0167925Y0009378D01*
X0168346Y0006982D02*
X0087974Y0006982D01*
X0086077Y0010176D02*
X0085552Y0010176D01*
X0086146Y0010975D02*
X0086876Y0010975D01*
X0087217Y0011773D02*
X0086476Y0011773D01*
X0086746Y0012572D02*
X0086946Y0012572D01*
X0086946Y0013370D02*
X0086746Y0013370D01*
X0086746Y0014169D02*
X0086946Y0014169D01*
X0087192Y0014967D02*
X0086501Y0014967D01*
X0086170Y0015766D02*
X0087523Y0015766D01*
X0088081Y0016564D02*
X0085612Y0016564D01*
X0084813Y0017363D02*
X0088880Y0017363D01*
X0090537Y0018161D02*
X0083156Y0018161D01*
X0080537Y0018161D02*
X0079914Y0018161D01*
X0076946Y0014169D02*
X0072086Y0014169D01*
X0071809Y0013370D02*
X0076946Y0013370D01*
X0076946Y0012572D02*
X0060437Y0012572D01*
X0059638Y0013370D02*
X0064451Y0013370D01*
X0064174Y0014169D02*
X0058840Y0014169D01*
X0058041Y0014967D02*
X0064174Y0014967D01*
X0064174Y0015766D02*
X0057519Y0015766D01*
X0057519Y0016564D02*
X0064174Y0016564D01*
X0064174Y0017363D02*
X0057519Y0017363D01*
X0057519Y0018161D02*
X0064174Y0018161D01*
X0064174Y0018960D02*
X0057519Y0018960D01*
X0057519Y0019758D02*
X0064174Y0019758D01*
X0064578Y0020557D02*
X0057115Y0020557D01*
X0061235Y0011773D02*
X0077217Y0011773D01*
X0077547Y0010975D02*
X0062034Y0010975D01*
X0062832Y0010176D02*
X0078141Y0010176D01*
X0073018Y0018960D02*
X0113146Y0018960D01*
X0113146Y0019758D02*
X0073817Y0019758D01*
X0074615Y0020557D02*
X0113146Y0020557D01*
X0113146Y0021355D02*
X0075414Y0021355D01*
X0076212Y0022154D02*
X0113146Y0022154D01*
X0116546Y0026945D02*
X0142856Y0026945D01*
X0141791Y0027743D02*
X0116546Y0027743D01*
X0116546Y0028542D02*
X0141119Y0028542D01*
X0140672Y0029340D02*
X0116285Y0029340D01*
X0115486Y0030139D02*
X0140394Y0030139D01*
X0140256Y0030937D02*
X0114688Y0030937D01*
X0103491Y0037326D02*
X0081299Y0037326D01*
X0081968Y0038124D02*
X0102693Y0038124D01*
X0101894Y0038923D02*
X0081968Y0038923D01*
X0082018Y0036527D02*
X0090061Y0036527D01*
X0088893Y0035729D02*
X0082168Y0035729D01*
X0082168Y0034930D02*
X0088321Y0034930D01*
X0087990Y0034132D02*
X0082168Y0034132D01*
X0097449Y0039721D02*
X0101096Y0039721D01*
X0100297Y0040520D02*
X0098227Y0040520D01*
X0098558Y0041318D02*
X0099499Y0041318D01*
X0089135Y0056490D02*
X0127852Y0056490D01*
X0128270Y0066072D02*
X0123079Y0066072D01*
X0122280Y0066870D02*
X0127472Y0066870D01*
X0126673Y0067669D02*
X0121482Y0067669D01*
X0120683Y0068468D02*
X0125875Y0068468D01*
X0134617Y0076453D02*
X0101431Y0076453D01*
X0101231Y0084438D02*
X0125980Y0084438D01*
X0126779Y0085236D02*
X0101231Y0085236D01*
X0101231Y0086035D02*
X0127577Y0086035D01*
X0128376Y0086833D02*
X0101231Y0086833D01*
X0101843Y0087632D02*
X0129174Y0087632D01*
X0129973Y0088430D02*
X0105032Y0088430D01*
X0105957Y0089229D02*
X0130771Y0089229D01*
X0131570Y0090027D02*
X0106446Y0090027D01*
X0106756Y0090826D02*
X0132368Y0090826D01*
X0133167Y0091624D02*
X0106756Y0091624D01*
X0106648Y0092423D02*
X0133965Y0092423D01*
X0134764Y0093221D02*
X0106317Y0093221D01*
X0105647Y0094020D02*
X0135562Y0094020D01*
X0136361Y0094818D02*
X0104285Y0094818D01*
X0102269Y0094818D02*
X0099169Y0094818D01*
X0098370Y0094020D02*
X0100906Y0094020D01*
X0100236Y0093221D02*
X0097572Y0093221D01*
X0099905Y0092423D02*
X0092924Y0092423D01*
X0092924Y0091624D02*
X0099797Y0091624D01*
X0099797Y0090826D02*
X0092924Y0090826D01*
X0092269Y0090027D02*
X0099430Y0090027D01*
X0099968Y0095617D02*
X0137159Y0095617D01*
X0137958Y0096415D02*
X0100766Y0096415D01*
X0101565Y0097214D02*
X0138756Y0097214D01*
X0139555Y0098012D02*
X0102363Y0098012D01*
X0103162Y0098811D02*
X0140353Y0098811D01*
X0140784Y0099609D02*
X0103960Y0099609D01*
X0104759Y0100408D02*
X0140454Y0100408D01*
X0140446Y0101206D02*
X0114557Y0101206D01*
X0115356Y0102005D02*
X0140446Y0102005D01*
X0140624Y0102803D02*
X0116154Y0102803D01*
X0116953Y0103602D02*
X0140955Y0103602D01*
X0141417Y0104401D02*
X0117751Y0104401D01*
X0118546Y0105199D02*
X0142216Y0105199D01*
X0143642Y0105998D02*
X0118546Y0105998D01*
X0118546Y0106796D02*
X0143657Y0106796D01*
X0142222Y0107595D02*
X0123638Y0107595D01*
X0123544Y0107500D02*
X0124246Y0108203D01*
X0124246Y0122397D01*
X0123544Y0123100D01*
X0120149Y0123100D01*
X0119446Y0122397D01*
X0119446Y0108203D01*
X0120149Y0107500D01*
X0123544Y0107500D01*
X0124246Y0108393D02*
X0141424Y0108393D01*
X0140957Y0109192D02*
X0124246Y0109192D01*
X0124246Y0109990D02*
X0140627Y0109990D01*
X0140446Y0110789D02*
X0124246Y0110789D01*
X0124246Y0111587D02*
X0140446Y0111587D01*
X0140451Y0112386D02*
X0124246Y0112386D01*
X0124246Y0113184D02*
X0140782Y0113184D01*
X0141113Y0113983D02*
X0124246Y0113983D01*
X0124246Y0114781D02*
X0141798Y0114781D01*
X0142633Y0115580D02*
X0124246Y0115580D01*
X0124246Y0116378D02*
X0168346Y0116378D01*
X0168346Y0115580D02*
X0148060Y0115580D01*
X0148895Y0114781D02*
X0156323Y0114781D01*
X0155525Y0113983D02*
X0149580Y0113983D01*
X0149911Y0113184D02*
X0154726Y0113184D01*
X0153928Y0112386D02*
X0150242Y0112386D01*
X0150246Y0111587D02*
X0153129Y0111587D01*
X0152331Y0110789D02*
X0150246Y0110789D01*
X0150066Y0109990D02*
X0151532Y0109990D01*
X0154744Y0108393D02*
X0158694Y0108393D01*
X0158694Y0108100D02*
X0158694Y0109196D01*
X0159397Y0109899D01*
X0166296Y0109899D01*
X0166999Y0109196D01*
X0166999Y0103084D01*
X0166402Y0102487D01*
X0166659Y0102339D01*
X0166919Y0102079D01*
X0167104Y0101759D01*
X0167199Y0101403D01*
X0167199Y0099060D01*
X0163246Y0099060D01*
X0163246Y0098260D01*
X0163246Y0094701D01*
X0165984Y0094701D01*
X0166340Y0094796D01*
X0166659Y0094981D01*
X0166919Y0095241D01*
X0167104Y0095560D01*
X0167199Y0095916D01*
X0167199Y0098260D01*
X0163246Y0098260D01*
X0162446Y0098260D01*
X0158494Y0098260D01*
X0158494Y0095916D01*
X0158589Y0095560D01*
X0158773Y0095241D01*
X0159034Y0094981D01*
X0159353Y0094796D01*
X0159709Y0094701D01*
X0162446Y0094701D01*
X0162446Y0098260D01*
X0162446Y0099060D01*
X0158494Y0099060D01*
X0158494Y0101403D01*
X0158589Y0101759D01*
X0158773Y0102079D01*
X0159034Y0102339D01*
X0159291Y0102487D01*
X0158694Y0103084D01*
X0158694Y0104700D01*
X0153409Y0104700D01*
X0153296Y0104429D01*
X0152317Y0103450D01*
X0151039Y0102920D01*
X0150020Y0102920D01*
X0150246Y0102375D01*
X0150246Y0100425D01*
X0149500Y0098624D01*
X0148122Y0097246D01*
X0146321Y0096500D01*
X0144372Y0096500D01*
X0143296Y0096946D01*
X0128403Y0082053D01*
X0140446Y0082053D01*
X0140446Y0082375D01*
X0141192Y0084176D01*
X0142571Y0085554D01*
X0144372Y0086300D01*
X0146321Y0086300D01*
X0148122Y0085554D01*
X0149500Y0084176D01*
X0150246Y0082375D01*
X0150246Y0080425D01*
X0149500Y0078624D01*
X0148122Y0077246D01*
X0146321Y0076500D01*
X0144372Y0076500D01*
X0142571Y0077246D01*
X0141192Y0078624D01*
X0141181Y0078653D01*
X0140498Y0078653D01*
X0143296Y0075854D01*
X0144372Y0076300D01*
X0146321Y0076300D01*
X0148122Y0075554D01*
X0149500Y0074176D01*
X0150246Y0072375D01*
X0150246Y0070425D01*
X0150020Y0069880D01*
X0151039Y0069880D01*
X0151310Y0069767D01*
X0155646Y0074104D01*
X0156642Y0075100D01*
X0168346Y0075100D01*
X0168346Y0076515D01*
X0167815Y0077047D01*
X0166973Y0079079D01*
X0166973Y0081280D01*
X0167815Y0083312D01*
X0168346Y0083844D01*
X0168346Y0084600D01*
X0149601Y0084600D01*
X0148546Y0085654D01*
X0147297Y0086904D01*
X0146321Y0086500D01*
X0144372Y0086500D01*
X0142571Y0087246D01*
X0141192Y0088624D01*
X0140446Y0090425D01*
X0140446Y0092375D01*
X0141192Y0094176D01*
X0142571Y0095554D01*
X0144372Y0096300D01*
X0146321Y0096300D01*
X0148122Y0095554D01*
X0149500Y0094176D01*
X0150246Y0092375D01*
X0150246Y0090425D01*
X0149842Y0089450D01*
X0151092Y0088200D01*
X0168346Y0088200D01*
X0168346Y0088956D01*
X0167815Y0089488D01*
X0166973Y0091520D01*
X0166973Y0093721D01*
X0167815Y0095753D01*
X0168346Y0096285D01*
X0168346Y0111700D01*
X0158051Y0111700D01*
X0154451Y0108100D01*
X0158694Y0108100D01*
X0158694Y0109192D02*
X0155542Y0109192D01*
X0156341Y0109990D02*
X0168346Y0109990D01*
X0168346Y0109192D02*
X0166999Y0109192D01*
X0166999Y0108393D02*
X0168346Y0108393D01*
X0168346Y0107595D02*
X0166999Y0107595D01*
X0166999Y0106796D02*
X0168346Y0106796D01*
X0168346Y0105998D02*
X0166999Y0105998D01*
X0166999Y0105199D02*
X0168346Y0105199D01*
X0168346Y0104401D02*
X0166999Y0104401D01*
X0166999Y0103602D02*
X0168346Y0103602D01*
X0168346Y0102803D02*
X0166719Y0102803D01*
X0166962Y0102005D02*
X0168346Y0102005D01*
X0168346Y0101206D02*
X0167199Y0101206D01*
X0167199Y0100408D02*
X0168346Y0100408D01*
X0168346Y0099609D02*
X0167199Y0099609D01*
X0168346Y0098811D02*
X0163246Y0098811D01*
X0163246Y0098012D02*
X0162446Y0098012D01*
X0162446Y0097214D02*
X0163246Y0097214D01*
X0163246Y0096415D02*
X0162446Y0096415D01*
X0162446Y0095617D02*
X0163246Y0095617D01*
X0163246Y0094818D02*
X0162446Y0094818D01*
X0159315Y0094818D02*
X0148858Y0094818D01*
X0149565Y0094020D02*
X0167097Y0094020D01*
X0166973Y0093221D02*
X0149896Y0093221D01*
X0150226Y0092423D02*
X0166973Y0092423D01*
X0166973Y0091624D02*
X0150246Y0091624D01*
X0150246Y0090826D02*
X0167261Y0090826D01*
X0167592Y0090027D02*
X0150082Y0090027D01*
X0150063Y0089229D02*
X0168074Y0089229D01*
X0168346Y0088430D02*
X0150862Y0088430D01*
X0148166Y0086035D02*
X0146961Y0086035D01*
X0147126Y0086833D02*
X0147368Y0086833D01*
X0148440Y0085236D02*
X0148965Y0085236D01*
X0149238Y0084438D02*
X0168346Y0084438D01*
X0168142Y0083639D02*
X0149723Y0083639D01*
X0150053Y0082841D02*
X0167620Y0082841D01*
X0167289Y0082042D02*
X0150246Y0082042D01*
X0150246Y0081244D02*
X0166973Y0081244D01*
X0166973Y0080445D02*
X0150246Y0080445D01*
X0149924Y0079647D02*
X0166973Y0079647D01*
X0167069Y0078848D02*
X0149593Y0078848D01*
X0148926Y0078050D02*
X0167400Y0078050D01*
X0167731Y0077251D02*
X0148127Y0077251D01*
X0147880Y0075654D02*
X0168346Y0075654D01*
X0168346Y0076453D02*
X0142698Y0076453D01*
X0142566Y0077251D02*
X0141899Y0077251D01*
X0141767Y0078050D02*
X0141101Y0078050D01*
X0140640Y0082841D02*
X0129191Y0082841D01*
X0129990Y0083639D02*
X0140970Y0083639D01*
X0141455Y0084438D02*
X0130788Y0084438D01*
X0131587Y0085236D02*
X0142253Y0085236D01*
X0143731Y0086035D02*
X0132385Y0086035D01*
X0133184Y0086833D02*
X0143567Y0086833D01*
X0142185Y0087632D02*
X0133982Y0087632D01*
X0134781Y0088430D02*
X0141387Y0088430D01*
X0140942Y0089229D02*
X0135579Y0089229D01*
X0136378Y0090027D02*
X0140611Y0090027D01*
X0140446Y0090826D02*
X0137176Y0090826D01*
X0137975Y0091624D02*
X0140446Y0091624D01*
X0140466Y0092423D02*
X0138773Y0092423D01*
X0139572Y0093221D02*
X0140797Y0093221D01*
X0141128Y0094020D02*
X0140370Y0094020D01*
X0141169Y0094818D02*
X0141835Y0094818D01*
X0141967Y0095617D02*
X0142723Y0095617D01*
X0142766Y0096415D02*
X0158494Y0096415D01*
X0158494Y0097214D02*
X0148045Y0097214D01*
X0148889Y0098012D02*
X0158494Y0098012D01*
X0158494Y0099609D02*
X0149908Y0099609D01*
X0149578Y0098811D02*
X0162446Y0098811D01*
X0158494Y0100408D02*
X0150239Y0100408D01*
X0150246Y0101206D02*
X0158494Y0101206D01*
X0158731Y0102005D02*
X0150246Y0102005D01*
X0150069Y0102803D02*
X0158974Y0102803D01*
X0158694Y0103602D02*
X0152469Y0103602D01*
X0153268Y0104401D02*
X0158694Y0104401D01*
X0157139Y0110789D02*
X0168346Y0110789D01*
X0168346Y0111587D02*
X0157938Y0111587D01*
X0149500Y0118624D02*
X0150246Y0120425D01*
X0150246Y0122375D01*
X0149500Y0124176D01*
X0148122Y0125554D01*
X0146321Y0126300D01*
X0144372Y0126300D01*
X0142571Y0125554D01*
X0141192Y0124176D01*
X0140446Y0122375D01*
X0140446Y0120425D01*
X0141192Y0118624D01*
X0142571Y0117246D01*
X0144372Y0116500D01*
X0146321Y0116500D01*
X0148122Y0117246D01*
X0149500Y0118624D01*
X0149562Y0118774D02*
X0167100Y0118774D01*
X0166973Y0119572D02*
X0149893Y0119572D01*
X0150224Y0120371D02*
X0166973Y0120371D01*
X0166973Y0121169D02*
X0150246Y0121169D01*
X0150246Y0121968D02*
X0167258Y0121968D01*
X0167589Y0122766D02*
X0150084Y0122766D01*
X0149753Y0123565D02*
X0168068Y0123565D01*
X0168346Y0124363D02*
X0149313Y0124363D01*
X0148514Y0125162D02*
X0168346Y0125162D01*
X0168346Y0125960D02*
X0147141Y0125960D01*
X0146946Y0126759D02*
X0168346Y0126759D01*
X0168346Y0127557D02*
X0148433Y0127557D01*
X0148122Y0127246D02*
X0149500Y0128624D01*
X0150246Y0130425D01*
X0150246Y0132375D01*
X0149500Y0134176D01*
X0148122Y0135554D01*
X0146321Y0136300D01*
X0144372Y0136300D01*
X0142571Y0135554D01*
X0141192Y0134176D01*
X0140446Y0132375D01*
X0140446Y0130425D01*
X0141192Y0128624D01*
X0142571Y0127246D01*
X0144372Y0126500D01*
X0146321Y0126500D01*
X0148122Y0127246D01*
X0149232Y0128356D02*
X0168346Y0128356D01*
X0168148Y0129154D02*
X0149720Y0129154D01*
X0150051Y0129953D02*
X0167622Y0129953D01*
X0167292Y0130751D02*
X0150246Y0130751D01*
X0150246Y0131550D02*
X0166973Y0131550D01*
X0166973Y0132348D02*
X0150246Y0132348D01*
X0149927Y0133147D02*
X0166973Y0133147D01*
X0167066Y0133945D02*
X0149596Y0133945D01*
X0148932Y0134744D02*
X0159048Y0134744D01*
X0158099Y0135542D02*
X0148134Y0135542D01*
X0147865Y0137139D02*
X0157994Y0137139D01*
X0157994Y0136341D02*
X0124446Y0136341D01*
X0124446Y0137139D02*
X0142828Y0137139D01*
X0141879Y0137938D02*
X0124446Y0137938D01*
X0124446Y0138737D02*
X0141146Y0138737D01*
X0140815Y0139535D02*
X0122047Y0139535D01*
X0122047Y0139700D02*
X0124446Y0139700D01*
X0124446Y0146284D01*
X0124351Y0146640D01*
X0124167Y0146960D01*
X0123906Y0147220D01*
X0123587Y0147405D01*
X0123231Y0147500D01*
X0122046Y0147500D01*
X0122046Y0139700D01*
X0121646Y0139700D01*
X0121646Y0139300D01*
X0119246Y0139300D01*
X0119246Y0132716D01*
X0119342Y0132360D01*
X0119526Y0132040D01*
X0119787Y0131780D01*
X0120106Y0131595D01*
X0120462Y0131500D01*
X0121646Y0131500D01*
X0121646Y0139300D01*
X0122046Y0139300D01*
X0122046Y0131500D01*
X0123231Y0131500D01*
X0123587Y0131595D01*
X0123906Y0131780D01*
X0124167Y0132040D01*
X0124351Y0132360D01*
X0124446Y0132716D01*
X0124446Y0139300D01*
X0122047Y0139300D01*
X0122047Y0139700D01*
X0121646Y0139700D02*
X0121646Y0147500D01*
X0120462Y0147500D01*
X0120106Y0147405D01*
X0119787Y0147220D01*
X0119526Y0146960D01*
X0119342Y0146640D01*
X0119246Y0146284D01*
X0119246Y0139700D01*
X0121646Y0139700D01*
X0121646Y0139535D02*
X0119246Y0139535D01*
X0119246Y0138737D02*
X0119246Y0138737D01*
X0119246Y0137938D02*
X0119246Y0137938D01*
X0119246Y0137139D02*
X0119246Y0137139D01*
X0119246Y0136341D02*
X0119246Y0136341D01*
X0119246Y0135542D02*
X0119246Y0135542D01*
X0119246Y0134744D02*
X0119246Y0134744D01*
X0119246Y0133945D02*
X0119246Y0133945D01*
X0119246Y0133147D02*
X0119246Y0133147D01*
X0119246Y0132403D02*
X0119246Y0146597D01*
X0118646Y0147197D01*
X0118646Y0150654D01*
X0121146Y0153154D01*
X0121146Y0154842D01*
X0122122Y0155246D01*
X0123500Y0156624D01*
X0124246Y0158425D01*
X0124246Y0160375D01*
X0123500Y0162176D01*
X0122122Y0163554D01*
X0120321Y0164300D01*
X0118372Y0164300D01*
X0116571Y0163554D01*
X0115192Y0162176D01*
X0114446Y0160375D01*
X0114446Y0158425D01*
X0115192Y0156624D01*
X0116571Y0155246D01*
X0117546Y0154842D01*
X0117546Y0154646D01*
X0115046Y0152146D01*
X0115046Y0147197D01*
X0114446Y0146597D01*
X0114446Y0132403D01*
X0115149Y0131700D01*
X0118544Y0131700D01*
X0119246Y0132403D01*
X0119192Y0132348D02*
X0119348Y0132348D01*
X0120276Y0131550D02*
X0099076Y0131550D01*
X0099076Y0132019D02*
X0100796Y0132019D01*
X0101499Y0132722D01*
X0101499Y0137267D01*
X0101932Y0137700D01*
X0104446Y0137700D01*
X0104446Y0132403D01*
X0105149Y0131700D01*
X0108544Y0131700D01*
X0109246Y0132403D01*
X0109246Y0146597D01*
X0108544Y0147300D01*
X0105149Y0147300D01*
X0104446Y0146597D01*
X0104446Y0141300D01*
X0101699Y0141300D01*
X0101699Y0142740D01*
X0097746Y0142740D01*
X0097746Y0143540D01*
X0096946Y0143540D01*
X0096946Y0142740D01*
X0092994Y0142740D01*
X0092994Y0140515D01*
X0093089Y0140159D01*
X0093273Y0139840D01*
X0093534Y0139579D01*
X0093853Y0139395D01*
X0094204Y0139301D01*
X0093897Y0139301D01*
X0093194Y0138598D01*
X0093194Y0132722D01*
X0093897Y0132019D01*
X0095476Y0132019D01*
X0095476Y0122075D01*
X0086134Y0112733D01*
X0086019Y0112781D01*
X0084674Y0112781D01*
X0083431Y0112266D01*
X0082480Y0111315D01*
X0081965Y0110073D01*
X0081965Y0108727D01*
X0082480Y0107485D01*
X0083431Y0106534D01*
X0084674Y0106019D01*
X0086019Y0106019D01*
X0087262Y0106534D01*
X0088213Y0107485D01*
X0088728Y0108727D01*
X0088728Y0110073D01*
X0088680Y0110188D01*
X0099076Y0120584D01*
X0099076Y0132019D01*
X0099076Y0130751D02*
X0140446Y0130751D01*
X0140446Y0131550D02*
X0123417Y0131550D01*
X0124345Y0132348D02*
X0140446Y0132348D01*
X0140766Y0133147D02*
X0124446Y0133147D01*
X0124446Y0133945D02*
X0141097Y0133945D01*
X0141761Y0134744D02*
X0124446Y0134744D01*
X0124446Y0135542D02*
X0142559Y0135542D01*
X0140484Y0140334D02*
X0124446Y0140334D01*
X0124446Y0141132D02*
X0140446Y0141132D01*
X0140446Y0141931D02*
X0124446Y0141931D01*
X0124446Y0142729D02*
X0140593Y0142729D01*
X0140924Y0143528D02*
X0124446Y0143528D01*
X0124446Y0144326D02*
X0141343Y0144326D01*
X0142141Y0145125D02*
X0124446Y0145125D01*
X0124446Y0145923D02*
X0143462Y0145923D01*
X0143837Y0146722D02*
X0124304Y0146722D01*
X0122046Y0146722D02*
X0121646Y0146722D01*
X0121646Y0145923D02*
X0122046Y0145923D01*
X0122046Y0145125D02*
X0121646Y0145125D01*
X0121646Y0144326D02*
X0122046Y0144326D01*
X0122046Y0143528D02*
X0121646Y0143528D01*
X0121646Y0142729D02*
X0122046Y0142729D01*
X0122046Y0141931D02*
X0121646Y0141931D01*
X0121646Y0141132D02*
X0122046Y0141132D01*
X0122046Y0140334D02*
X0121646Y0140334D01*
X0121646Y0138737D02*
X0122046Y0138737D01*
X0122046Y0137938D02*
X0121646Y0137938D01*
X0121646Y0137139D02*
X0122046Y0137139D01*
X0122046Y0136341D02*
X0121646Y0136341D01*
X0121646Y0135542D02*
X0122046Y0135542D01*
X0122046Y0134744D02*
X0121646Y0134744D01*
X0121646Y0133945D02*
X0122046Y0133945D01*
X0122046Y0133147D02*
X0121646Y0133147D01*
X0121646Y0132348D02*
X0122046Y0132348D01*
X0122046Y0131550D02*
X0121646Y0131550D01*
X0114501Y0132348D02*
X0114192Y0132348D01*
X0114246Y0132403D02*
X0114246Y0146597D01*
X0113646Y0147197D01*
X0113646Y0152146D01*
X0111146Y0154646D01*
X0111146Y0154842D01*
X0112122Y0155246D01*
X0113500Y0156624D01*
X0114246Y0158425D01*
X0114246Y0160375D01*
X0113500Y0162176D01*
X0112122Y0163554D01*
X0110321Y0164300D01*
X0108372Y0164300D01*
X0106571Y0163554D01*
X0105192Y0162176D01*
X0104446Y0160375D01*
X0104446Y0158425D01*
X0105192Y0156624D01*
X0106571Y0155246D01*
X0107546Y0154842D01*
X0107546Y0153154D01*
X0108601Y0152100D01*
X0110046Y0150654D01*
X0110046Y0147197D01*
X0109446Y0146597D01*
X0109446Y0132403D01*
X0110149Y0131700D01*
X0113544Y0131700D01*
X0114246Y0132403D01*
X0114246Y0133147D02*
X0114446Y0133147D01*
X0114446Y0133945D02*
X0114246Y0133945D01*
X0114246Y0134744D02*
X0114446Y0134744D01*
X0114446Y0135542D02*
X0114246Y0135542D01*
X0114246Y0136341D02*
X0114446Y0136341D01*
X0114446Y0137139D02*
X0114246Y0137139D01*
X0114246Y0137938D02*
X0114446Y0137938D01*
X0114446Y0138737D02*
X0114246Y0138737D01*
X0114246Y0139535D02*
X0114446Y0139535D01*
X0114446Y0140334D02*
X0114246Y0140334D01*
X0114246Y0141132D02*
X0114446Y0141132D01*
X0114446Y0141931D02*
X0114246Y0141931D01*
X0114246Y0142729D02*
X0114446Y0142729D01*
X0114446Y0143528D02*
X0114246Y0143528D01*
X0114246Y0144326D02*
X0114446Y0144326D01*
X0114446Y0145125D02*
X0114246Y0145125D01*
X0114246Y0145923D02*
X0114446Y0145923D01*
X0114571Y0146722D02*
X0114122Y0146722D01*
X0113646Y0147520D02*
X0115046Y0147520D01*
X0115046Y0148319D02*
X0113646Y0148319D01*
X0113646Y0149117D02*
X0115046Y0149117D01*
X0115046Y0149916D02*
X0113646Y0149916D01*
X0113646Y0150714D02*
X0115046Y0150714D01*
X0115046Y0151513D02*
X0113646Y0151513D01*
X0113481Y0152311D02*
X0115212Y0152311D01*
X0116011Y0153110D02*
X0112682Y0153110D01*
X0111884Y0153908D02*
X0116809Y0153908D01*
X0117546Y0154707D02*
X0111146Y0154707D01*
X0112381Y0155505D02*
X0116312Y0155505D01*
X0115513Y0156304D02*
X0113180Y0156304D01*
X0113698Y0157102D02*
X0114994Y0157102D01*
X0114664Y0157901D02*
X0114029Y0157901D01*
X0114246Y0158699D02*
X0114446Y0158699D01*
X0114446Y0159498D02*
X0114246Y0159498D01*
X0114246Y0160296D02*
X0114446Y0160296D01*
X0114745Y0161095D02*
X0113948Y0161095D01*
X0113617Y0161893D02*
X0115076Y0161893D01*
X0115709Y0162692D02*
X0112984Y0162692D01*
X0112186Y0163490D02*
X0116507Y0163490D01*
X0118345Y0164289D02*
X0110348Y0164289D01*
X0108345Y0164289D02*
X0086348Y0164289D01*
X0086321Y0164300D02*
X0084372Y0164300D01*
X0082571Y0163554D01*
X0081192Y0162176D01*
X0080446Y0160375D01*
X0080446Y0158425D01*
X0081192Y0156624D01*
X0082571Y0155246D01*
X0083646Y0154800D01*
X0083646Y0146553D01*
X0082149Y0146553D01*
X0081446Y0145850D01*
X0081446Y0139839D01*
X0081247Y0140037D01*
X0081247Y0145850D01*
X0080544Y0146553D01*
X0074668Y0146553D01*
X0073965Y0145850D01*
X0073965Y0138950D01*
X0074668Y0138247D01*
X0078229Y0138247D01*
X0080784Y0135692D01*
X0080784Y0131675D01*
X0081487Y0130972D01*
X0087206Y0130972D01*
X0087909Y0131675D01*
X0087909Y0137393D01*
X0087206Y0138096D01*
X0083188Y0138096D01*
X0083037Y0138247D01*
X0088025Y0138247D01*
X0088728Y0138950D01*
X0088728Y0145850D01*
X0088025Y0146553D01*
X0087046Y0146553D01*
X0087046Y0154800D01*
X0088122Y0155246D01*
X0089500Y0156624D01*
X0090246Y0158425D01*
X0090246Y0160375D01*
X0089500Y0162176D01*
X0088122Y0163554D01*
X0086321Y0164300D01*
X0084345Y0164289D02*
X0076804Y0164289D01*
X0076541Y0164374D02*
X0075748Y0164500D01*
X0075746Y0164500D01*
X0075746Y0159800D01*
X0074946Y0159800D01*
X0074946Y0159000D01*
X0070246Y0159000D01*
X0070246Y0158999D01*
X0070372Y0158206D01*
X0070620Y0157442D01*
X0070985Y0156727D01*
X0071456Y0156078D01*
X0072024Y0155510D01*
X0072673Y0155038D01*
X0073389Y0154674D01*
X0074152Y0154426D01*
X0074945Y0154300D01*
X0074946Y0154300D01*
X0074946Y0159000D01*
X0075746Y0159000D01*
X0075746Y0154300D01*
X0075748Y0154300D01*
X0076541Y0154426D01*
X0077304Y0154674D01*
X0078019Y0155038D01*
X0078669Y0155510D01*
X0079237Y0156078D01*
X0079708Y0156727D01*
X0080073Y0157442D01*
X0080321Y0158206D01*
X0080446Y0158999D01*
X0080446Y0159000D01*
X0075747Y0159000D01*
X0075747Y0159800D01*
X0080446Y0159800D01*
X0080446Y0159801D01*
X0080321Y0160594D01*
X0080073Y0161358D01*
X0079708Y0162073D01*
X0079237Y0162722D01*
X0078669Y0163290D01*
X0078019Y0163762D01*
X0077304Y0164126D01*
X0076541Y0164374D01*
X0075746Y0164289D02*
X0074946Y0164289D01*
X0074945Y0164500D02*
X0074152Y0164374D01*
X0073389Y0164126D01*
X0072673Y0163762D01*
X0072024Y0163290D01*
X0071456Y0162722D01*
X0070985Y0162073D01*
X0070620Y0161358D01*
X0070372Y0160594D01*
X0070246Y0159801D01*
X0070246Y0159800D01*
X0074946Y0159800D01*
X0074946Y0164500D01*
X0074945Y0164500D01*
X0074946Y0163490D02*
X0075746Y0163490D01*
X0075746Y0162692D02*
X0074946Y0162692D01*
X0074946Y0161893D02*
X0075746Y0161893D01*
X0075746Y0161095D02*
X0074946Y0161095D01*
X0074946Y0160296D02*
X0075746Y0160296D01*
X0075747Y0159498D02*
X0080446Y0159498D01*
X0080446Y0160296D02*
X0080368Y0160296D01*
X0080158Y0161095D02*
X0080745Y0161095D01*
X0081076Y0161893D02*
X0079800Y0161893D01*
X0079259Y0162692D02*
X0081709Y0162692D01*
X0082507Y0163490D02*
X0078393Y0163490D01*
X0073889Y0164289D02*
X0016985Y0164289D01*
X0016261Y0163490D02*
X0072300Y0163490D01*
X0071434Y0162692D02*
X0060789Y0162692D01*
X0061783Y0161893D02*
X0070893Y0161893D01*
X0070535Y0161095D02*
X0062534Y0161095D01*
X0062865Y0160296D02*
X0070325Y0160296D01*
X0070294Y0158699D02*
X0063246Y0158699D01*
X0063246Y0157901D02*
X0070471Y0157901D01*
X0070793Y0157102D02*
X0063113Y0157102D01*
X0062782Y0156304D02*
X0071292Y0156304D01*
X0072030Y0155505D02*
X0062381Y0155505D01*
X0061583Y0154707D02*
X0073324Y0154707D01*
X0074946Y0154707D02*
X0075746Y0154707D01*
X0075746Y0155505D02*
X0074946Y0155505D01*
X0074946Y0156304D02*
X0075746Y0156304D01*
X0075746Y0157102D02*
X0074946Y0157102D01*
X0074946Y0157901D02*
X0075746Y0157901D01*
X0075746Y0158699D02*
X0074946Y0158699D01*
X0074946Y0159498D02*
X0063195Y0159498D01*
X0060307Y0153908D02*
X0083646Y0153908D01*
X0083646Y0153110D02*
X0060046Y0153110D01*
X0060046Y0152311D02*
X0083646Y0152311D01*
X0083646Y0151513D02*
X0060211Y0151513D01*
X0061009Y0150714D02*
X0083646Y0150714D01*
X0083646Y0149916D02*
X0061808Y0149916D01*
X0062606Y0149117D02*
X0083646Y0149117D01*
X0083646Y0148319D02*
X0063405Y0148319D01*
X0064203Y0147520D02*
X0083646Y0147520D01*
X0083646Y0146722D02*
X0065002Y0146722D01*
X0065800Y0145923D02*
X0074039Y0145923D01*
X0073965Y0145125D02*
X0066599Y0145125D01*
X0067397Y0144326D02*
X0073965Y0144326D01*
X0073965Y0143528D02*
X0068196Y0143528D01*
X0068994Y0142729D02*
X0073965Y0142729D01*
X0073965Y0141931D02*
X0069793Y0141931D01*
X0070591Y0141132D02*
X0073965Y0141132D01*
X0073965Y0140334D02*
X0071390Y0140334D01*
X0072188Y0139535D02*
X0073965Y0139535D01*
X0074179Y0138737D02*
X0072987Y0138737D01*
X0073785Y0137938D02*
X0078538Y0137938D01*
X0079337Y0137139D02*
X0074584Y0137139D01*
X0075382Y0136341D02*
X0080135Y0136341D01*
X0080784Y0135542D02*
X0076181Y0135542D01*
X0076979Y0134744D02*
X0080784Y0134744D01*
X0080784Y0133945D02*
X0077778Y0133945D01*
X0078577Y0133147D02*
X0080784Y0133147D01*
X0080784Y0132348D02*
X0079375Y0132348D01*
X0080174Y0131550D02*
X0080909Y0131550D01*
X0080592Y0130751D02*
X0095476Y0130751D01*
X0095476Y0129953D02*
X0087175Y0129953D01*
X0088017Y0129154D02*
X0095476Y0129154D01*
X0095476Y0128356D02*
X0088109Y0128356D01*
X0088109Y0127557D02*
X0095476Y0127557D01*
X0095476Y0126759D02*
X0088109Y0126759D01*
X0088109Y0125162D02*
X0095476Y0125162D01*
X0095476Y0125960D02*
X0084746Y0125960D01*
X0084746Y0125162D02*
X0083946Y0125162D01*
X0083946Y0124363D02*
X0084746Y0124363D01*
X0084746Y0123565D02*
X0083946Y0123565D01*
X0083946Y0122766D02*
X0084746Y0122766D01*
X0087538Y0122766D02*
X0095476Y0122766D01*
X0095476Y0123565D02*
X0088067Y0123565D01*
X0088109Y0124363D02*
X0095476Y0124363D01*
X0099076Y0124363D02*
X0141380Y0124363D01*
X0140939Y0123565D02*
X0099076Y0123565D01*
X0099076Y0122766D02*
X0104816Y0122766D01*
X0104446Y0121968D02*
X0099076Y0121968D01*
X0099076Y0121169D02*
X0104446Y0121169D01*
X0104446Y0120371D02*
X0098863Y0120371D01*
X0098064Y0119572D02*
X0104446Y0119572D01*
X0104446Y0118774D02*
X0097266Y0118774D01*
X0096467Y0117975D02*
X0104446Y0117975D01*
X0104446Y0117177D02*
X0095669Y0117177D01*
X0094870Y0116378D02*
X0097825Y0116378D01*
X0097043Y0115580D02*
X0094072Y0115580D01*
X0093273Y0114781D02*
X0096245Y0114781D01*
X0095446Y0113983D02*
X0092475Y0113983D01*
X0091676Y0113184D02*
X0094648Y0113184D01*
X0093849Y0112386D02*
X0090878Y0112386D01*
X0090079Y0111587D02*
X0093051Y0111587D01*
X0092252Y0110789D02*
X0089281Y0110789D01*
X0088728Y0109990D02*
X0091454Y0109990D01*
X0090655Y0109192D02*
X0088728Y0109192D01*
X0088589Y0108393D02*
X0089857Y0108393D01*
X0089058Y0107595D02*
X0088258Y0107595D01*
X0088260Y0106796D02*
X0087524Y0106796D01*
X0087461Y0105998D02*
X0081244Y0105998D01*
X0080592Y0106796D02*
X0083169Y0106796D01*
X0082435Y0107595D02*
X0080592Y0107595D01*
X0080592Y0108393D02*
X0082104Y0108393D01*
X0081965Y0109192D02*
X0080592Y0109192D01*
X0080592Y0109990D02*
X0081965Y0109990D01*
X0082262Y0110789D02*
X0080592Y0110789D01*
X0080592Y0111587D02*
X0082752Y0111587D01*
X0083719Y0112386D02*
X0080592Y0112386D01*
X0080592Y0113184D02*
X0086585Y0113184D01*
X0087384Y0113983D02*
X0080592Y0113983D01*
X0080592Y0114781D02*
X0088182Y0114781D01*
X0088981Y0115580D02*
X0080592Y0115580D01*
X0080592Y0116378D02*
X0089779Y0116378D01*
X0090578Y0117177D02*
X0080592Y0117177D01*
X0080592Y0117975D02*
X0091376Y0117975D01*
X0092175Y0118774D02*
X0080592Y0118774D01*
X0080592Y0119572D02*
X0092973Y0119572D01*
X0093772Y0120371D02*
X0080592Y0120371D01*
X0080592Y0121169D02*
X0094570Y0121169D01*
X0095369Y0121968D02*
X0080592Y0121968D01*
X0080592Y0122766D02*
X0081155Y0122766D01*
X0080626Y0123565D02*
X0080592Y0123565D01*
X0083946Y0126759D02*
X0084746Y0126759D01*
X0084746Y0127557D02*
X0083946Y0127557D01*
X0083946Y0128356D02*
X0084746Y0128356D01*
X0084746Y0129154D02*
X0083946Y0129154D01*
X0083946Y0129953D02*
X0084746Y0129953D01*
X0081518Y0129953D02*
X0080592Y0129953D01*
X0080592Y0129154D02*
X0080676Y0129154D01*
X0087784Y0131550D02*
X0095476Y0131550D01*
X0093567Y0132348D02*
X0087909Y0132348D01*
X0087909Y0133147D02*
X0093194Y0133147D01*
X0093194Y0133945D02*
X0087909Y0133945D01*
X0087909Y0134744D02*
X0093194Y0134744D01*
X0093194Y0135542D02*
X0087909Y0135542D01*
X0087909Y0136341D02*
X0093194Y0136341D01*
X0093194Y0137139D02*
X0087909Y0137139D01*
X0087364Y0137938D02*
X0093194Y0137938D01*
X0093332Y0138737D02*
X0088514Y0138737D01*
X0088728Y0139535D02*
X0093610Y0139535D01*
X0093042Y0140334D02*
X0088728Y0140334D01*
X0088728Y0141132D02*
X0092994Y0141132D01*
X0092994Y0141931D02*
X0088728Y0141931D01*
X0088728Y0142729D02*
X0092994Y0142729D01*
X0092994Y0143540D02*
X0096946Y0143540D01*
X0096946Y0146981D01*
X0094209Y0146981D01*
X0093853Y0146886D01*
X0093534Y0146701D01*
X0093273Y0146441D01*
X0093089Y0146121D01*
X0092994Y0145765D01*
X0092994Y0143540D01*
X0092994Y0144326D02*
X0088728Y0144326D01*
X0088728Y0143528D02*
X0096946Y0143528D01*
X0096946Y0144326D02*
X0097746Y0144326D01*
X0097746Y0143540D02*
X0097746Y0146981D01*
X0100484Y0146981D01*
X0100840Y0146886D01*
X0101159Y0146701D01*
X0101419Y0146441D01*
X0101604Y0146121D01*
X0101699Y0145765D01*
X0101699Y0143540D01*
X0097746Y0143540D01*
X0097746Y0143528D02*
X0104446Y0143528D01*
X0104446Y0144326D02*
X0101699Y0144326D01*
X0101699Y0145125D02*
X0104446Y0145125D01*
X0104446Y0145923D02*
X0101657Y0145923D01*
X0101124Y0146722D02*
X0104571Y0146722D01*
X0104446Y0142729D02*
X0101699Y0142729D01*
X0101699Y0141931D02*
X0104446Y0141931D01*
X0104446Y0137139D02*
X0101499Y0137139D01*
X0101499Y0136341D02*
X0104446Y0136341D01*
X0104446Y0135542D02*
X0101499Y0135542D01*
X0101499Y0134744D02*
X0104446Y0134744D01*
X0104446Y0133945D02*
X0101499Y0133945D01*
X0101499Y0133147D02*
X0104446Y0133147D01*
X0104501Y0132348D02*
X0101126Y0132348D01*
X0099076Y0129953D02*
X0140642Y0129953D01*
X0140973Y0129154D02*
X0099076Y0129154D01*
X0099076Y0128356D02*
X0141461Y0128356D01*
X0142259Y0127557D02*
X0099076Y0127557D01*
X0099076Y0126759D02*
X0143747Y0126759D01*
X0143552Y0125960D02*
X0099076Y0125960D01*
X0099076Y0125162D02*
X0142179Y0125162D01*
X0140609Y0122766D02*
X0123877Y0122766D01*
X0124246Y0121968D02*
X0140446Y0121968D01*
X0140446Y0121169D02*
X0124246Y0121169D01*
X0124246Y0120371D02*
X0140469Y0120371D01*
X0140800Y0119572D02*
X0124246Y0119572D01*
X0124246Y0118774D02*
X0141131Y0118774D01*
X0141842Y0117975D02*
X0124246Y0117975D01*
X0124246Y0117177D02*
X0142738Y0117177D01*
X0147955Y0117177D02*
X0167761Y0117177D01*
X0167431Y0117975D02*
X0148851Y0117975D01*
X0161946Y0134744D02*
X0162746Y0134744D01*
X0162746Y0135542D02*
X0161946Y0135542D01*
X0161946Y0136341D02*
X0162746Y0136341D01*
X0162746Y0137139D02*
X0161946Y0137139D01*
X0161946Y0137938D02*
X0162746Y0137938D01*
X0162746Y0138737D02*
X0168346Y0138737D01*
X0168346Y0139535D02*
X0166699Y0139535D01*
X0166699Y0140334D02*
X0168346Y0140334D01*
X0168346Y0141132D02*
X0166699Y0141132D01*
X0166505Y0141931D02*
X0168346Y0141931D01*
X0168346Y0142729D02*
X0166144Y0142729D01*
X0166499Y0143528D02*
X0168346Y0143528D01*
X0168346Y0144326D02*
X0166499Y0144326D01*
X0166499Y0145125D02*
X0168346Y0145125D01*
X0168346Y0145923D02*
X0166499Y0145923D01*
X0166499Y0146722D02*
X0168346Y0146722D01*
X0168346Y0147520D02*
X0166499Y0147520D01*
X0166499Y0148319D02*
X0168346Y0148319D01*
X0168346Y0149117D02*
X0166499Y0149117D01*
X0168346Y0149916D02*
X0156266Y0149916D01*
X0157065Y0150714D02*
X0168346Y0150714D01*
X0168346Y0151513D02*
X0157863Y0151513D01*
X0155451Y0153908D02*
X0149611Y0153908D01*
X0149942Y0153110D02*
X0154652Y0153110D01*
X0153854Y0152311D02*
X0150246Y0152311D01*
X0150246Y0151513D02*
X0153055Y0151513D01*
X0152256Y0150714D02*
X0150246Y0150714D01*
X0150035Y0149916D02*
X0151458Y0149916D01*
X0154669Y0148319D02*
X0158194Y0148319D01*
X0158194Y0149117D02*
X0155468Y0149117D01*
X0153193Y0144326D02*
X0158194Y0144326D01*
X0158194Y0143528D02*
X0152395Y0143528D01*
X0150100Y0142729D02*
X0158549Y0142729D01*
X0158188Y0141931D02*
X0150246Y0141931D01*
X0150246Y0141132D02*
X0157994Y0141132D01*
X0157994Y0140334D02*
X0150208Y0140334D01*
X0149878Y0139535D02*
X0157994Y0139535D01*
X0157994Y0137938D02*
X0148814Y0137938D01*
X0149547Y0138737D02*
X0161946Y0138737D01*
X0166699Y0137938D02*
X0168346Y0137938D01*
X0168346Y0137139D02*
X0166699Y0137139D01*
X0166699Y0136341D02*
X0168346Y0136341D01*
X0167728Y0135542D02*
X0166593Y0135542D01*
X0167397Y0134744D02*
X0165645Y0134744D01*
X0146867Y0146722D02*
X0146856Y0146722D01*
X0142297Y0147520D02*
X0118646Y0147520D01*
X0118646Y0148319D02*
X0141498Y0148319D01*
X0140988Y0149117D02*
X0118646Y0149117D01*
X0118646Y0149916D02*
X0140658Y0149916D01*
X0140446Y0150714D02*
X0118706Y0150714D01*
X0119505Y0151513D02*
X0140446Y0151513D01*
X0140446Y0152311D02*
X0120303Y0152311D01*
X0121102Y0153110D02*
X0140751Y0153110D01*
X0141082Y0153908D02*
X0121146Y0153908D01*
X0121146Y0154707D02*
X0141724Y0154707D01*
X0142522Y0155505D02*
X0122381Y0155505D01*
X0123180Y0156304D02*
X0168346Y0156304D01*
X0168346Y0155505D02*
X0148171Y0155505D01*
X0148969Y0154707D02*
X0156249Y0154707D01*
X0167131Y0158699D02*
X0124246Y0158699D01*
X0124246Y0159498D02*
X0166973Y0159498D01*
X0166973Y0160296D02*
X0124246Y0160296D01*
X0123948Y0161095D02*
X0166973Y0161095D01*
X0167227Y0161893D02*
X0123617Y0161893D01*
X0122984Y0162692D02*
X0167558Y0162692D01*
X0167993Y0163490D02*
X0122186Y0163490D01*
X0120348Y0164289D02*
X0168346Y0164289D01*
X0168346Y0165087D02*
X0018084Y0165087D01*
X0020213Y0165886D02*
X0168346Y0165886D01*
X0167461Y0157901D02*
X0124029Y0157901D01*
X0123698Y0157102D02*
X0167792Y0157102D01*
X0119389Y0146722D02*
X0119122Y0146722D01*
X0119246Y0145923D02*
X0119246Y0145923D01*
X0119246Y0145125D02*
X0119246Y0145125D01*
X0119246Y0144326D02*
X0119246Y0144326D01*
X0119246Y0143528D02*
X0119246Y0143528D01*
X0119246Y0142729D02*
X0119246Y0142729D01*
X0119246Y0141931D02*
X0119246Y0141931D01*
X0119246Y0141132D02*
X0119246Y0141132D01*
X0119246Y0140334D02*
X0119246Y0140334D01*
X0109446Y0140334D02*
X0109246Y0140334D01*
X0109246Y0141132D02*
X0109446Y0141132D01*
X0109446Y0141931D02*
X0109246Y0141931D01*
X0109246Y0142729D02*
X0109446Y0142729D01*
X0109446Y0143528D02*
X0109246Y0143528D01*
X0109246Y0144326D02*
X0109446Y0144326D01*
X0109446Y0145125D02*
X0109246Y0145125D01*
X0109246Y0145923D02*
X0109446Y0145923D01*
X0109571Y0146722D02*
X0109122Y0146722D01*
X0110046Y0147520D02*
X0087046Y0147520D01*
X0087046Y0146722D02*
X0093569Y0146722D01*
X0093036Y0145923D02*
X0088654Y0145923D01*
X0088728Y0145125D02*
X0092994Y0145125D01*
X0096946Y0145125D02*
X0097746Y0145125D01*
X0097746Y0145923D02*
X0096946Y0145923D01*
X0096946Y0146722D02*
X0097746Y0146722D01*
X0087046Y0151513D02*
X0109188Y0151513D01*
X0108390Y0152311D02*
X0087046Y0152311D01*
X0087046Y0153110D02*
X0107591Y0153110D01*
X0107546Y0153908D02*
X0087046Y0153908D01*
X0087046Y0154707D02*
X0107546Y0154707D01*
X0106312Y0155505D02*
X0088381Y0155505D01*
X0089180Y0156304D02*
X0105513Y0156304D01*
X0104994Y0157102D02*
X0089698Y0157102D01*
X0090029Y0157901D02*
X0104664Y0157901D01*
X0104446Y0158699D02*
X0090246Y0158699D01*
X0090246Y0159498D02*
X0104446Y0159498D01*
X0104446Y0160296D02*
X0090246Y0160296D01*
X0089948Y0161095D02*
X0104745Y0161095D01*
X0105076Y0161893D02*
X0089617Y0161893D01*
X0088984Y0162692D02*
X0105709Y0162692D01*
X0106507Y0163490D02*
X0088186Y0163490D01*
X0080446Y0158699D02*
X0080399Y0158699D01*
X0080222Y0157901D02*
X0080664Y0157901D01*
X0080994Y0157102D02*
X0079900Y0157102D01*
X0079401Y0156304D02*
X0081513Y0156304D01*
X0082312Y0155505D02*
X0078662Y0155505D01*
X0077369Y0154707D02*
X0083646Y0154707D01*
X0087046Y0150714D02*
X0109987Y0150714D01*
X0110046Y0149916D02*
X0087046Y0149916D01*
X0087046Y0149117D02*
X0110046Y0149117D01*
X0110046Y0148319D02*
X0087046Y0148319D01*
X0081519Y0145923D02*
X0081174Y0145923D01*
X0081247Y0145125D02*
X0081446Y0145125D01*
X0081446Y0144326D02*
X0081247Y0144326D01*
X0081247Y0143528D02*
X0081446Y0143528D01*
X0081446Y0142729D02*
X0081247Y0142729D01*
X0081247Y0141931D02*
X0081446Y0141931D01*
X0081446Y0141132D02*
X0081247Y0141132D01*
X0081247Y0140334D02*
X0081446Y0140334D01*
X0069400Y0129443D02*
X0066054Y0129443D01*
X0065458Y0128846D01*
X0065310Y0129102D01*
X0065049Y0129363D01*
X0064730Y0129547D01*
X0064374Y0129643D01*
X0062621Y0129643D01*
X0062621Y0126674D01*
X0061821Y0126674D01*
X0061821Y0129643D01*
X0060068Y0129643D01*
X0059712Y0129547D01*
X0059393Y0129363D01*
X0059132Y0129102D01*
X0058948Y0128783D01*
X0058852Y0128427D01*
X0058852Y0126674D01*
X0061821Y0126674D01*
X0061821Y0125874D01*
X0062621Y0125874D01*
X0062621Y0122906D01*
X0064374Y0122906D01*
X0064730Y0123001D01*
X0065049Y0123185D01*
X0065310Y0123446D01*
X0065458Y0123702D01*
X0066054Y0123106D01*
X0066820Y0123106D01*
X0066820Y0113694D01*
X0066054Y0113694D01*
X0065458Y0113098D01*
X0065310Y0113354D01*
X0065049Y0113615D01*
X0064730Y0113799D01*
X0064374Y0113894D01*
X0062621Y0113894D01*
X0062621Y0110926D01*
X0061821Y0110926D01*
X0061821Y0113894D01*
X0060068Y0113894D01*
X0059712Y0113799D01*
X0059393Y0113615D01*
X0059132Y0113354D01*
X0058948Y0113035D01*
X0058852Y0112679D01*
X0058852Y0110926D01*
X0061821Y0110926D01*
X0061821Y0110126D01*
X0062621Y0110126D01*
X0062621Y0107157D01*
X0064374Y0107157D01*
X0064730Y0107253D01*
X0065049Y0107437D01*
X0065310Y0107698D01*
X0065458Y0107954D01*
X0066018Y0107394D01*
X0065980Y0107355D01*
X0065465Y0106113D01*
X0065465Y0104768D01*
X0065980Y0103525D01*
X0066605Y0102900D01*
X0045675Y0102900D01*
X0052175Y0109400D01*
X0053346Y0110572D01*
X0053346Y0111925D01*
X0054122Y0112246D01*
X0055500Y0113624D01*
X0056246Y0115425D01*
X0056246Y0117375D01*
X0055500Y0119176D01*
X0054122Y0120554D01*
X0052321Y0121300D01*
X0050372Y0121300D01*
X0048571Y0120554D01*
X0047192Y0119176D01*
X0046446Y0117375D01*
X0046446Y0115425D01*
X0047192Y0113624D01*
X0048571Y0112246D01*
X0049132Y0112014D01*
X0043636Y0106518D01*
X0033081Y0106518D01*
X0033081Y0107492D01*
X0032613Y0108621D01*
X0031749Y0109486D01*
X0030619Y0109954D01*
X0029397Y0109954D01*
X0028346Y0109519D01*
X0028346Y0114572D01*
X0032175Y0118400D01*
X0033346Y0119572D01*
X0035346Y0119572D01*
X0035106Y0119812D02*
X0036278Y0118640D01*
X0036768Y0118150D01*
X0036446Y0117375D01*
X0036446Y0115425D01*
X0037192Y0113624D01*
X0038571Y0112246D01*
X0040372Y0111500D01*
X0042321Y0111500D01*
X0044122Y0112246D01*
X0045500Y0113624D01*
X0046246Y0115425D01*
X0046246Y0117375D01*
X0045500Y0119176D01*
X0044122Y0120554D01*
X0042321Y0121300D01*
X0040372Y0121300D01*
X0039596Y0120979D01*
X0039106Y0121469D01*
X0039106Y0126747D01*
X0040044Y0126747D01*
X0040747Y0127450D01*
X0040747Y0127757D01*
X0040841Y0127407D01*
X0041025Y0127088D01*
X0041286Y0126827D01*
X0041605Y0126643D01*
X0041961Y0126547D01*
X0044187Y0126547D01*
X0044187Y0130500D01*
X0044987Y0130500D01*
X0044987Y0131300D01*
X0048428Y0131300D01*
X0048428Y0134037D01*
X0048332Y0134393D01*
X0048148Y0134712D01*
X0047887Y0134973D01*
X0047846Y0134997D01*
X0047935Y0135048D01*
X0048196Y0135309D01*
X0048380Y0135628D01*
X0048475Y0135984D01*
X0048475Y0138721D01*
X0045034Y0138721D01*
X0045034Y0135253D01*
X0044987Y0135253D01*
X0044987Y0131300D01*
X0044187Y0131300D01*
X0044187Y0134769D01*
X0044234Y0134769D01*
X0044234Y0138721D01*
X0045034Y0138721D01*
X0045034Y0139521D01*
X0048475Y0139521D01*
X0048475Y0142259D01*
X0048380Y0142615D01*
X0048196Y0142934D01*
X0047935Y0143195D01*
X0047616Y0143379D01*
X0047260Y0143474D01*
X0045034Y0143474D01*
X0045034Y0139522D01*
X0044234Y0139522D01*
X0044234Y0143474D01*
X0042009Y0143474D01*
X0041653Y0143379D01*
X0041334Y0143195D01*
X0041073Y0142934D01*
X0040889Y0142615D01*
X0040795Y0142264D01*
X0040795Y0142571D01*
X0040092Y0143274D01*
X0038581Y0143274D01*
X0039300Y0143572D01*
X0040251Y0144523D01*
X0040766Y0145766D01*
X0040766Y0147111D01*
X0040251Y0148354D01*
X0039300Y0149305D01*
X0039070Y0149400D01*
X0049442Y0149400D01*
X0069400Y0129443D01*
X0068889Y0129953D02*
X0048428Y0129953D01*
X0048428Y0130500D02*
X0044987Y0130500D01*
X0044987Y0126547D01*
X0047212Y0126547D01*
X0047568Y0126643D01*
X0047887Y0126827D01*
X0048148Y0127088D01*
X0048332Y0127407D01*
X0048428Y0127763D01*
X0048428Y0130500D01*
X0048428Y0131550D02*
X0067292Y0131550D01*
X0066494Y0132348D02*
X0048428Y0132348D01*
X0048428Y0133147D02*
X0065695Y0133147D01*
X0064897Y0133945D02*
X0048428Y0133945D01*
X0048116Y0134744D02*
X0064098Y0134744D01*
X0063300Y0135542D02*
X0048330Y0135542D01*
X0048475Y0136341D02*
X0062501Y0136341D01*
X0061703Y0137139D02*
X0048475Y0137139D01*
X0048475Y0137938D02*
X0060904Y0137938D01*
X0060106Y0138737D02*
X0045034Y0138737D01*
X0045034Y0139535D02*
X0044234Y0139535D01*
X0044234Y0140334D02*
X0045034Y0140334D01*
X0045034Y0141132D02*
X0044234Y0141132D01*
X0044234Y0141931D02*
X0045034Y0141931D01*
X0045034Y0142729D02*
X0044234Y0142729D01*
X0040955Y0142729D02*
X0040637Y0142729D01*
X0039193Y0143528D02*
X0055315Y0143528D01*
X0054516Y0144326D02*
X0040054Y0144326D01*
X0040500Y0145125D02*
X0053718Y0145125D01*
X0052919Y0145923D02*
X0040766Y0145923D01*
X0040766Y0146722D02*
X0052121Y0146722D01*
X0051322Y0147520D02*
X0040597Y0147520D01*
X0040266Y0148319D02*
X0050524Y0148319D01*
X0049725Y0149117D02*
X0039488Y0149117D01*
X0034427Y0149916D02*
X0030036Y0149916D01*
X0030036Y0150714D02*
X0033628Y0150714D01*
X0032830Y0151513D02*
X0029833Y0151513D01*
X0031233Y0153110D02*
X0014746Y0153110D01*
X0014746Y0153908D02*
X0026386Y0153908D01*
X0025110Y0154707D02*
X0014746Y0154707D01*
X0014746Y0155505D02*
X0024312Y0155505D01*
X0023911Y0156304D02*
X0014746Y0156304D01*
X0014746Y0157102D02*
X0023580Y0157102D01*
X0023446Y0157901D02*
X0014746Y0157901D01*
X0014746Y0158699D02*
X0023446Y0158699D01*
X0023497Y0159498D02*
X0014754Y0159498D01*
X0014817Y0160296D02*
X0023828Y0160296D01*
X0024159Y0161095D02*
X0015043Y0161095D01*
X0015302Y0161893D02*
X0024910Y0161893D01*
X0025904Y0162692D02*
X0015680Y0162692D01*
X0014746Y0152311D02*
X0032031Y0152311D01*
X0030434Y0153908D02*
X0030307Y0153908D01*
X0032847Y0156304D02*
X0033911Y0156304D01*
X0033645Y0155505D02*
X0034312Y0155505D01*
X0034444Y0154707D02*
X0035110Y0154707D01*
X0035242Y0153908D02*
X0036386Y0153908D01*
X0036041Y0153110D02*
X0041233Y0153110D01*
X0040434Y0153908D02*
X0040307Y0153908D01*
X0042847Y0156304D02*
X0043911Y0156304D01*
X0043645Y0155505D02*
X0044312Y0155505D01*
X0044444Y0154707D02*
X0045110Y0154707D01*
X0043580Y0157102D02*
X0043113Y0157102D01*
X0043246Y0157901D02*
X0043446Y0157901D01*
X0043446Y0158699D02*
X0043246Y0158699D01*
X0043195Y0159498D02*
X0043497Y0159498D01*
X0043828Y0160296D02*
X0042865Y0160296D01*
X0042534Y0161095D02*
X0044159Y0161095D01*
X0044910Y0161893D02*
X0041783Y0161893D01*
X0040789Y0162692D02*
X0045904Y0162692D01*
X0050789Y0162692D02*
X0055904Y0162692D01*
X0054910Y0161893D02*
X0051783Y0161893D01*
X0052534Y0161095D02*
X0054159Y0161095D01*
X0053828Y0160296D02*
X0052865Y0160296D01*
X0053195Y0159498D02*
X0053497Y0159498D01*
X0053446Y0158699D02*
X0053246Y0158699D01*
X0053246Y0157901D02*
X0053446Y0157901D01*
X0053580Y0157102D02*
X0053113Y0157102D01*
X0052847Y0156304D02*
X0053911Y0156304D01*
X0053645Y0155505D02*
X0054312Y0155505D01*
X0054444Y0154707D02*
X0055110Y0154707D01*
X0055242Y0153908D02*
X0056386Y0153908D01*
X0056646Y0153110D02*
X0056041Y0153110D01*
X0056113Y0142729D02*
X0048314Y0142729D01*
X0048475Y0141931D02*
X0056912Y0141931D01*
X0057710Y0141132D02*
X0048475Y0141132D01*
X0048475Y0140334D02*
X0058509Y0140334D01*
X0059307Y0139535D02*
X0048475Y0139535D01*
X0045034Y0137938D02*
X0044234Y0137938D01*
X0044234Y0137139D02*
X0045034Y0137139D01*
X0045034Y0136341D02*
X0044234Y0136341D01*
X0044234Y0135542D02*
X0045034Y0135542D01*
X0044987Y0134744D02*
X0044187Y0134744D01*
X0044187Y0133945D02*
X0044987Y0133945D01*
X0044987Y0133147D02*
X0044187Y0133147D01*
X0044187Y0132348D02*
X0044987Y0132348D01*
X0044987Y0131550D02*
X0044187Y0131550D01*
X0044987Y0130751D02*
X0068091Y0130751D01*
X0065766Y0129154D02*
X0065257Y0129154D01*
X0062621Y0129154D02*
X0061821Y0129154D01*
X0061821Y0128356D02*
X0062621Y0128356D01*
X0062621Y0127557D02*
X0061821Y0127557D01*
X0061821Y0126759D02*
X0062621Y0126759D01*
X0061821Y0125960D02*
X0039106Y0125960D01*
X0039106Y0125162D02*
X0058852Y0125162D01*
X0058852Y0125874D02*
X0058852Y0124121D01*
X0058948Y0123765D01*
X0059132Y0123446D01*
X0059393Y0123185D01*
X0059712Y0123001D01*
X0060068Y0122906D01*
X0061821Y0122906D01*
X0061821Y0125874D01*
X0058852Y0125874D01*
X0058852Y0126759D02*
X0047769Y0126759D01*
X0048372Y0127557D02*
X0058852Y0127557D01*
X0058852Y0128356D02*
X0048428Y0128356D01*
X0048428Y0129154D02*
X0059184Y0129154D01*
X0061821Y0125162D02*
X0062621Y0125162D01*
X0062621Y0124363D02*
X0061821Y0124363D01*
X0061821Y0123565D02*
X0062621Y0123565D01*
X0065378Y0123565D02*
X0065595Y0123565D01*
X0066820Y0122766D02*
X0039106Y0122766D01*
X0039106Y0121968D02*
X0066820Y0121968D01*
X0066820Y0121169D02*
X0052637Y0121169D01*
X0054305Y0120371D02*
X0066820Y0120371D01*
X0066820Y0119572D02*
X0055104Y0119572D01*
X0055667Y0118774D02*
X0066820Y0118774D01*
X0066820Y0117975D02*
X0055998Y0117975D01*
X0056246Y0117177D02*
X0066820Y0117177D01*
X0066820Y0116378D02*
X0056246Y0116378D01*
X0056246Y0115580D02*
X0066820Y0115580D01*
X0066820Y0114781D02*
X0055980Y0114781D01*
X0055649Y0113983D02*
X0066820Y0113983D01*
X0065544Y0113184D02*
X0065408Y0113184D01*
X0062621Y0113184D02*
X0061821Y0113184D01*
X0061821Y0112386D02*
X0062621Y0112386D01*
X0062621Y0111587D02*
X0061821Y0111587D01*
X0061821Y0110789D02*
X0053346Y0110789D01*
X0053346Y0111587D02*
X0058852Y0111587D01*
X0058852Y0112386D02*
X0054262Y0112386D01*
X0055060Y0113184D02*
X0059034Y0113184D01*
X0058852Y0110126D02*
X0058852Y0108373D01*
X0058948Y0108017D01*
X0059132Y0107698D01*
X0059393Y0107437D01*
X0059712Y0107253D01*
X0060068Y0107157D01*
X0061821Y0107157D01*
X0061821Y0110126D01*
X0058852Y0110126D01*
X0058852Y0109990D02*
X0052765Y0109990D01*
X0051966Y0109192D02*
X0058852Y0109192D01*
X0058852Y0108393D02*
X0051168Y0108393D01*
X0050369Y0107595D02*
X0059235Y0107595D01*
X0061821Y0107595D02*
X0062621Y0107595D01*
X0062621Y0108393D02*
X0061821Y0108393D01*
X0061821Y0109192D02*
X0062621Y0109192D01*
X0062621Y0109990D02*
X0061821Y0109990D01*
X0065206Y0107595D02*
X0065817Y0107595D01*
X0065748Y0106796D02*
X0049571Y0106796D01*
X0048772Y0105998D02*
X0065465Y0105998D01*
X0065465Y0105199D02*
X0047974Y0105199D01*
X0047175Y0104401D02*
X0065617Y0104401D01*
X0065948Y0103602D02*
X0046377Y0103602D01*
X0043914Y0106796D02*
X0033081Y0106796D01*
X0033038Y0107595D02*
X0044713Y0107595D01*
X0045511Y0108393D02*
X0032708Y0108393D01*
X0032043Y0109192D02*
X0046310Y0109192D01*
X0047108Y0109990D02*
X0028346Y0109990D01*
X0028346Y0110789D02*
X0047907Y0110789D01*
X0048705Y0111587D02*
X0042531Y0111587D01*
X0044262Y0112386D02*
X0048431Y0112386D01*
X0047633Y0113184D02*
X0045060Y0113184D01*
X0045649Y0113983D02*
X0047044Y0113983D01*
X0046713Y0114781D02*
X0045980Y0114781D01*
X0046246Y0115580D02*
X0046446Y0115580D01*
X0046446Y0116378D02*
X0046246Y0116378D01*
X0046246Y0117177D02*
X0046446Y0117177D01*
X0046695Y0117975D02*
X0045998Y0117975D01*
X0045667Y0118774D02*
X0047026Y0118774D01*
X0047589Y0119572D02*
X0045104Y0119572D01*
X0044305Y0120371D02*
X0048388Y0120371D01*
X0050056Y0121169D02*
X0042637Y0121169D01*
X0040056Y0121169D02*
X0039406Y0121169D01*
X0039106Y0123565D02*
X0059063Y0123565D01*
X0058852Y0124363D02*
X0039106Y0124363D01*
X0040056Y0126759D02*
X0041404Y0126759D01*
X0040801Y0127557D02*
X0040747Y0127557D01*
X0044187Y0127557D02*
X0044987Y0127557D01*
X0044987Y0126759D02*
X0044187Y0126759D01*
X0044187Y0128356D02*
X0044987Y0128356D01*
X0044987Y0129154D02*
X0044187Y0129154D01*
X0044187Y0129953D02*
X0044987Y0129953D01*
X0035106Y0126747D02*
X0035106Y0119812D01*
X0035106Y0120371D02*
X0033346Y0120371D01*
X0033346Y0121169D02*
X0035106Y0121169D01*
X0035106Y0121968D02*
X0033346Y0121968D01*
X0033346Y0122766D02*
X0035106Y0122766D01*
X0035106Y0123565D02*
X0033346Y0123565D01*
X0033346Y0124363D02*
X0035106Y0124363D01*
X0035106Y0125162D02*
X0033346Y0125162D01*
X0033346Y0125960D02*
X0035106Y0125960D01*
X0035106Y0126747D02*
X0034168Y0126747D01*
X0033465Y0127450D01*
X0033465Y0132604D01*
X0033346Y0132486D01*
X0033346Y0119572D01*
X0032549Y0118774D02*
X0036144Y0118774D01*
X0036695Y0117975D02*
X0031750Y0117975D01*
X0030952Y0117177D02*
X0036446Y0117177D01*
X0036446Y0116378D02*
X0030153Y0116378D01*
X0029355Y0115580D02*
X0036446Y0115580D01*
X0036713Y0114781D02*
X0028556Y0114781D01*
X0028346Y0113983D02*
X0037044Y0113983D01*
X0037633Y0113184D02*
X0028346Y0113184D01*
X0028346Y0112386D02*
X0038431Y0112386D01*
X0040161Y0111587D02*
X0028346Y0111587D01*
X0024346Y0108393D02*
X0016333Y0108393D01*
X0016446Y0107595D02*
X0024346Y0107595D01*
X0024346Y0106796D02*
X0016446Y0106796D01*
X0016446Y0105998D02*
X0024346Y0105998D01*
X0021746Y0105199D02*
X0020946Y0105199D01*
X0020946Y0104401D02*
X0021746Y0104401D01*
X0021746Y0103602D02*
X0020946Y0103602D01*
X0020946Y0102803D02*
X0021746Y0102803D01*
X0021746Y0102005D02*
X0020946Y0102005D01*
X0020946Y0101206D02*
X0021746Y0101206D01*
X0021746Y0100408D02*
X0020946Y0100408D01*
X0016994Y0100408D02*
X0016446Y0100408D01*
X0016446Y0101206D02*
X0016994Y0101206D01*
X0016994Y0102005D02*
X0016446Y0102005D01*
X0016446Y0102803D02*
X0016994Y0102803D01*
X0016994Y0103602D02*
X0016446Y0103602D01*
X0016446Y0104401D02*
X0016994Y0104401D01*
X0017292Y0105199D02*
X0016446Y0105199D01*
X0015535Y0109192D02*
X0017625Y0109192D01*
X0017045Y0109990D02*
X0014746Y0109990D01*
X0014746Y0110789D02*
X0016994Y0110789D01*
X0016994Y0111587D02*
X0014746Y0111587D01*
X0014746Y0112386D02*
X0016994Y0112386D01*
X0016994Y0113184D02*
X0014746Y0113184D01*
X0014746Y0113983D02*
X0020946Y0113983D01*
X0020946Y0114781D02*
X0021746Y0114781D01*
X0021746Y0115580D02*
X0020946Y0115580D01*
X0020946Y0116378D02*
X0021746Y0116378D01*
X0021746Y0117177D02*
X0020946Y0117177D01*
X0020946Y0117975D02*
X0021746Y0117975D01*
X0021746Y0118774D02*
X0020946Y0118774D01*
X0017920Y0118774D02*
X0014746Y0118774D01*
X0014746Y0119572D02*
X0027690Y0119572D01*
X0026892Y0118774D02*
X0024773Y0118774D01*
X0025608Y0117975D02*
X0026093Y0117975D01*
X0028489Y0120371D02*
X0014746Y0120371D01*
X0014746Y0121169D02*
X0029287Y0121169D01*
X0023428Y0121968D02*
X0022265Y0121968D01*
X0022044Y0121747D02*
X0022747Y0122450D01*
X0022747Y0129350D01*
X0022044Y0130053D01*
X0021787Y0130053D01*
X0022275Y0130541D01*
X0022275Y0136259D01*
X0021572Y0136962D01*
X0015853Y0136962D01*
X0015150Y0136259D01*
X0015150Y0130541D01*
X0015853Y0129838D01*
X0015953Y0129838D01*
X0015465Y0129350D01*
X0015465Y0122450D01*
X0016168Y0121747D01*
X0022044Y0121747D01*
X0022747Y0122766D02*
X0022946Y0122766D01*
X0022946Y0123565D02*
X0022747Y0123565D01*
X0022747Y0124363D02*
X0022946Y0124363D01*
X0022946Y0125162D02*
X0022747Y0125162D01*
X0022747Y0125960D02*
X0022946Y0125960D01*
X0022946Y0126759D02*
X0022747Y0126759D01*
X0022747Y0127557D02*
X0022946Y0127557D01*
X0022946Y0128356D02*
X0022747Y0128356D01*
X0022747Y0129154D02*
X0022946Y0129154D01*
X0023549Y0129953D02*
X0022144Y0129953D01*
X0022275Y0130751D02*
X0023245Y0130751D01*
X0023218Y0131550D02*
X0022275Y0131550D01*
X0022275Y0132348D02*
X0023218Y0132348D01*
X0022275Y0133147D02*
X0026580Y0133147D01*
X0026580Y0133800D02*
X0026580Y0137028D01*
X0026580Y0140390D01*
X0027380Y0140390D01*
X0027380Y0133800D01*
X0026580Y0133800D01*
X0026580Y0133945D02*
X0027380Y0133945D01*
X0027380Y0134744D02*
X0026580Y0134744D01*
X0026580Y0135542D02*
X0027380Y0135542D01*
X0027380Y0136341D02*
X0026580Y0136341D01*
X0026580Y0137139D02*
X0027380Y0137139D01*
X0027380Y0137938D02*
X0026580Y0137938D01*
X0026580Y0138737D02*
X0027380Y0138737D01*
X0027380Y0139535D02*
X0026580Y0139535D01*
X0026580Y0140334D02*
X0027380Y0140334D01*
X0027380Y0140391D02*
X0027380Y0141190D01*
X0030743Y0141190D01*
X0030743Y0143337D01*
X0030647Y0143693D01*
X0030463Y0144012D01*
X0030202Y0144273D01*
X0030010Y0144384D01*
X0030036Y0144410D01*
X0030036Y0146160D01*
X0034004Y0146160D01*
X0034004Y0145766D01*
X0034519Y0144523D01*
X0035470Y0143572D01*
X0036189Y0143274D01*
X0034216Y0143274D01*
X0033513Y0142571D01*
X0033513Y0138309D01*
X0030743Y0135538D01*
X0030743Y0135947D01*
X0030647Y0136303D01*
X0030463Y0136622D01*
X0030202Y0136882D01*
X0029883Y0137067D01*
X0029777Y0137095D01*
X0029883Y0137124D01*
X0030202Y0137308D01*
X0030463Y0137569D01*
X0030647Y0137888D01*
X0030743Y0138244D01*
X0030743Y0140391D01*
X0027380Y0140391D01*
X0027380Y0141132D02*
X0033513Y0141132D01*
X0033513Y0140334D02*
X0030743Y0140334D01*
X0030743Y0139535D02*
X0033513Y0139535D01*
X0033513Y0138737D02*
X0030743Y0138737D01*
X0030661Y0137938D02*
X0033142Y0137938D01*
X0032344Y0137139D02*
X0029910Y0137139D01*
X0030625Y0136341D02*
X0031545Y0136341D01*
X0030747Y0135542D02*
X0030743Y0135542D01*
X0033346Y0132348D02*
X0033465Y0132348D01*
X0033465Y0131550D02*
X0033346Y0131550D01*
X0033346Y0130751D02*
X0033465Y0130751D01*
X0033465Y0129953D02*
X0033346Y0129953D01*
X0033346Y0129154D02*
X0033465Y0129154D01*
X0033465Y0128356D02*
X0033346Y0128356D01*
X0033346Y0127557D02*
X0033465Y0127557D01*
X0033346Y0126759D02*
X0034157Y0126759D01*
X0023218Y0133945D02*
X0022275Y0133945D01*
X0022275Y0134744D02*
X0023218Y0134744D01*
X0023218Y0135542D02*
X0022275Y0135542D01*
X0022193Y0136341D02*
X0023336Y0136341D01*
X0024050Y0137139D02*
X0014746Y0137139D01*
X0014746Y0136341D02*
X0015232Y0136341D01*
X0015150Y0135542D02*
X0014746Y0135542D01*
X0014746Y0134744D02*
X0015150Y0134744D01*
X0015150Y0133945D02*
X0014746Y0133945D01*
X0014746Y0133147D02*
X0015150Y0133147D01*
X0015150Y0132348D02*
X0014746Y0132348D01*
X0014746Y0131550D02*
X0015150Y0131550D01*
X0015150Y0130751D02*
X0014746Y0130751D01*
X0014746Y0129953D02*
X0015738Y0129953D01*
X0015465Y0129154D02*
X0014746Y0129154D01*
X0014746Y0128356D02*
X0015465Y0128356D01*
X0015465Y0127557D02*
X0014746Y0127557D01*
X0014746Y0126759D02*
X0015465Y0126759D01*
X0015465Y0125960D02*
X0014746Y0125960D01*
X0014746Y0125162D02*
X0015465Y0125162D01*
X0015465Y0124363D02*
X0014746Y0124363D01*
X0014746Y0123565D02*
X0015465Y0123565D01*
X0015465Y0122766D02*
X0014746Y0122766D01*
X0014746Y0121968D02*
X0015948Y0121968D01*
X0017085Y0117975D02*
X0014746Y0117975D01*
X0014746Y0117177D02*
X0016994Y0117177D01*
X0016994Y0116378D02*
X0014746Y0116378D01*
X0014746Y0115580D02*
X0016994Y0115580D01*
X0016994Y0114781D02*
X0014746Y0114781D01*
X0020946Y0113184D02*
X0021746Y0113184D01*
X0021746Y0112386D02*
X0020946Y0112386D01*
X0020946Y0111587D02*
X0021746Y0111587D01*
X0021746Y0110789D02*
X0020946Y0110789D01*
X0020946Y0109990D02*
X0021746Y0109990D01*
X0021746Y0109192D02*
X0020946Y0109192D01*
X0044582Y0087632D02*
X0045382Y0087632D01*
X0045382Y0086833D02*
X0044582Y0086833D01*
X0044582Y0086035D02*
X0045382Y0086035D01*
X0048872Y0087632D02*
X0059461Y0087632D01*
X0059461Y0086833D02*
X0049319Y0086833D01*
X0049335Y0086035D02*
X0059461Y0086035D01*
X0059461Y0085236D02*
X0058292Y0085236D01*
X0059090Y0084438D02*
X0059461Y0084438D01*
X0054401Y0085236D02*
X0049335Y0085236D01*
X0053211Y0067669D02*
X0044423Y0067669D01*
X0040372Y0062878D02*
X0014746Y0062878D01*
X0014746Y0062079D02*
X0040964Y0062079D01*
X0041386Y0061281D02*
X0014746Y0061281D01*
X0026937Y0063676D02*
X0027075Y0063676D01*
X0031593Y0049303D02*
X0014746Y0049303D01*
X0014746Y0048505D02*
X0031593Y0048505D01*
X0031593Y0047706D02*
X0014746Y0047706D01*
X0014746Y0046908D02*
X0031699Y0046908D01*
X0043232Y0034930D02*
X0014746Y0034930D01*
X0014746Y0034132D02*
X0042434Y0034132D01*
X0041635Y0033333D02*
X0014746Y0033333D01*
X0014746Y0032534D02*
X0040837Y0032534D01*
X0040038Y0031736D02*
X0014746Y0031736D01*
X0014746Y0030937D02*
X0034435Y0030937D01*
X0033847Y0030139D02*
X0014746Y0030139D01*
X0014746Y0029340D02*
X0033847Y0029340D01*
X0033847Y0028542D02*
X0014746Y0028542D01*
X0014746Y0027743D02*
X0033847Y0027743D01*
X0033847Y0026945D02*
X0014746Y0026945D01*
X0014746Y0026146D02*
X0033847Y0026146D01*
X0033847Y0025348D02*
X0014746Y0025348D01*
X0014746Y0024549D02*
X0033847Y0024549D01*
X0033847Y0023751D02*
X0014746Y0023751D01*
X0014746Y0035729D02*
X0044031Y0035729D01*
X0044829Y0036527D02*
X0014746Y0036527D01*
X0014746Y0037326D02*
X0045628Y0037326D01*
X0046426Y0038124D02*
X0014746Y0038124D01*
X0014746Y0038923D02*
X0047225Y0038923D01*
X0048023Y0039721D02*
X0014746Y0039721D01*
X0014746Y0040520D02*
X0048822Y0040520D01*
X0049620Y0041318D02*
X0014746Y0041318D01*
X0014746Y0042117D02*
X0050419Y0042117D01*
X0050646Y0042915D02*
X0014746Y0042915D01*
X0014746Y0043714D02*
X0050646Y0043714D01*
X0050646Y0044512D02*
X0014746Y0044512D01*
X0048258Y0030937D02*
X0055629Y0030937D01*
X0056058Y0030139D02*
X0048846Y0030139D01*
X0063887Y0030139D02*
X0064730Y0030139D01*
X0083513Y0051699D02*
X0083644Y0051699D01*
X0077394Y0056490D02*
X0077394Y0056490D01*
X0077394Y0057288D02*
X0077394Y0057288D01*
X0077394Y0058087D02*
X0077394Y0058087D01*
X0077394Y0058885D02*
X0077394Y0058885D01*
X0077394Y0059684D02*
X0077394Y0059684D01*
X0077394Y0060482D02*
X0077394Y0060482D01*
X0059713Y0065273D02*
X0055624Y0065273D01*
X0056423Y0066072D02*
X0059461Y0066072D01*
X0092924Y0096415D02*
X0095958Y0096415D01*
X0096756Y0097214D02*
X0092924Y0097214D01*
X0092494Y0098012D02*
X0097555Y0098012D01*
X0098353Y0098811D02*
X0095539Y0098811D01*
X0096264Y0099609D02*
X0099152Y0099609D01*
X0099950Y0100408D02*
X0096595Y0100408D01*
X0096728Y0101206D02*
X0100749Y0101206D01*
X0101547Y0102005D02*
X0096728Y0102005D01*
X0096425Y0102803D02*
X0102346Y0102803D01*
X0103144Y0103602D02*
X0095926Y0103602D01*
X0094938Y0104401D02*
X0112943Y0104401D01*
X0113741Y0105199D02*
X0111550Y0105199D01*
X0112348Y0105998D02*
X0114540Y0105998D01*
X0115146Y0106796D02*
X0113147Y0106796D01*
X0113638Y0107595D02*
X0115055Y0107595D01*
X0114446Y0108393D02*
X0114246Y0108393D01*
X0114246Y0109192D02*
X0114446Y0109192D01*
X0114446Y0109990D02*
X0114246Y0109990D01*
X0114246Y0110789D02*
X0114446Y0110789D01*
X0114446Y0111587D02*
X0114246Y0111587D01*
X0114246Y0112386D02*
X0114446Y0112386D01*
X0114446Y0113184D02*
X0114246Y0113184D01*
X0114246Y0113983D02*
X0114446Y0113983D01*
X0114446Y0114781D02*
X0114246Y0114781D01*
X0114246Y0115580D02*
X0114446Y0115580D01*
X0114446Y0116378D02*
X0114246Y0116378D01*
X0114246Y0117177D02*
X0114446Y0117177D01*
X0114446Y0117975D02*
X0114246Y0117975D01*
X0114246Y0118774D02*
X0114446Y0118774D01*
X0114446Y0119572D02*
X0114246Y0119572D01*
X0114246Y0120371D02*
X0114446Y0120371D01*
X0114446Y0121169D02*
X0114246Y0121169D01*
X0114246Y0121968D02*
X0114446Y0121968D01*
X0114816Y0122766D02*
X0113877Y0122766D01*
X0109816Y0122766D02*
X0108877Y0122766D01*
X0109246Y0121968D02*
X0109446Y0121968D01*
X0109446Y0121169D02*
X0109246Y0121169D01*
X0109246Y0120371D02*
X0109446Y0120371D01*
X0109446Y0119572D02*
X0109246Y0119572D01*
X0109246Y0118774D02*
X0109446Y0118774D01*
X0109446Y0117975D02*
X0109246Y0117975D01*
X0109246Y0117177D02*
X0109446Y0117177D01*
X0109446Y0116378D02*
X0109246Y0116378D01*
X0109246Y0115580D02*
X0109446Y0115580D01*
X0109446Y0114781D02*
X0109246Y0114781D01*
X0109246Y0113983D02*
X0109446Y0113983D01*
X0109446Y0113184D02*
X0109246Y0113184D01*
X0109246Y0112386D02*
X0109446Y0112386D01*
X0109446Y0111587D02*
X0109246Y0111587D01*
X0109246Y0110789D02*
X0109446Y0110789D01*
X0109446Y0109990D02*
X0109246Y0109990D01*
X0109246Y0109192D02*
X0109446Y0109192D01*
X0109446Y0108393D02*
X0109246Y0108393D01*
X0118638Y0107595D02*
X0120055Y0107595D01*
X0119446Y0108393D02*
X0119246Y0108393D01*
X0119246Y0109192D02*
X0119446Y0109192D01*
X0119446Y0109990D02*
X0119246Y0109990D01*
X0119246Y0110789D02*
X0119446Y0110789D01*
X0119446Y0111587D02*
X0119246Y0111587D01*
X0119246Y0112386D02*
X0119446Y0112386D01*
X0119446Y0113184D02*
X0119246Y0113184D01*
X0119246Y0113983D02*
X0119446Y0113983D01*
X0119446Y0114781D02*
X0119246Y0114781D01*
X0119246Y0115580D02*
X0119446Y0115580D01*
X0119446Y0116378D02*
X0119246Y0116378D01*
X0119246Y0117177D02*
X0119446Y0117177D01*
X0119446Y0117975D02*
X0119246Y0117975D01*
X0119246Y0118774D02*
X0119446Y0118774D01*
X0119446Y0119572D02*
X0119246Y0119572D01*
X0119246Y0120371D02*
X0119446Y0120371D01*
X0119446Y0121169D02*
X0119246Y0121169D01*
X0119246Y0121968D02*
X0119446Y0121968D01*
X0119816Y0122766D02*
X0118877Y0122766D01*
X0109501Y0132348D02*
X0109192Y0132348D01*
X0109246Y0133147D02*
X0109446Y0133147D01*
X0109446Y0133945D02*
X0109246Y0133945D01*
X0109246Y0134744D02*
X0109446Y0134744D01*
X0109446Y0135542D02*
X0109246Y0135542D01*
X0109246Y0136341D02*
X0109446Y0136341D01*
X0109446Y0137139D02*
X0109246Y0137139D01*
X0109246Y0137938D02*
X0109446Y0137938D01*
X0109446Y0138737D02*
X0109246Y0138737D01*
X0109246Y0139535D02*
X0109446Y0139535D01*
X0086663Y0105199D02*
X0082043Y0105199D01*
X0082841Y0104401D02*
X0085864Y0104401D01*
X0085066Y0103602D02*
X0083640Y0103602D01*
X0035577Y0143528D02*
X0030691Y0143528D01*
X0030743Y0142729D02*
X0033671Y0142729D01*
X0033513Y0141931D02*
X0030743Y0141931D01*
X0030110Y0144326D02*
X0034716Y0144326D01*
X0034269Y0145125D02*
X0030036Y0145125D01*
X0030036Y0145923D02*
X0034004Y0145923D01*
X0026580Y0141132D02*
X0022275Y0141132D01*
X0022275Y0140334D02*
X0023218Y0140334D01*
X0023218Y0139535D02*
X0022275Y0139535D01*
X0022275Y0138737D02*
X0023218Y0138737D01*
X0023300Y0137938D02*
X0022275Y0137938D01*
X0022275Y0137931D02*
X0022275Y0143650D01*
X0022035Y0143890D01*
X0022555Y0144410D01*
X0022555Y0151310D01*
X0021852Y0152013D01*
X0015976Y0152013D01*
X0015273Y0151310D01*
X0015273Y0144410D01*
X0015592Y0144091D01*
X0015150Y0143650D01*
X0015150Y0137931D01*
X0015853Y0137228D01*
X0021572Y0137228D01*
X0022275Y0137931D01*
X0022275Y0141931D02*
X0023218Y0141931D01*
X0023218Y0142729D02*
X0022275Y0142729D01*
X0022275Y0143528D02*
X0023269Y0143528D01*
X0022838Y0144326D02*
X0022471Y0144326D01*
X0022555Y0145125D02*
X0022754Y0145125D01*
X0022754Y0145923D02*
X0022555Y0145923D01*
X0022555Y0146722D02*
X0022754Y0146722D01*
X0022754Y0147520D02*
X0022555Y0147520D01*
X0022555Y0148319D02*
X0022754Y0148319D01*
X0022754Y0149117D02*
X0022555Y0149117D01*
X0022555Y0149916D02*
X0022754Y0149916D01*
X0022754Y0150714D02*
X0022555Y0150714D01*
X0022352Y0151513D02*
X0022957Y0151513D01*
X0015476Y0151513D02*
X0014746Y0151513D01*
X0014746Y0150714D02*
X0015273Y0150714D01*
X0015273Y0149916D02*
X0014746Y0149916D01*
X0014746Y0149117D02*
X0015273Y0149117D01*
X0015273Y0148319D02*
X0014746Y0148319D01*
X0014746Y0147520D02*
X0015273Y0147520D01*
X0015273Y0146722D02*
X0014746Y0146722D01*
X0014746Y0145923D02*
X0015273Y0145923D01*
X0015273Y0145125D02*
X0014746Y0145125D01*
X0014746Y0144326D02*
X0015357Y0144326D01*
X0015150Y0143528D02*
X0014746Y0143528D01*
X0014746Y0142729D02*
X0015150Y0142729D01*
X0015150Y0141931D02*
X0014746Y0141931D01*
X0014746Y0141132D02*
X0015150Y0141132D01*
X0015150Y0140334D02*
X0014746Y0140334D01*
X0014746Y0139535D02*
X0015150Y0139535D01*
X0015150Y0138737D02*
X0014746Y0138737D01*
X0014746Y0137938D02*
X0015150Y0137938D01*
X0033113Y0157102D02*
X0033580Y0157102D01*
X0033446Y0157901D02*
X0033246Y0157901D01*
X0033246Y0158699D02*
X0033446Y0158699D01*
X0033497Y0159498D02*
X0033195Y0159498D01*
X0032865Y0160296D02*
X0033828Y0160296D01*
X0034159Y0161095D02*
X0032534Y0161095D01*
X0031783Y0161893D02*
X0034910Y0161893D01*
X0035904Y0162692D02*
X0030789Y0162692D01*
X0147970Y0095617D02*
X0158574Y0095617D01*
X0166378Y0094818D02*
X0167428Y0094818D01*
X0167119Y0095617D02*
X0167759Y0095617D01*
X0167199Y0096415D02*
X0168346Y0096415D01*
X0168346Y0097214D02*
X0167199Y0097214D01*
X0167199Y0098012D02*
X0168346Y0098012D01*
X0156398Y0074856D02*
X0148820Y0074856D01*
X0149550Y0074057D02*
X0155599Y0074057D01*
X0154801Y0073259D02*
X0149880Y0073259D01*
X0150211Y0072460D02*
X0154002Y0072460D01*
X0153204Y0071662D02*
X0150246Y0071662D01*
X0150246Y0070863D02*
X0152405Y0070863D01*
X0151607Y0070065D02*
X0150097Y0070065D01*
X0158012Y0071662D02*
X0168346Y0071662D01*
X0158494Y0058087D02*
X0148963Y0058087D01*
X0166699Y0018161D02*
X0168346Y0018161D01*
X0168346Y0017363D02*
X0166699Y0017363D01*
X0166699Y0016564D02*
X0168346Y0016564D01*
X0123180Y0008579D02*
X0116012Y0008579D01*
D31*
X0114846Y0013400D02*
X0114846Y0028375D01*
X0087236Y0055985D01*
X0087236Y0060668D01*
X0085268Y0060668D02*
X0085268Y0052479D01*
X0095346Y0042400D01*
X0083299Y0056405D02*
X0081346Y0054453D01*
X0083299Y0056405D02*
X0083299Y0060668D01*
X0081448Y0060785D02*
X0081448Y0064159D01*
X0084346Y0067057D01*
X0084346Y0067339D01*
X0079362Y0069384D02*
X0079362Y0060668D01*
X0079346Y0060683D01*
X0079346Y0074400D01*
X0063661Y0074400D01*
X0063614Y0074447D01*
X0063614Y0072479D02*
X0063497Y0072361D01*
X0063614Y0070510D02*
X0063504Y0070400D01*
X0063614Y0068542D02*
X0060240Y0068542D01*
X0063614Y0068542D02*
X0056488Y0068542D01*
X0052346Y0064400D01*
X0052346Y0041640D01*
X0037606Y0026900D01*
X0045087Y0026900D02*
X0045087Y0018337D01*
X0059558Y0038493D02*
X0059972Y0041078D01*
X0059558Y0038493D02*
X0059558Y0049488D01*
X0059558Y0056612D01*
X0062346Y0059400D01*
X0069346Y0059400D01*
X0069520Y0059573D01*
X0069520Y0060668D01*
X0071488Y0060668D02*
X0071488Y0056400D01*
X0069007Y0053919D01*
X0069007Y0049488D01*
X0069007Y0038549D01*
X0068590Y0041132D01*
X0075425Y0047822D02*
X0077815Y0045432D01*
X0077815Y0040932D01*
X0075425Y0047822D02*
X0075425Y0060668D01*
X0073457Y0060668D02*
X0073457Y0065250D01*
X0075607Y0067400D01*
X0079346Y0074400D02*
X0079346Y0078400D01*
X0069520Y0088227D01*
X0069520Y0094132D01*
X0073339Y0094250D02*
X0073339Y0097624D01*
X0071563Y0099400D01*
X0032075Y0099400D01*
X0032075Y0101959D02*
X0034996Y0101959D01*
X0035755Y0101200D01*
X0072308Y0101200D01*
X0075308Y0098201D01*
X0075308Y0094250D01*
X0075425Y0094132D01*
X0077276Y0094250D02*
X0077276Y0098778D01*
X0073500Y0102554D01*
X0073500Y0102701D01*
X0073492Y0102709D01*
X0073492Y0127754D01*
X0050146Y0151100D01*
X0035646Y0151100D01*
X0028346Y0158400D01*
X0038346Y0158400D02*
X0043846Y0152900D01*
X0050892Y0152900D01*
X0075292Y0128500D01*
X0075292Y0103454D01*
X0079362Y0099384D01*
X0079362Y0094132D01*
X0077394Y0094132D02*
X0077276Y0094250D01*
X0073457Y0094132D02*
X0073339Y0094250D01*
X0081331Y0094132D02*
X0081331Y0100400D01*
X0077092Y0104639D01*
X0077092Y0129654D01*
X0048346Y0158400D01*
X0058346Y0158400D02*
X0058346Y0150973D01*
X0078892Y0130427D01*
X0078892Y0105946D01*
X0083299Y0101538D01*
X0083299Y0094132D01*
X0085268Y0094132D02*
X0085268Y0101400D01*
X0098846Y0114979D01*
X0106846Y0115300D01*
X0111846Y0115300D02*
X0111846Y0107900D01*
X0110346Y0106400D01*
X0093236Y0106400D01*
X0087236Y0100400D01*
X0087236Y0094132D01*
X0085385Y0094250D02*
X0085268Y0094132D01*
X0089205Y0094132D02*
X0089205Y0098797D01*
X0091808Y0101400D01*
X0093346Y0101400D01*
X0091173Y0095842D02*
X0091173Y0094132D01*
X0091441Y0094400D01*
X0096346Y0094400D01*
X0104346Y0102400D01*
X0113346Y0102400D01*
X0116846Y0105900D01*
X0116846Y0115300D01*
X0091257Y0094217D02*
X0091173Y0094132D01*
X0097079Y0088227D02*
X0100034Y0088227D01*
X0103277Y0091470D01*
X0097079Y0082321D02*
X0126268Y0082321D01*
X0145346Y0101400D01*
X0150346Y0106400D02*
X0157346Y0113400D01*
X0179504Y0113400D01*
X0182346Y0116243D01*
X0162846Y0106140D02*
X0162587Y0106400D01*
X0150346Y0106400D01*
X0145346Y0081400D02*
X0144299Y0080353D01*
X0097079Y0080353D01*
X0097079Y0078384D02*
X0138362Y0078384D01*
X0145346Y0071400D01*
X0150346Y0066400D02*
X0157346Y0073400D01*
X0179504Y0073400D01*
X0182346Y0076243D01*
X0162846Y0066640D02*
X0162606Y0066400D01*
X0150346Y0066400D01*
X0145346Y0061400D02*
X0134268Y0072479D01*
X0097079Y0072479D01*
X0097079Y0074447D02*
X0084394Y0074447D01*
X0079346Y0074400D01*
X0063614Y0076416D02*
X0045599Y0076416D01*
X0045346Y0076668D01*
X0044982Y0076668D01*
X0056346Y0082400D02*
X0057425Y0082321D01*
X0063614Y0082321D01*
X0081448Y0060785D02*
X0081331Y0060668D01*
X0097079Y0068542D02*
X0118205Y0068542D01*
X0145346Y0041400D01*
X0150346Y0036400D02*
X0153346Y0033400D01*
X0160106Y0026640D01*
X0162346Y0026640D01*
X0153346Y0033400D02*
X0179504Y0033400D01*
X0182346Y0036243D01*
X0145346Y0051400D02*
X0126236Y0070510D01*
X0097079Y0070510D01*
X0097196Y0070393D01*
X0097079Y0068542D02*
X0097196Y0068424D01*
X0068846Y0105440D02*
X0068520Y0105767D01*
X0068520Y0110526D01*
X0068520Y0126274D01*
X0077606Y0141274D02*
X0084346Y0134534D01*
X0085087Y0142400D02*
X0085346Y0142660D01*
X0085346Y0159400D01*
X0077606Y0142400D02*
X0077606Y0141274D01*
X0037385Y0146438D02*
X0035963Y0147860D01*
X0026395Y0147860D01*
X0018914Y0147860D02*
X0018914Y0140087D01*
X0018713Y0140791D01*
X0018713Y0133400D02*
X0019106Y0132006D01*
X0019106Y0125900D01*
X0026587Y0125900D02*
X0027043Y0125900D01*
X0027543Y0125400D01*
X0031346Y0125400D01*
X0021042Y0074464D02*
X0021254Y0074252D01*
X0021254Y0067159D01*
X0150346Y0146400D02*
X0162087Y0146400D01*
X0162346Y0146140D01*
X0157346Y0153400D02*
X0150346Y0146400D01*
X0157346Y0153400D02*
X0179504Y0153400D01*
X0182346Y0156243D01*
D32*
X0150346Y0146400D03*
X0150346Y0106400D03*
X0182346Y0086400D03*
X0150346Y0066400D03*
X0150346Y0036400D03*
X0103277Y0091470D03*
X0084346Y0067339D03*
X0075607Y0067400D03*
X0081346Y0054453D03*
D33*
X0063597Y0072461D02*
X0063614Y0072479D01*
X0097079Y0074447D02*
X0103346Y0074447D01*
X0103415Y0074379D01*
X0137325Y0074379D01*
X0137346Y0074400D01*
X0150346Y0086400D02*
X0182346Y0086400D01*
X0150346Y0086400D02*
X0145346Y0091400D01*
X0097276Y0121329D02*
X0097276Y0135421D01*
X0097346Y0135660D01*
X0101187Y0139500D01*
X0106846Y0139500D01*
X0111846Y0139500D02*
X0111846Y0151400D01*
X0109346Y0153900D01*
X0109346Y0159400D01*
X0116846Y0151400D02*
X0119346Y0153900D01*
X0119346Y0159400D01*
X0116846Y0151400D02*
X0116846Y0139500D01*
X0097276Y0121329D02*
X0085346Y0109400D01*
X0053563Y0016900D02*
X0062163Y0008300D01*
X0086746Y0008300D01*
X0091846Y0013400D01*
X0053563Y0016900D02*
X0046732Y0010069D01*
X0041346Y0010069D01*
D34*
X0068130Y0016900D02*
X0075630Y0024400D01*
X0083346Y0024400D01*
X0091346Y0032400D01*
X0091346Y0033400D01*
X0078346Y0016900D02*
X0068130Y0016900D01*
X0078346Y0016900D02*
X0081846Y0013400D01*
X0044315Y0057388D02*
X0035946Y0057388D01*
X0035479Y0056922D01*
X0028735Y0056922D01*
X0028735Y0067159D02*
X0028523Y0067370D01*
X0028523Y0074464D01*
X0032346Y0078288D01*
X0032346Y0080400D01*
X0028523Y0074464D02*
X0026346Y0076640D01*
X0026346Y0115400D01*
X0031346Y0120400D01*
X0031346Y0125400D01*
X0031346Y0133314D01*
X0037154Y0139121D01*
X0037154Y0127948D01*
X0037106Y0130900D01*
X0037106Y0120640D01*
X0041346Y0116400D01*
X0051346Y0116400D02*
X0051346Y0111400D01*
X0044465Y0104518D01*
X0032075Y0104518D01*
X0031724Y0104518D01*
X0043386Y0064439D02*
X0043386Y0057441D01*
X0043408Y0057419D01*
X0044346Y0057419D01*
X0044315Y0057388D01*
M02*
