G75*
%MOIN*%
%OFA0B0*%
%FSLAX25Y25*%
%IPPOS*%
%LPD*%
%AMOC8*
5,1,8,0,0,1.08239X$1,22.5*
%
%ADD10C,0.10800*%
%ADD11R,0.05682X0.06706*%
%ADD12R,0.06706X0.05682*%
%ADD13R,0.05524X0.05524*%
%ADD14R,0.04737X0.04737*%
%ADD15R,0.02965X0.05524*%
%ADD16R,0.05131X0.08280*%
%ADD17R,0.06706X0.05918*%
%ADD18R,0.01902X0.06706*%
%ADD19R,0.06706X0.01902*%
%ADD20R,0.06509X0.02375*%
%ADD21C,0.04146*%
%ADD22R,0.06693X0.07874*%
%ADD23R,0.06693X0.10630*%
%ADD24C,0.08200*%
%ADD25R,0.03200X0.14000*%
%ADD26C,0.03500*%
%ADD27C,0.05000*%
%ADD28R,0.03950X0.04343*%
%ADD29R,0.06312X0.06312*%
%ADD30R,0.05918X0.06706*%
%ADD31C,0.05359*%
D10*
X0022346Y0014400D03*
D11*
X0021042Y0074464D03*
X0028523Y0074464D03*
X0026587Y0125900D03*
X0019106Y0125900D03*
X0037106Y0130900D03*
X0044587Y0130900D03*
X0044634Y0139121D03*
X0037154Y0139121D03*
X0026395Y0147860D03*
X0018914Y0147860D03*
X0077606Y0142400D03*
X0085087Y0142400D03*
D12*
X0097346Y0143140D03*
X0097346Y0135660D03*
X0044982Y0084148D03*
X0044982Y0076668D03*
X0043408Y0057419D03*
X0035946Y0057388D03*
X0035946Y0049908D03*
X0043408Y0049939D03*
X0059972Y0041078D03*
X0059972Y0033598D03*
X0068590Y0033652D03*
X0068590Y0041132D03*
X0077815Y0040932D03*
X0077815Y0033452D03*
D13*
X0084346Y0126266D03*
X0084346Y0134534D03*
X0026980Y0133400D03*
X0026980Y0140791D03*
X0018713Y0140791D03*
X0018713Y0133400D03*
D14*
X0062221Y0126274D03*
X0068520Y0126274D03*
X0068520Y0110526D03*
X0062221Y0110526D03*
D15*
X0028735Y0067159D03*
X0024994Y0067159D03*
X0021254Y0067159D03*
X0021254Y0056922D03*
X0028735Y0056922D03*
D16*
X0059558Y0049488D03*
X0069007Y0049488D03*
D17*
X0162346Y0026640D03*
X0162346Y0019160D03*
X0162846Y0059160D03*
X0162846Y0066640D03*
X0162846Y0098660D03*
X0162846Y0106140D03*
X0162346Y0138660D03*
X0162346Y0146140D03*
D18*
X0091173Y0094132D03*
X0089205Y0094132D03*
X0087236Y0094132D03*
X0085268Y0094132D03*
X0083299Y0094132D03*
X0081331Y0094132D03*
X0079362Y0094132D03*
X0077394Y0094132D03*
X0075425Y0094132D03*
X0073457Y0094132D03*
X0071488Y0094132D03*
X0069520Y0094132D03*
X0069520Y0060668D03*
X0071488Y0060668D03*
X0073457Y0060668D03*
X0075425Y0060668D03*
X0077394Y0060668D03*
X0079362Y0060668D03*
X0081331Y0060668D03*
X0083299Y0060668D03*
X0085268Y0060668D03*
X0087236Y0060668D03*
X0089205Y0060668D03*
X0091173Y0060668D03*
D19*
X0097079Y0066573D03*
X0097079Y0068542D03*
X0097079Y0070510D03*
X0097079Y0072479D03*
X0097079Y0074447D03*
X0097079Y0076416D03*
X0097079Y0078384D03*
X0097079Y0080353D03*
X0097079Y0082321D03*
X0097079Y0084290D03*
X0097079Y0086258D03*
X0097079Y0088227D03*
X0063614Y0088227D03*
X0063614Y0086258D03*
X0063614Y0084290D03*
X0063614Y0082321D03*
X0063614Y0080353D03*
X0063614Y0078384D03*
X0063614Y0076416D03*
X0063614Y0074447D03*
X0063614Y0072479D03*
X0063614Y0070510D03*
X0063614Y0068542D03*
X0063614Y0066573D03*
D20*
X0032075Y0094282D03*
X0032075Y0096841D03*
X0032075Y0099400D03*
X0032075Y0101959D03*
X0032075Y0104518D03*
D21*
X0030008Y0106880D03*
X0030008Y0091920D03*
D22*
X0021346Y0084896D03*
X0021346Y0113904D03*
D23*
X0021346Y0099400D03*
D24*
X0041346Y0116400D03*
X0051346Y0116400D03*
X0048346Y0158400D03*
X0038346Y0158400D03*
X0028346Y0158400D03*
X0058346Y0158400D03*
X0075346Y0159400D03*
X0085346Y0159400D03*
X0109346Y0159400D03*
X0119346Y0159400D03*
X0145346Y0151400D03*
X0145346Y0141400D03*
X0145346Y0131400D03*
X0145346Y0121400D03*
X0145346Y0111400D03*
X0145346Y0101400D03*
X0145346Y0091400D03*
X0145346Y0081400D03*
X0145346Y0071400D03*
X0145346Y0061400D03*
X0145346Y0051400D03*
X0145346Y0041400D03*
X0145346Y0031400D03*
X0145346Y0021400D03*
X0124846Y0013400D03*
X0114846Y0013400D03*
X0091846Y0013400D03*
X0081846Y0013400D03*
D25*
X0106846Y0115300D03*
X0111846Y0115300D03*
X0116846Y0115300D03*
X0121846Y0115300D03*
X0121846Y0139500D03*
X0116846Y0139500D03*
X0111846Y0139500D03*
X0106846Y0139500D03*
D26*
X0182346Y0136557D03*
X0182346Y0156243D03*
X0182346Y0116243D03*
X0182346Y0096557D03*
X0182346Y0076243D03*
X0182346Y0056557D03*
X0182346Y0036243D03*
X0182346Y0016557D03*
D27*
X0172504Y0012620D03*
X0172504Y0040180D03*
X0172504Y0052620D03*
X0172504Y0080180D03*
X0172504Y0092620D03*
X0172504Y0120180D03*
X0172504Y0132620D03*
X0172504Y0160180D03*
D28*
X0045087Y0018337D03*
X0037606Y0018337D03*
X0041346Y0010069D03*
D29*
X0053563Y0016900D03*
X0068130Y0016900D03*
D30*
X0045087Y0026900D03*
X0037606Y0026900D03*
D31*
X0081346Y0054453D03*
X0084346Y0067339D03*
X0075607Y0067400D03*
X0103277Y0091470D03*
X0150346Y0106400D03*
X0182346Y0086400D03*
X0150346Y0066400D03*
X0150346Y0036400D03*
X0150346Y0146400D03*
M02*
