G75*
%MOIN*%
%OFA0B0*%
%FSLAX25Y25*%
%IPPOS*%
%LPD*%
%AMOC8*
5,1,8,0,0,1.08239X$1,22.5*
%
%ADD10C,0.00500*%
%ADD11C,0.00400*%
%ADD12C,0.01200*%
%ADD13C,0.00800*%
%ADD14R,0.00750X0.03500*%
%ADD15C,0.00600*%
%ADD16C,0.00300*%
%ADD17C,0.00900*%
%ADD18C,0.02362*%
%ADD19C,0.01000*%
%ADD20C,0.00200*%
%ADD21R,0.03500X0.00750*%
%ADD22R,0.00787X0.03937*%
D10*
X0043594Y0033841D02*
X0043594Y0034742D01*
X0044045Y0035192D01*
X0045846Y0033391D01*
X0046296Y0033841D01*
X0046296Y0034742D01*
X0045846Y0035192D01*
X0044045Y0035192D01*
X0043594Y0033841D02*
X0044045Y0033391D01*
X0045846Y0033391D01*
X0045846Y0036337D02*
X0045846Y0036788D01*
X0046296Y0036788D01*
X0046296Y0036337D01*
X0045846Y0036337D01*
X0046296Y0037810D02*
X0046296Y0039612D01*
X0046296Y0038711D02*
X0043594Y0038711D01*
X0044495Y0037810D01*
X0044495Y0040757D02*
X0045846Y0040757D01*
X0046296Y0041207D01*
X0046296Y0042559D01*
X0044495Y0042559D01*
X0044945Y0043703D02*
X0044945Y0044604D01*
X0043594Y0043703D02*
X0043594Y0045505D01*
X0043594Y0043703D02*
X0046296Y0043703D01*
X0052768Y0043971D02*
X0052768Y0045773D01*
X0054119Y0044872D02*
X0054119Y0043971D01*
X0054119Y0042826D02*
X0055020Y0042826D01*
X0055470Y0042376D01*
X0055470Y0041025D01*
X0056371Y0041025D02*
X0053669Y0041025D01*
X0053669Y0042376D01*
X0054119Y0042826D01*
X0055470Y0043971D02*
X0052768Y0043971D01*
X0052768Y0039880D02*
X0052768Y0038078D01*
X0054119Y0038078D01*
X0053669Y0038979D01*
X0053669Y0039429D01*
X0054119Y0039880D01*
X0055020Y0039880D01*
X0055470Y0039429D01*
X0055470Y0038529D01*
X0055020Y0038078D01*
X0055020Y0037055D02*
X0055470Y0037055D01*
X0055470Y0036605D01*
X0055020Y0036605D01*
X0055020Y0037055D01*
X0055470Y0035460D02*
X0055470Y0033659D01*
X0053669Y0035460D01*
X0053219Y0035460D01*
X0052768Y0035010D01*
X0052768Y0034109D01*
X0053219Y0033659D01*
X0052768Y0031613D02*
X0055470Y0031613D01*
X0055470Y0030712D02*
X0055470Y0032514D01*
X0053669Y0030712D02*
X0052768Y0031613D01*
X0059097Y0046732D02*
X0069468Y0046732D01*
X0069533Y0046734D01*
X0069597Y0046740D01*
X0069661Y0046749D01*
X0069725Y0046762D01*
X0069787Y0046779D01*
X0069849Y0046799D01*
X0069909Y0046823D01*
X0069968Y0046850D01*
X0070025Y0046881D01*
X0070080Y0046915D01*
X0070133Y0046952D01*
X0070183Y0046992D01*
X0070232Y0047035D01*
X0070278Y0047081D01*
X0070321Y0047130D01*
X0070361Y0047180D01*
X0070398Y0047233D01*
X0070432Y0047289D01*
X0070463Y0047345D01*
X0070490Y0047404D01*
X0070514Y0047464D01*
X0070534Y0047526D01*
X0070551Y0047588D01*
X0070564Y0047652D01*
X0070573Y0047716D01*
X0070579Y0047780D01*
X0070581Y0047845D01*
X0070582Y0047845D02*
X0070582Y0050999D01*
X0070580Y0051069D01*
X0070574Y0051138D01*
X0070564Y0051208D01*
X0070551Y0051276D01*
X0070533Y0051344D01*
X0070512Y0051410D01*
X0070487Y0051475D01*
X0070459Y0051539D01*
X0070427Y0051601D01*
X0070391Y0051661D01*
X0070352Y0051719D01*
X0070310Y0051775D01*
X0070265Y0051829D01*
X0070217Y0051879D01*
X0070167Y0051927D01*
X0070113Y0051972D01*
X0070057Y0052014D01*
X0069999Y0052053D01*
X0069939Y0052089D01*
X0069877Y0052121D01*
X0069813Y0052149D01*
X0069748Y0052174D01*
X0069682Y0052195D01*
X0069614Y0052213D01*
X0069546Y0052226D01*
X0069476Y0052236D01*
X0069407Y0052242D01*
X0069337Y0052244D01*
X0058864Y0052244D01*
X0058806Y0052242D01*
X0058749Y0052236D01*
X0058692Y0052227D01*
X0058636Y0052214D01*
X0058581Y0052197D01*
X0058527Y0052177D01*
X0058475Y0052153D01*
X0058424Y0052126D01*
X0058375Y0052096D01*
X0058328Y0052062D01*
X0058284Y0052026D01*
X0058242Y0051986D01*
X0058202Y0051944D01*
X0058166Y0051900D01*
X0058132Y0051853D01*
X0058102Y0051804D01*
X0058075Y0051753D01*
X0058051Y0051701D01*
X0058031Y0051647D01*
X0058014Y0051592D01*
X0058001Y0051536D01*
X0057992Y0051479D01*
X0057986Y0051422D01*
X0057984Y0051364D01*
X0057983Y0051364D02*
X0057983Y0047845D01*
X0057984Y0047845D02*
X0057986Y0047780D01*
X0057992Y0047716D01*
X0058001Y0047652D01*
X0058014Y0047588D01*
X0058031Y0047526D01*
X0058051Y0047464D01*
X0058075Y0047404D01*
X0058102Y0047345D01*
X0058133Y0047289D01*
X0058167Y0047233D01*
X0058204Y0047180D01*
X0058244Y0047130D01*
X0058287Y0047081D01*
X0058333Y0047035D01*
X0058382Y0046992D01*
X0058432Y0046952D01*
X0058485Y0046915D01*
X0058541Y0046881D01*
X0058597Y0046850D01*
X0058656Y0046823D01*
X0058716Y0046799D01*
X0058778Y0046779D01*
X0058840Y0046762D01*
X0058904Y0046749D01*
X0058968Y0046740D01*
X0059032Y0046734D01*
X0059097Y0046732D01*
X0060345Y0047913D02*
X0068219Y0047913D01*
X0068285Y0047915D01*
X0068351Y0047920D01*
X0068417Y0047930D01*
X0068482Y0047943D01*
X0068546Y0047959D01*
X0068609Y0047979D01*
X0068671Y0048003D01*
X0068731Y0048030D01*
X0068790Y0048060D01*
X0068847Y0048094D01*
X0068902Y0048131D01*
X0068955Y0048171D01*
X0069006Y0048213D01*
X0069054Y0048259D01*
X0069100Y0048307D01*
X0069142Y0048358D01*
X0069182Y0048411D01*
X0069219Y0048466D01*
X0069253Y0048523D01*
X0069283Y0048582D01*
X0069310Y0048642D01*
X0069334Y0048704D01*
X0069354Y0048767D01*
X0069370Y0048831D01*
X0069383Y0048896D01*
X0069393Y0048962D01*
X0069398Y0049028D01*
X0069400Y0049094D01*
X0069401Y0049094D02*
X0069401Y0049882D01*
X0069400Y0049881D02*
X0069398Y0049950D01*
X0069392Y0050018D01*
X0069382Y0050086D01*
X0069368Y0050154D01*
X0069350Y0050220D01*
X0069329Y0050285D01*
X0069303Y0050349D01*
X0069274Y0050411D01*
X0069242Y0050472D01*
X0069206Y0050530D01*
X0069166Y0050586D01*
X0069124Y0050640D01*
X0069078Y0050691D01*
X0069029Y0050740D01*
X0068978Y0050786D01*
X0068924Y0050828D01*
X0068868Y0050868D01*
X0068810Y0050904D01*
X0068749Y0050936D01*
X0068687Y0050965D01*
X0068623Y0050991D01*
X0068558Y0051012D01*
X0068492Y0051030D01*
X0068424Y0051044D01*
X0068356Y0051054D01*
X0068288Y0051060D01*
X0068219Y0051062D01*
X0068219Y0051063D02*
X0059952Y0051063D01*
X0059893Y0051049D01*
X0059834Y0051032D01*
X0059777Y0051011D01*
X0059722Y0050987D01*
X0059668Y0050960D01*
X0059615Y0050929D01*
X0059565Y0050895D01*
X0059517Y0050859D01*
X0059471Y0050819D01*
X0059427Y0050777D01*
X0059387Y0050732D01*
X0059349Y0050685D01*
X0059313Y0050635D01*
X0059281Y0050584D01*
X0059252Y0050531D01*
X0059227Y0050476D01*
X0059205Y0050419D01*
X0059186Y0050362D01*
X0059170Y0050303D01*
X0059159Y0050244D01*
X0059150Y0050184D01*
X0059146Y0050123D01*
X0059145Y0050063D01*
X0059148Y0050002D01*
X0059154Y0049942D01*
X0059165Y0049882D01*
X0059164Y0049882D02*
X0059164Y0048701D01*
X0059164Y0048700D02*
X0059179Y0048639D01*
X0059197Y0048578D01*
X0059219Y0048519D01*
X0059244Y0048461D01*
X0059274Y0048406D01*
X0059306Y0048352D01*
X0059342Y0048300D01*
X0059381Y0048250D01*
X0059423Y0048203D01*
X0059468Y0048159D01*
X0059516Y0048118D01*
X0059566Y0048080D01*
X0059619Y0048045D01*
X0059673Y0048013D01*
X0059730Y0047985D01*
X0059788Y0047960D01*
X0059847Y0047939D01*
X0059908Y0047922D01*
X0059970Y0047909D01*
X0060032Y0047900D01*
X0060095Y0047894D01*
X0060158Y0047893D01*
X0060221Y0047896D01*
X0060284Y0047902D01*
X0060346Y0047912D01*
X0075705Y0030321D02*
X0074804Y0029420D01*
X0075705Y0030321D02*
X0075705Y0027619D01*
X0074804Y0027619D02*
X0076606Y0027619D01*
X0077751Y0028069D02*
X0077751Y0029420D01*
X0077751Y0028069D02*
X0078201Y0027619D01*
X0079552Y0027619D01*
X0079552Y0029420D01*
X0080697Y0028970D02*
X0081598Y0028970D01*
X0080697Y0030321D02*
X0082499Y0030321D01*
X0080697Y0030321D02*
X0080697Y0027619D01*
X0039986Y0061302D02*
X0039986Y0063104D01*
X0039986Y0062203D02*
X0037283Y0062203D01*
X0038184Y0061302D01*
X0037734Y0064249D02*
X0037283Y0064699D01*
X0037283Y0065600D01*
X0037734Y0066050D01*
X0039535Y0064249D01*
X0039986Y0064699D01*
X0039986Y0065600D01*
X0039535Y0066050D01*
X0037734Y0066050D01*
X0037734Y0064249D02*
X0039535Y0064249D01*
X0040886Y0067195D02*
X0040436Y0067646D01*
X0039535Y0067646D01*
X0039986Y0068096D01*
X0039986Y0068546D01*
X0039535Y0068997D01*
X0038634Y0068997D01*
X0038634Y0070142D02*
X0038634Y0071043D01*
X0037283Y0070142D02*
X0037283Y0071943D01*
X0037283Y0070142D02*
X0039986Y0070142D01*
X0039535Y0067646D02*
X0038634Y0067646D01*
X0046431Y0088158D02*
X0045530Y0089059D01*
X0048232Y0089059D01*
X0048232Y0088158D02*
X0048232Y0089960D01*
X0047782Y0091105D02*
X0046431Y0091105D01*
X0047782Y0091105D02*
X0048232Y0091555D01*
X0048232Y0092906D01*
X0046431Y0092906D01*
X0046881Y0094051D02*
X0046881Y0094952D01*
X0045530Y0094051D02*
X0045530Y0095853D01*
X0045530Y0094051D02*
X0048232Y0094051D01*
X0059859Y0110132D02*
X0059859Y0126668D01*
X0070882Y0126668D01*
X0070882Y0110132D01*
X0059859Y0110132D01*
X0064583Y0114069D02*
X0066158Y0114069D01*
X0066253Y0114071D01*
X0066348Y0114077D01*
X0066443Y0114086D01*
X0066537Y0114100D01*
X0066630Y0114117D01*
X0066723Y0114138D01*
X0066815Y0114162D01*
X0066906Y0114191D01*
X0066996Y0114222D01*
X0067084Y0114258D01*
X0067171Y0114297D01*
X0067256Y0114340D01*
X0067339Y0114385D01*
X0067420Y0114435D01*
X0067500Y0114487D01*
X0067577Y0114543D01*
X0067652Y0114601D01*
X0067724Y0114663D01*
X0067794Y0114728D01*
X0067861Y0114795D01*
X0067926Y0114865D01*
X0067988Y0114937D01*
X0068046Y0115012D01*
X0068102Y0115089D01*
X0068154Y0115169D01*
X0068204Y0115250D01*
X0068249Y0115333D01*
X0068292Y0115418D01*
X0068331Y0115505D01*
X0068367Y0115593D01*
X0068398Y0115683D01*
X0068427Y0115774D01*
X0068451Y0115866D01*
X0068472Y0115959D01*
X0068489Y0116052D01*
X0068503Y0116146D01*
X0068512Y0116241D01*
X0068518Y0116336D01*
X0068520Y0116431D01*
X0068520Y0120369D01*
X0068518Y0120464D01*
X0068512Y0120559D01*
X0068503Y0120654D01*
X0068489Y0120748D01*
X0068472Y0120841D01*
X0068451Y0120934D01*
X0068427Y0121026D01*
X0068398Y0121117D01*
X0068367Y0121207D01*
X0068331Y0121295D01*
X0068292Y0121382D01*
X0068249Y0121467D01*
X0068204Y0121550D01*
X0068154Y0121631D01*
X0068102Y0121711D01*
X0068046Y0121788D01*
X0067988Y0121863D01*
X0067926Y0121935D01*
X0067861Y0122005D01*
X0067794Y0122072D01*
X0067724Y0122137D01*
X0067652Y0122199D01*
X0067577Y0122257D01*
X0067500Y0122313D01*
X0067420Y0122365D01*
X0067339Y0122415D01*
X0067256Y0122460D01*
X0067171Y0122503D01*
X0067084Y0122542D01*
X0066996Y0122578D01*
X0066906Y0122609D01*
X0066815Y0122638D01*
X0066723Y0122662D01*
X0066630Y0122683D01*
X0066537Y0122700D01*
X0066443Y0122714D01*
X0066348Y0122723D01*
X0066253Y0122729D01*
X0066158Y0122731D01*
X0064583Y0122731D01*
X0064488Y0122729D01*
X0064393Y0122723D01*
X0064298Y0122714D01*
X0064204Y0122700D01*
X0064111Y0122683D01*
X0064018Y0122662D01*
X0063926Y0122638D01*
X0063835Y0122609D01*
X0063745Y0122578D01*
X0063657Y0122542D01*
X0063570Y0122503D01*
X0063485Y0122460D01*
X0063402Y0122415D01*
X0063321Y0122365D01*
X0063241Y0122313D01*
X0063164Y0122257D01*
X0063089Y0122199D01*
X0063017Y0122137D01*
X0062947Y0122072D01*
X0062880Y0122005D01*
X0062815Y0121935D01*
X0062753Y0121863D01*
X0062695Y0121788D01*
X0062639Y0121711D01*
X0062587Y0121631D01*
X0062537Y0121550D01*
X0062492Y0121467D01*
X0062449Y0121382D01*
X0062410Y0121295D01*
X0062374Y0121207D01*
X0062343Y0121117D01*
X0062314Y0121026D01*
X0062290Y0120934D01*
X0062269Y0120841D01*
X0062252Y0120748D01*
X0062238Y0120654D01*
X0062229Y0120559D01*
X0062223Y0120464D01*
X0062221Y0120369D01*
X0062221Y0116431D01*
X0062223Y0116336D01*
X0062229Y0116241D01*
X0062238Y0116146D01*
X0062252Y0116052D01*
X0062269Y0115959D01*
X0062290Y0115866D01*
X0062314Y0115774D01*
X0062343Y0115683D01*
X0062374Y0115593D01*
X0062410Y0115505D01*
X0062449Y0115418D01*
X0062492Y0115333D01*
X0062537Y0115250D01*
X0062587Y0115169D01*
X0062639Y0115089D01*
X0062695Y0115012D01*
X0062753Y0114937D01*
X0062815Y0114865D01*
X0062880Y0114795D01*
X0062947Y0114728D01*
X0063017Y0114663D01*
X0063089Y0114601D01*
X0063164Y0114543D01*
X0063241Y0114487D01*
X0063321Y0114435D01*
X0063402Y0114385D01*
X0063485Y0114340D01*
X0063570Y0114297D01*
X0063657Y0114258D01*
X0063745Y0114222D01*
X0063835Y0114191D01*
X0063926Y0114162D01*
X0064018Y0114138D01*
X0064111Y0114117D01*
X0064204Y0114100D01*
X0064298Y0114086D01*
X0064393Y0114077D01*
X0064488Y0114071D01*
X0064583Y0114069D01*
X0071593Y0111807D02*
X0071593Y0110056D01*
X0075096Y0110056D01*
X0073929Y0110056D02*
X0073929Y0111807D01*
X0073345Y0112391D01*
X0072177Y0112391D01*
X0071593Y0111807D01*
X0073929Y0111224D02*
X0075096Y0112391D01*
X0074513Y0113739D02*
X0073345Y0113739D01*
X0072761Y0114323D01*
X0072761Y0115491D01*
X0073345Y0116074D01*
X0073929Y0116074D01*
X0073929Y0113739D01*
X0074513Y0113739D02*
X0075096Y0114323D01*
X0075096Y0115491D01*
X0075096Y0117422D02*
X0075096Y0119174D01*
X0074513Y0119758D01*
X0073929Y0119174D01*
X0073929Y0118006D01*
X0073345Y0117422D01*
X0072761Y0118006D01*
X0072761Y0119758D01*
X0073345Y0121105D02*
X0072761Y0121689D01*
X0072761Y0122857D01*
X0073345Y0123441D01*
X0073929Y0123441D01*
X0073929Y0121105D01*
X0074513Y0121105D02*
X0073345Y0121105D01*
X0074513Y0121105D02*
X0075096Y0121689D01*
X0075096Y0122857D01*
X0074513Y0125372D02*
X0072177Y0125372D01*
X0072761Y0124789D02*
X0072761Y0125956D01*
X0074513Y0125372D02*
X0075096Y0125956D01*
X0057837Y0137128D02*
X0056936Y0137128D01*
X0055791Y0137128D02*
X0055791Y0136227D01*
X0055341Y0135777D01*
X0054890Y0135777D01*
X0054440Y0136227D01*
X0054440Y0135327D01*
X0053989Y0134876D01*
X0054440Y0136227D02*
X0054440Y0137128D01*
X0052845Y0138029D02*
X0052845Y0136227D01*
X0052394Y0135777D01*
X0051493Y0135777D01*
X0051043Y0136227D01*
X0052845Y0138029D01*
X0052394Y0138479D01*
X0051493Y0138479D01*
X0051043Y0138029D01*
X0051043Y0136227D01*
X0049898Y0135777D02*
X0048096Y0135777D01*
X0048997Y0135777D02*
X0048997Y0138479D01*
X0048096Y0137579D01*
X0056936Y0138479D02*
X0056936Y0135777D01*
X0056936Y0138479D02*
X0058738Y0138479D01*
X0033206Y0139150D02*
X0033206Y0140501D01*
X0032756Y0140952D01*
X0032305Y0140952D01*
X0031855Y0140501D01*
X0031855Y0139150D01*
X0033206Y0139150D02*
X0030504Y0139150D01*
X0030504Y0140501D01*
X0030954Y0140952D01*
X0031404Y0140952D01*
X0031855Y0140501D01*
X0030504Y0142097D02*
X0033206Y0142097D01*
X0033206Y0143898D01*
X0023153Y0152110D02*
X0021801Y0153461D01*
X0021351Y0153011D02*
X0023153Y0154812D01*
X0021351Y0154812D02*
X0021351Y0152110D01*
X0020206Y0152110D02*
X0018404Y0152110D01*
X0020206Y0153912D01*
X0020206Y0154362D01*
X0019756Y0154812D01*
X0018855Y0154812D01*
X0018404Y0154362D01*
X0099593Y0154601D02*
X0103096Y0154601D01*
X0103096Y0156936D01*
X0103096Y0158284D02*
X0099593Y0158284D01*
X0099593Y0156936D02*
X0099593Y0154601D01*
X0099593Y0153253D02*
X0100177Y0153253D01*
X0101345Y0152085D01*
X0103096Y0152085D01*
X0101345Y0152085D02*
X0100177Y0150917D01*
X0099593Y0150917D01*
X0101345Y0154601D02*
X0101345Y0155768D01*
X0103096Y0158284D02*
X0103096Y0160619D01*
X0101345Y0161967D02*
X0101345Y0164302D01*
X0100177Y0163134D02*
X0102513Y0163134D01*
X0125593Y0160035D02*
X0125593Y0158284D01*
X0129096Y0158284D01*
X0129096Y0160035D01*
X0128513Y0160619D01*
X0126177Y0160619D01*
X0125593Y0160035D01*
X0127345Y0161967D02*
X0127345Y0164302D01*
X0129096Y0156936D02*
X0129096Y0154601D01*
X0125593Y0154601D01*
X0125593Y0156936D01*
X0127345Y0155768D02*
X0127345Y0154601D01*
X0127345Y0153253D02*
X0127929Y0152669D01*
X0127929Y0150917D01*
X0129096Y0150917D02*
X0125593Y0150917D01*
X0125593Y0152669D01*
X0126177Y0153253D01*
X0127345Y0153253D01*
X0127929Y0152085D02*
X0129096Y0153253D01*
D11*
X0155077Y0107588D02*
X0156612Y0105286D01*
X0158146Y0107588D01*
X0158146Y0105286D02*
X0153543Y0105286D01*
X0154310Y0103751D02*
X0157379Y0100682D01*
X0158146Y0101449D01*
X0158146Y0102984D01*
X0157379Y0103751D01*
X0154310Y0103751D01*
X0153543Y0102984D01*
X0153543Y0101449D01*
X0154310Y0100682D01*
X0157379Y0100682D01*
X0158146Y0099147D02*
X0158146Y0096078D01*
X0158146Y0097612D02*
X0153543Y0097612D01*
X0155077Y0096078D01*
X0167543Y0097996D02*
X0167543Y0100298D01*
X0168310Y0101065D01*
X0169845Y0101065D01*
X0170612Y0100298D01*
X0170612Y0097996D01*
X0172146Y0097996D02*
X0167543Y0097996D01*
X0170612Y0099531D02*
X0172146Y0101065D01*
X0169845Y0102600D02*
X0169845Y0105669D01*
X0172146Y0104902D02*
X0167543Y0104902D01*
X0169845Y0102600D01*
X0158146Y0068088D02*
X0156612Y0065786D01*
X0155077Y0068088D01*
X0153543Y0065786D02*
X0158146Y0065786D01*
X0157379Y0064251D02*
X0158146Y0063484D01*
X0158146Y0061949D01*
X0157379Y0061182D01*
X0154310Y0064251D01*
X0157379Y0064251D01*
X0154310Y0064251D02*
X0153543Y0063484D01*
X0153543Y0061949D01*
X0154310Y0061182D01*
X0157379Y0061182D01*
X0158146Y0059647D02*
X0158146Y0056578D01*
X0158146Y0058112D02*
X0153543Y0058112D01*
X0155077Y0056578D01*
X0167543Y0058496D02*
X0167543Y0060798D01*
X0168310Y0061565D01*
X0169845Y0061565D01*
X0170612Y0060798D01*
X0170612Y0058496D01*
X0172146Y0058496D02*
X0167543Y0058496D01*
X0170612Y0060031D02*
X0172146Y0061565D01*
X0171379Y0063100D02*
X0172146Y0063867D01*
X0172146Y0065402D01*
X0171379Y0066169D01*
X0169845Y0066169D01*
X0169077Y0065402D01*
X0169077Y0064635D01*
X0169845Y0063100D01*
X0167543Y0063100D01*
X0167543Y0066169D01*
X0157646Y0028088D02*
X0156112Y0025786D01*
X0154577Y0028088D01*
X0153043Y0025786D02*
X0157646Y0025786D01*
X0156879Y0024251D02*
X0157646Y0023484D01*
X0157646Y0021949D01*
X0156879Y0021182D01*
X0153810Y0024251D01*
X0156879Y0024251D01*
X0153810Y0024251D02*
X0153043Y0023484D01*
X0153043Y0021949D01*
X0153810Y0021182D01*
X0156879Y0021182D01*
X0157646Y0019647D02*
X0157646Y0016578D01*
X0157646Y0018112D02*
X0153043Y0018112D01*
X0154577Y0016578D01*
X0167043Y0018496D02*
X0167043Y0020798D01*
X0167810Y0021565D01*
X0169345Y0021565D01*
X0170112Y0020798D01*
X0170112Y0018496D01*
X0171646Y0018496D02*
X0167043Y0018496D01*
X0170112Y0020031D02*
X0171646Y0021565D01*
X0170879Y0023100D02*
X0169345Y0023100D01*
X0169345Y0025402D01*
X0170112Y0026169D01*
X0170879Y0026169D01*
X0171646Y0025402D01*
X0171646Y0023867D01*
X0170879Y0023100D01*
X0169345Y0023100D02*
X0167810Y0024635D01*
X0167043Y0026169D01*
X0059948Y0163000D02*
X0059014Y0163000D01*
X0058546Y0163467D01*
X0058546Y0164401D01*
X0059948Y0164401D01*
X0060415Y0163934D01*
X0060415Y0163467D01*
X0059948Y0163000D01*
X0058546Y0164401D02*
X0059481Y0165335D01*
X0060415Y0165802D01*
X0057468Y0165335D02*
X0057468Y0163467D01*
X0057001Y0163000D01*
X0055600Y0163000D01*
X0055600Y0165802D01*
X0057001Y0165802D01*
X0057468Y0165335D01*
X0050415Y0165335D02*
X0048546Y0163467D01*
X0048546Y0163000D01*
X0047468Y0163467D02*
X0047468Y0165335D01*
X0047001Y0165802D01*
X0045600Y0165802D01*
X0045600Y0163000D01*
X0047001Y0163000D01*
X0047468Y0163467D01*
X0048546Y0165802D02*
X0050415Y0165802D01*
X0050415Y0165335D01*
X0041888Y0164868D02*
X0041888Y0163000D01*
X0041888Y0164401D02*
X0040020Y0164401D01*
X0040020Y0164868D02*
X0040954Y0165802D01*
X0041888Y0164868D01*
X0040020Y0164868D02*
X0040020Y0163000D01*
X0038941Y0163467D02*
X0038941Y0165335D01*
X0038474Y0165802D01*
X0037073Y0165802D01*
X0037073Y0163000D01*
X0038474Y0163000D01*
X0038941Y0163467D01*
X0035995Y0163467D02*
X0035528Y0163000D01*
X0034594Y0163000D01*
X0034127Y0163467D01*
X0034594Y0164401D02*
X0035528Y0164401D01*
X0035995Y0163934D01*
X0035995Y0163467D01*
X0034594Y0164401D02*
X0034127Y0164868D01*
X0034127Y0165335D01*
X0034594Y0165802D01*
X0035528Y0165802D01*
X0035995Y0165335D01*
X0031888Y0163000D02*
X0030020Y0163000D01*
X0030020Y0165802D01*
X0028941Y0165335D02*
X0028474Y0165802D01*
X0027540Y0165802D01*
X0027073Y0165335D01*
X0027073Y0163467D01*
X0027540Y0163000D01*
X0028474Y0163000D01*
X0028941Y0163467D01*
X0025995Y0163467D02*
X0025528Y0163000D01*
X0024594Y0163000D01*
X0024127Y0163467D01*
X0024594Y0164401D02*
X0025528Y0164401D01*
X0025995Y0163934D01*
X0025995Y0163467D01*
X0024594Y0164401D02*
X0024127Y0164868D01*
X0024127Y0165335D01*
X0024594Y0165802D01*
X0025528Y0165802D01*
X0025995Y0165335D01*
D12*
X0022654Y0149860D02*
X0022654Y0145860D01*
X0040894Y0141121D02*
X0040894Y0137121D01*
X0040846Y0132900D02*
X0040846Y0128900D01*
X0033157Y0115148D02*
X0033157Y0111211D01*
X0033086Y0115120D02*
X0029220Y0115120D01*
X0029220Y0115148D01*
X0022846Y0123900D02*
X0022846Y0127900D01*
X0017409Y0115148D02*
X0013472Y0115148D01*
X0033157Y0087589D02*
X0033157Y0083652D01*
X0029220Y0083652D01*
X0024782Y0076464D02*
X0024782Y0072464D01*
X0017409Y0083652D02*
X0013472Y0083652D01*
X0042982Y0080408D02*
X0046982Y0080408D01*
X0045408Y0053679D02*
X0041408Y0053679D01*
X0037946Y0053648D02*
X0033946Y0053648D01*
X0057972Y0037338D02*
X0061972Y0037338D01*
X0066590Y0037392D02*
X0070590Y0037392D01*
X0075815Y0037192D02*
X0079815Y0037192D01*
X0081346Y0140400D02*
X0081346Y0144400D01*
X0095346Y0139400D02*
X0099346Y0139400D01*
D13*
X0099378Y0131201D02*
X0098811Y0131201D01*
X0098244Y0130634D01*
X0098244Y0129500D01*
X0098811Y0128933D01*
X0098811Y0127334D02*
X0098244Y0126767D01*
X0098244Y0125633D01*
X0098811Y0125065D01*
X0101079Y0125065D01*
X0101646Y0125633D01*
X0101646Y0126767D01*
X0101079Y0127334D01*
X0101079Y0128933D02*
X0101646Y0129500D01*
X0101646Y0130634D01*
X0101079Y0131201D01*
X0100512Y0131201D01*
X0099945Y0130634D01*
X0099945Y0130067D01*
X0099945Y0130634D02*
X0099378Y0131201D01*
X0120881Y0131300D02*
X0120883Y0131347D01*
X0120889Y0131394D01*
X0120899Y0131441D01*
X0120912Y0131486D01*
X0120930Y0131530D01*
X0120951Y0131572D01*
X0120975Y0131613D01*
X0121003Y0131651D01*
X0121034Y0131687D01*
X0121068Y0131720D01*
X0121104Y0131750D01*
X0121143Y0131777D01*
X0121184Y0131801D01*
X0121227Y0131821D01*
X0121271Y0131837D01*
X0121317Y0131850D01*
X0121363Y0131859D01*
X0121411Y0131864D01*
X0121458Y0131865D01*
X0121505Y0131862D01*
X0121552Y0131855D01*
X0121598Y0131844D01*
X0121643Y0131830D01*
X0121687Y0131811D01*
X0121728Y0131789D01*
X0121768Y0131764D01*
X0121806Y0131735D01*
X0121841Y0131704D01*
X0121874Y0131669D01*
X0121903Y0131632D01*
X0121929Y0131593D01*
X0121952Y0131551D01*
X0121971Y0131508D01*
X0121987Y0131463D01*
X0121999Y0131417D01*
X0122007Y0131371D01*
X0122011Y0131324D01*
X0122011Y0131276D01*
X0122007Y0131229D01*
X0121999Y0131183D01*
X0121987Y0131137D01*
X0121971Y0131092D01*
X0121952Y0131049D01*
X0121929Y0131007D01*
X0121903Y0130968D01*
X0121874Y0130931D01*
X0121841Y0130896D01*
X0121806Y0130865D01*
X0121768Y0130836D01*
X0121729Y0130811D01*
X0121687Y0130789D01*
X0121643Y0130770D01*
X0121598Y0130756D01*
X0121552Y0130745D01*
X0121505Y0130738D01*
X0121458Y0130735D01*
X0121411Y0130736D01*
X0121363Y0130741D01*
X0121317Y0130750D01*
X0121271Y0130763D01*
X0121227Y0130779D01*
X0121184Y0130799D01*
X0121143Y0130823D01*
X0121104Y0130850D01*
X0121068Y0130880D01*
X0121034Y0130913D01*
X0121003Y0130949D01*
X0120975Y0130987D01*
X0120951Y0131028D01*
X0120930Y0131070D01*
X0120912Y0131114D01*
X0120899Y0131159D01*
X0120889Y0131206D01*
X0120883Y0131253D01*
X0120881Y0131300D01*
X0121846Y0154400D02*
X0116846Y0154400D01*
X0114346Y0156900D01*
X0111846Y0154400D01*
X0106846Y0154400D01*
X0104346Y0156900D01*
X0104346Y0161900D01*
X0106846Y0164400D01*
X0111846Y0164400D01*
X0114346Y0161900D01*
X0116846Y0164400D01*
X0121846Y0164400D01*
X0124346Y0161900D01*
X0124346Y0156900D01*
X0121846Y0154400D01*
X0090346Y0156900D02*
X0090346Y0161900D01*
X0087846Y0164400D01*
X0082846Y0164400D01*
X0080346Y0161900D01*
X0077846Y0164400D01*
X0072846Y0164400D01*
X0070346Y0161900D01*
X0070346Y0156900D01*
X0072846Y0154400D01*
X0077846Y0154400D01*
X0080346Y0156900D01*
X0082846Y0154400D01*
X0087846Y0154400D01*
X0090346Y0156900D01*
X0072648Y0141436D02*
X0072648Y0140869D01*
X0072081Y0140301D01*
X0070946Y0140301D01*
X0070379Y0140869D01*
X0070379Y0141436D01*
X0070946Y0142003D01*
X0072081Y0142003D01*
X0072648Y0141436D01*
X0072081Y0140301D02*
X0072648Y0139734D01*
X0072648Y0139167D01*
X0072081Y0138600D01*
X0070946Y0138600D01*
X0070379Y0139167D01*
X0070379Y0139734D01*
X0070946Y0140301D01*
X0068780Y0140301D02*
X0068780Y0141436D01*
X0068213Y0142003D01*
X0066512Y0142003D01*
X0066512Y0138600D01*
X0066512Y0139734D02*
X0068213Y0139734D01*
X0068780Y0140301D01*
X0067646Y0139734D02*
X0068780Y0138600D01*
X0054382Y0139892D02*
X0054382Y0140459D01*
X0053815Y0141026D01*
X0052114Y0141026D01*
X0052114Y0139892D01*
X0052681Y0139325D01*
X0053815Y0139325D01*
X0054382Y0139892D01*
X0053248Y0142160D02*
X0052114Y0141026D01*
X0053248Y0142160D02*
X0054382Y0142728D01*
X0050515Y0142160D02*
X0049948Y0142728D01*
X0048814Y0142728D01*
X0048246Y0142160D01*
X0048246Y0139892D01*
X0048814Y0139325D01*
X0049948Y0139325D01*
X0050515Y0139892D01*
X0049948Y0134203D02*
X0048246Y0134203D01*
X0048246Y0130800D01*
X0048246Y0131934D02*
X0049948Y0131934D01*
X0050515Y0132501D01*
X0050515Y0133636D01*
X0049948Y0134203D01*
X0052114Y0133636D02*
X0052681Y0134203D01*
X0053815Y0134203D01*
X0054382Y0133636D01*
X0054382Y0133069D01*
X0052114Y0130800D01*
X0054382Y0130800D01*
X0050515Y0130800D02*
X0049381Y0131934D01*
X0048846Y0121400D02*
X0053846Y0121400D01*
X0056346Y0118900D01*
X0056346Y0113900D01*
X0053846Y0111400D01*
X0048846Y0111400D01*
X0046346Y0113900D01*
X0043846Y0111400D01*
X0038846Y0111400D01*
X0036346Y0113900D01*
X0036346Y0118900D01*
X0038846Y0121400D01*
X0043846Y0121400D01*
X0046346Y0118900D01*
X0048846Y0121400D01*
X0033446Y0122300D02*
X0030044Y0122300D01*
X0030044Y0124001D01*
X0030611Y0124569D01*
X0031745Y0124569D01*
X0032312Y0124001D01*
X0032312Y0122300D01*
X0032312Y0123434D02*
X0033446Y0124569D01*
X0032879Y0126167D02*
X0033446Y0126734D01*
X0033446Y0127869D01*
X0032879Y0128436D01*
X0032312Y0128436D01*
X0031745Y0127869D01*
X0031745Y0127302D01*
X0031745Y0127869D02*
X0031178Y0128436D01*
X0030611Y0128436D01*
X0030044Y0127869D01*
X0030044Y0126734D01*
X0030611Y0126167D01*
X0030004Y0144992D02*
X0030004Y0146693D01*
X0030571Y0147261D01*
X0031705Y0147261D01*
X0032272Y0146693D01*
X0032272Y0144992D01*
X0032272Y0146126D02*
X0033406Y0147261D01*
X0033406Y0148859D02*
X0032839Y0148859D01*
X0030571Y0151128D01*
X0030004Y0151128D01*
X0030004Y0148859D01*
X0030004Y0144992D02*
X0033406Y0144992D01*
X0044582Y0094444D02*
X0044582Y0092175D01*
X0044582Y0093310D02*
X0041180Y0093310D01*
X0042314Y0092175D01*
X0041747Y0090577D02*
X0041180Y0090009D01*
X0041180Y0088875D01*
X0041747Y0088308D01*
X0044015Y0088308D01*
X0044582Y0088875D01*
X0044582Y0090009D01*
X0044015Y0090577D01*
X0035482Y0077505D02*
X0035482Y0075236D01*
X0035482Y0076370D02*
X0032080Y0076370D01*
X0033214Y0075236D01*
X0032647Y0073637D02*
X0033781Y0073637D01*
X0034348Y0073070D01*
X0034348Y0071369D01*
X0034348Y0072503D02*
X0035482Y0073637D01*
X0035482Y0071369D02*
X0032080Y0071369D01*
X0032080Y0073070D01*
X0032647Y0073637D01*
X0033111Y0066936D02*
X0033678Y0066936D01*
X0034245Y0066369D01*
X0034245Y0065234D01*
X0033678Y0064667D01*
X0033111Y0064667D01*
X0032544Y0065234D01*
X0032544Y0066369D01*
X0033111Y0066936D01*
X0034245Y0066369D02*
X0034812Y0066936D01*
X0035379Y0066936D01*
X0035946Y0066369D01*
X0035946Y0065234D01*
X0035379Y0064667D01*
X0034812Y0064667D01*
X0034245Y0065234D01*
X0033111Y0063069D02*
X0032544Y0062501D01*
X0032544Y0061367D01*
X0033111Y0060800D01*
X0035379Y0060800D01*
X0035946Y0061367D01*
X0035946Y0062501D01*
X0035379Y0063069D01*
X0031491Y0065190D02*
X0031491Y0058890D01*
X0029588Y0060627D02*
X0029588Y0062896D01*
X0029021Y0063463D01*
X0027887Y0063463D01*
X0027320Y0062896D01*
X0027320Y0060627D01*
X0027887Y0060060D01*
X0029021Y0060060D01*
X0029588Y0060627D01*
X0025721Y0060627D02*
X0025154Y0060060D01*
X0023452Y0060060D01*
X0023452Y0063463D01*
X0025154Y0063463D01*
X0025721Y0062896D01*
X0025721Y0060627D01*
X0021854Y0060060D02*
X0019585Y0060060D01*
X0019585Y0063463D01*
X0018498Y0065190D02*
X0018498Y0058890D01*
X0023420Y0057906D02*
X0026569Y0057906D01*
X0038744Y0045201D02*
X0039311Y0045201D01*
X0041579Y0042933D01*
X0042146Y0042933D01*
X0041579Y0041334D02*
X0042146Y0040767D01*
X0042146Y0039633D01*
X0041579Y0039065D01*
X0039311Y0039065D01*
X0038744Y0039633D01*
X0038744Y0040767D01*
X0039311Y0041334D01*
X0038744Y0042933D02*
X0038744Y0045201D01*
X0057308Y0029262D02*
X0057308Y0026993D01*
X0057876Y0026426D01*
X0059010Y0026426D01*
X0059577Y0026993D01*
X0061176Y0028127D02*
X0063444Y0028127D01*
X0062877Y0026426D02*
X0062877Y0029829D01*
X0061176Y0028127D01*
X0059577Y0029262D02*
X0059010Y0029829D01*
X0057876Y0029829D01*
X0057308Y0029262D01*
X0065754Y0029380D02*
X0065754Y0027111D01*
X0066322Y0026544D01*
X0067456Y0026544D01*
X0068023Y0027111D01*
X0069622Y0026544D02*
X0071890Y0028813D01*
X0071890Y0029380D01*
X0071323Y0029947D01*
X0070189Y0029947D01*
X0069622Y0029380D01*
X0068023Y0029380D02*
X0067456Y0029947D01*
X0066322Y0029947D01*
X0065754Y0029380D01*
X0069622Y0026544D02*
X0071890Y0026544D01*
X0064283Y0019656D02*
X0057409Y0019656D01*
X0059665Y0018475D02*
X0062028Y0016900D01*
X0059665Y0015325D01*
X0059665Y0018475D01*
X0060059Y0017687D02*
X0061240Y0016900D01*
X0060059Y0016113D01*
X0060059Y0017687D01*
X0060059Y0017363D02*
X0060546Y0017363D01*
X0060737Y0016564D02*
X0060059Y0016564D01*
X0057409Y0014144D02*
X0064283Y0014144D01*
X0076846Y0015900D02*
X0076846Y0010900D01*
X0079346Y0008400D01*
X0084346Y0008400D01*
X0086846Y0010900D01*
X0089346Y0008400D01*
X0094346Y0008400D01*
X0096846Y0010900D01*
X0096846Y0015900D01*
X0094346Y0018400D01*
X0089346Y0018400D01*
X0086846Y0015900D01*
X0084346Y0018400D01*
X0079346Y0018400D01*
X0076846Y0015900D01*
X0046858Y0014794D02*
X0046858Y0011644D01*
X0044496Y0011644D01*
X0038197Y0011644D02*
X0035835Y0011644D01*
X0035835Y0014794D01*
X0033446Y0014634D02*
X0033446Y0013500D01*
X0032879Y0012933D01*
X0030611Y0012933D01*
X0030044Y0013500D01*
X0030044Y0014634D01*
X0030611Y0015201D01*
X0032879Y0015201D01*
X0033446Y0014634D01*
X0033446Y0015201D02*
X0032312Y0014067D01*
X0031178Y0016800D02*
X0030044Y0017934D01*
X0033446Y0017934D01*
X0033446Y0016800D02*
X0033446Y0019069D01*
X0072954Y0044836D02*
X0073522Y0044269D01*
X0074656Y0044269D01*
X0075223Y0044836D01*
X0076822Y0044269D02*
X0079090Y0044269D01*
X0077956Y0044269D02*
X0077956Y0047672D01*
X0076822Y0046537D01*
X0075223Y0047104D02*
X0074656Y0047672D01*
X0073522Y0047672D01*
X0072954Y0047104D01*
X0072954Y0044836D01*
X0080689Y0045970D02*
X0082958Y0045970D01*
X0082390Y0044269D02*
X0082390Y0047672D01*
X0080689Y0045970D01*
X0092657Y0063120D02*
X0094626Y0063120D01*
X0094626Y0065089D01*
X0068035Y0063120D02*
X0066067Y0065089D01*
X0066067Y0089711D02*
X0066067Y0091680D01*
X0068035Y0091680D01*
X0092657Y0091680D02*
X0094626Y0091680D01*
X0094626Y0089711D01*
X0153243Y0137679D02*
X0154644Y0136278D01*
X0153243Y0137679D02*
X0157446Y0137679D01*
X0157446Y0136278D02*
X0157446Y0139080D01*
X0156746Y0140882D02*
X0153943Y0140882D01*
X0153243Y0141582D01*
X0153243Y0142983D01*
X0153943Y0143684D01*
X0156746Y0140882D01*
X0157446Y0141582D01*
X0157446Y0142983D01*
X0156746Y0143684D01*
X0153943Y0143684D01*
X0153243Y0145486D02*
X0157446Y0145486D01*
X0156045Y0145486D02*
X0157446Y0147587D01*
X0156045Y0145486D02*
X0154644Y0147587D01*
X0173972Y0154274D02*
X0173972Y0138526D01*
X0178409Y0131530D02*
X0190720Y0131530D01*
X0190720Y0161270D01*
X0178409Y0161270D01*
X0178409Y0121270D02*
X0190720Y0121270D01*
X0190720Y0091530D01*
X0178409Y0091530D01*
X0173972Y0098526D02*
X0173972Y0114274D01*
X0178409Y0081270D02*
X0190720Y0081270D01*
X0190720Y0051530D01*
X0178409Y0051530D01*
X0173972Y0058526D02*
X0173972Y0074274D01*
X0178409Y0041270D02*
X0190720Y0041270D01*
X0190720Y0011530D01*
X0178409Y0011530D01*
X0173972Y0018526D02*
X0173972Y0034274D01*
X0129846Y0015900D02*
X0129846Y0010900D01*
X0127346Y0008400D01*
X0122346Y0008400D01*
X0119846Y0010900D01*
X0117346Y0008400D01*
X0112346Y0008400D01*
X0109846Y0010900D01*
X0109846Y0015900D01*
X0112346Y0018400D01*
X0117346Y0018400D01*
X0119846Y0015900D01*
X0122346Y0018400D01*
X0127346Y0018400D01*
X0129846Y0015900D01*
D14*
X0023775Y0133400D03*
X0023775Y0140791D03*
D15*
X0023846Y0140791D02*
X0021846Y0139291D01*
X0021846Y0142291D01*
X0023846Y0140791D01*
X0023510Y0141043D02*
X0021846Y0141043D01*
X0021846Y0141641D02*
X0022712Y0141641D01*
X0021914Y0142240D02*
X0021846Y0142240D01*
X0021846Y0140444D02*
X0023385Y0140444D01*
X0022587Y0139846D02*
X0021846Y0139846D01*
X0021846Y0134900D02*
X0021846Y0131900D01*
X0023846Y0133400D01*
X0021846Y0134900D01*
X0021846Y0134459D02*
X0022434Y0134459D01*
X0021846Y0133861D02*
X0023232Y0133861D01*
X0023663Y0133262D02*
X0021846Y0133262D01*
X0021846Y0132664D02*
X0022865Y0132664D01*
X0022067Y0132065D02*
X0021846Y0132065D01*
X0071807Y0088769D02*
X0071807Y0088335D01*
X0072241Y0087901D01*
X0073108Y0087901D01*
X0073542Y0087467D01*
X0073542Y0087034D01*
X0073108Y0086600D01*
X0072241Y0086600D01*
X0071807Y0087034D01*
X0071807Y0088769D02*
X0072241Y0089202D01*
X0073108Y0089202D01*
X0073542Y0088769D01*
X0074753Y0088335D02*
X0075621Y0089202D01*
X0076488Y0088335D01*
X0076488Y0086600D01*
X0077700Y0086600D02*
X0077700Y0089202D01*
X0078567Y0088335D01*
X0079435Y0089202D01*
X0079435Y0086600D01*
X0080646Y0086600D02*
X0081948Y0086600D01*
X0082381Y0087034D01*
X0082381Y0088769D01*
X0081948Y0089202D01*
X0080646Y0089202D01*
X0080646Y0086600D01*
X0083593Y0086600D02*
X0085328Y0088335D01*
X0085328Y0088769D01*
X0084894Y0089202D01*
X0084027Y0089202D01*
X0083593Y0088769D01*
X0083593Y0086600D02*
X0085328Y0086600D01*
X0086539Y0086600D02*
X0088274Y0086600D01*
X0087407Y0086600D02*
X0087407Y0089202D01*
X0086539Y0088335D01*
X0076488Y0087901D02*
X0074753Y0087901D01*
X0074753Y0088335D02*
X0074753Y0086600D01*
X0105047Y0120302D02*
X0105047Y0134498D01*
X0108638Y0134487D02*
X0110016Y0134487D01*
X0113559Y0134487D02*
X0115134Y0134487D01*
X0118677Y0134487D02*
X0120055Y0134487D01*
X0123646Y0134498D02*
X0123646Y0129357D01*
X0123599Y0129369D02*
X0123517Y0129326D01*
X0123438Y0129280D01*
X0123360Y0129230D01*
X0123285Y0129177D01*
X0123212Y0129122D01*
X0123141Y0129063D01*
X0123073Y0129001D01*
X0123007Y0128937D01*
X0122945Y0128870D01*
X0122885Y0128800D01*
X0122828Y0128728D01*
X0122774Y0128653D01*
X0122723Y0128577D01*
X0122675Y0128498D01*
X0122631Y0128417D01*
X0122590Y0128335D01*
X0122553Y0128251D01*
X0122519Y0128165D01*
X0122489Y0128078D01*
X0122463Y0127990D01*
X0122440Y0127901D01*
X0122421Y0127811D01*
X0122405Y0127721D01*
X0122394Y0127629D01*
X0122386Y0127538D01*
X0122382Y0127446D01*
X0122382Y0127354D01*
X0122386Y0127262D01*
X0122394Y0127171D01*
X0122405Y0127079D01*
X0122421Y0126989D01*
X0122440Y0126899D01*
X0122463Y0126810D01*
X0122489Y0126722D01*
X0122519Y0126635D01*
X0122553Y0126549D01*
X0122590Y0126465D01*
X0122631Y0126383D01*
X0122675Y0126302D01*
X0122723Y0126223D01*
X0122774Y0126147D01*
X0122828Y0126072D01*
X0122885Y0126000D01*
X0122945Y0125930D01*
X0123007Y0125863D01*
X0123073Y0125799D01*
X0123141Y0125737D01*
X0123212Y0125678D01*
X0123285Y0125623D01*
X0123360Y0125570D01*
X0123438Y0125520D01*
X0123517Y0125474D01*
X0123599Y0125431D01*
X0123646Y0125443D02*
X0123646Y0120302D01*
X0120055Y0120313D02*
X0118677Y0120313D01*
X0115134Y0120313D02*
X0113559Y0120313D01*
X0110016Y0120313D02*
X0108638Y0120313D01*
X0085846Y0131400D02*
X0082846Y0131400D01*
X0084346Y0129400D01*
X0085846Y0131400D01*
X0085447Y0130868D02*
X0083245Y0130868D01*
X0083694Y0130270D02*
X0084999Y0130270D01*
X0084550Y0129671D02*
X0084143Y0129671D01*
X0018210Y0080755D02*
X0017009Y0078954D01*
X0015808Y0080755D01*
X0014607Y0078954D02*
X0018210Y0078954D01*
X0017610Y0077488D02*
X0018210Y0076888D01*
X0018210Y0075687D01*
X0017610Y0075086D01*
X0015208Y0077488D01*
X0017610Y0077488D01*
X0015208Y0077488D02*
X0014607Y0076888D01*
X0014607Y0075687D01*
X0015208Y0075086D01*
X0017610Y0075086D01*
X0017610Y0073621D02*
X0015208Y0073621D01*
X0017610Y0071219D01*
X0018210Y0071819D01*
X0018210Y0073020D01*
X0017610Y0073621D01*
X0017610Y0071219D02*
X0015208Y0071219D01*
X0014607Y0071819D01*
X0014607Y0073020D01*
X0015208Y0073621D01*
X0018210Y0069754D02*
X0018210Y0067352D01*
X0018210Y0068553D02*
X0014607Y0068553D01*
X0015808Y0067352D01*
X0049144Y0023121D02*
X0051746Y0023121D01*
X0051746Y0023988D02*
X0051746Y0022253D01*
X0051313Y0021042D02*
X0051746Y0020608D01*
X0051746Y0019307D01*
X0049144Y0019307D01*
X0049144Y0020608D01*
X0049578Y0021042D01*
X0051313Y0021042D01*
X0050012Y0022253D02*
X0049144Y0023121D01*
D16*
X0029293Y0023550D02*
X0029293Y0025502D01*
X0029944Y0026152D01*
X0031245Y0026152D01*
X0031895Y0025502D01*
X0031895Y0023550D01*
X0031895Y0024851D02*
X0033196Y0026152D01*
X0032546Y0027417D02*
X0033196Y0028068D01*
X0033196Y0029369D01*
X0032546Y0030020D01*
X0029944Y0030020D01*
X0029293Y0029369D01*
X0029293Y0028068D01*
X0029944Y0027417D01*
X0030594Y0027417D01*
X0031245Y0028068D01*
X0031245Y0030020D01*
X0033196Y0023550D02*
X0029293Y0023550D01*
X0040157Y0030850D02*
X0042092Y0033752D01*
X0043103Y0033752D02*
X0045038Y0030850D01*
X0046050Y0030850D02*
X0047985Y0033752D01*
X0046050Y0033752D02*
X0047985Y0030850D01*
X0045038Y0033752D02*
X0043103Y0030850D01*
X0042092Y0030850D02*
X0040157Y0033752D01*
X0055658Y0053962D02*
X0055074Y0054546D01*
X0055658Y0053962D02*
X0056826Y0053962D01*
X0057409Y0054546D01*
X0057409Y0055130D01*
X0056826Y0055714D01*
X0056242Y0055714D01*
X0056826Y0055714D02*
X0057409Y0056298D01*
X0057409Y0056882D01*
X0056826Y0057465D01*
X0055658Y0057465D01*
X0055074Y0056882D01*
X0058573Y0056882D02*
X0059157Y0057465D01*
X0060324Y0057465D01*
X0060908Y0056882D01*
X0060908Y0056298D01*
X0058573Y0053962D01*
X0060908Y0053962D01*
X0062072Y0053962D02*
X0062656Y0053962D01*
X0062656Y0054546D01*
X0062072Y0054546D01*
X0062072Y0053962D01*
X0063821Y0053962D02*
X0063821Y0054546D01*
X0066157Y0056882D01*
X0066157Y0057465D01*
X0063821Y0057465D01*
X0067320Y0055714D02*
X0069072Y0055714D01*
X0069656Y0055130D01*
X0069656Y0054546D01*
X0069072Y0053962D01*
X0067904Y0053962D01*
X0067320Y0054546D01*
X0067320Y0055714D01*
X0068488Y0056882D01*
X0069656Y0057465D01*
X0070819Y0056882D02*
X0070819Y0056298D01*
X0071403Y0055714D01*
X0072571Y0055714D01*
X0073155Y0055130D01*
X0073155Y0054546D01*
X0072571Y0053962D01*
X0071403Y0053962D01*
X0070819Y0054546D01*
X0070819Y0055130D01*
X0071403Y0055714D01*
X0072571Y0055714D02*
X0073155Y0056298D01*
X0073155Y0056882D01*
X0072571Y0057465D01*
X0071403Y0057465D01*
X0070819Y0056882D01*
X0021985Y0119350D02*
X0020534Y0120801D01*
X0020050Y0120317D02*
X0021985Y0122252D01*
X0020050Y0122252D02*
X0020050Y0119350D01*
X0019038Y0119350D02*
X0017103Y0119350D01*
X0019038Y0121285D01*
X0019038Y0121769D01*
X0018555Y0122252D01*
X0017587Y0122252D01*
X0017103Y0121769D01*
X0030294Y0131050D02*
X0030294Y0132501D01*
X0030778Y0132985D01*
X0031745Y0132985D01*
X0032229Y0132501D01*
X0032229Y0131050D01*
X0033196Y0131050D02*
X0030294Y0131050D01*
X0032229Y0132017D02*
X0033196Y0132985D01*
X0033196Y0133997D02*
X0033196Y0135448D01*
X0032713Y0135931D01*
X0030778Y0135931D01*
X0030294Y0135448D01*
X0030294Y0133997D01*
X0033196Y0133997D01*
X0047996Y0128501D02*
X0049931Y0128501D01*
X0050943Y0127534D02*
X0051427Y0127050D01*
X0052394Y0127050D01*
X0052878Y0127534D01*
X0052878Y0128017D01*
X0052394Y0128501D01*
X0051910Y0128501D01*
X0052394Y0128501D02*
X0052878Y0128985D01*
X0052878Y0129469D01*
X0052394Y0129952D01*
X0051427Y0129952D01*
X0050943Y0129469D01*
X0049448Y0129952D02*
X0047996Y0128501D01*
X0049448Y0127050D02*
X0049448Y0129952D01*
X0053889Y0129469D02*
X0053889Y0127534D01*
X0055824Y0129469D01*
X0055824Y0127534D01*
X0055341Y0127050D01*
X0054373Y0127050D01*
X0053889Y0127534D01*
X0053889Y0129469D02*
X0054373Y0129952D01*
X0055341Y0129952D01*
X0055824Y0129469D01*
X0056836Y0129952D02*
X0056836Y0127050D01*
X0056836Y0128017D02*
X0058287Y0128985D01*
X0056836Y0128017D02*
X0058287Y0127050D01*
X0077394Y0127603D02*
X0080296Y0127603D01*
X0080296Y0129538D01*
X0079813Y0130550D02*
X0080296Y0131034D01*
X0080296Y0132001D01*
X0079813Y0132485D01*
X0077394Y0132485D01*
X0077394Y0133497D02*
X0080296Y0133497D01*
X0080296Y0135431D01*
X0078845Y0134464D02*
X0078845Y0133497D01*
X0077394Y0133497D02*
X0077394Y0135431D01*
X0077394Y0130550D02*
X0079813Y0130550D01*
X0079813Y0126592D02*
X0079329Y0126592D01*
X0078845Y0126108D01*
X0078845Y0124657D01*
X0077394Y0124657D02*
X0077394Y0126108D01*
X0077878Y0126592D01*
X0078361Y0126592D01*
X0078845Y0126108D01*
X0079813Y0126592D02*
X0080296Y0126108D01*
X0080296Y0124657D01*
X0077394Y0124657D01*
X0094494Y0124678D02*
X0097396Y0124678D01*
X0097396Y0125645D02*
X0097396Y0123710D01*
X0095461Y0123710D02*
X0094494Y0124678D01*
X0095461Y0126657D02*
X0096913Y0126657D01*
X0097396Y0127141D01*
X0097396Y0128592D01*
X0095461Y0128592D01*
X0095945Y0129603D02*
X0095945Y0130571D01*
X0094494Y0131538D02*
X0094494Y0129603D01*
X0097396Y0129603D01*
X0072985Y0142850D02*
X0071534Y0144301D01*
X0071050Y0143817D02*
X0072985Y0145752D01*
X0071050Y0145752D02*
X0071050Y0142850D01*
X0070038Y0142850D02*
X0068103Y0142850D01*
X0070038Y0144785D01*
X0070038Y0145269D01*
X0069555Y0145752D01*
X0068587Y0145752D01*
X0068103Y0145269D01*
D17*
X0167293Y0146520D02*
X0168661Y0145152D01*
X0167293Y0146520D02*
X0171396Y0146520D01*
X0171396Y0145152D02*
X0171396Y0147888D01*
X0171396Y0143284D02*
X0171396Y0140548D01*
X0171396Y0141916D02*
X0167293Y0141916D01*
X0168661Y0140548D01*
X0167977Y0138680D02*
X0169345Y0138680D01*
X0170029Y0137996D01*
X0170029Y0135944D01*
X0171396Y0135944D02*
X0167293Y0135944D01*
X0167293Y0137996D01*
X0167977Y0138680D01*
X0170029Y0137312D02*
X0171396Y0138680D01*
D18*
X0065886Y0062939D03*
D19*
X0080441Y0023903D02*
X0083109Y0023903D01*
X0085044Y0022569D02*
X0086379Y0023903D01*
X0087713Y0022569D01*
X0087713Y0019900D01*
X0089648Y0019900D02*
X0089648Y0023903D01*
X0092317Y0019900D01*
X0092317Y0023903D01*
X0087713Y0021902D02*
X0085044Y0021902D01*
X0085044Y0022569D02*
X0085044Y0019900D01*
X0081775Y0021902D02*
X0080441Y0021902D01*
X0080441Y0023903D02*
X0080441Y0019900D01*
X0111139Y0019900D02*
X0113140Y0019900D01*
X0113808Y0020567D01*
X0113808Y0021234D01*
X0113140Y0021902D01*
X0111139Y0021902D01*
X0113140Y0021902D02*
X0113808Y0022569D01*
X0113808Y0023236D01*
X0113140Y0023903D01*
X0111139Y0023903D01*
X0111139Y0019900D01*
X0115743Y0020567D02*
X0116410Y0019900D01*
X0117744Y0019900D01*
X0118411Y0020567D01*
X0118411Y0023903D01*
X0120346Y0023903D02*
X0123015Y0023903D01*
X0123015Y0023236D01*
X0120346Y0020567D01*
X0120346Y0019900D01*
X0123015Y0019900D01*
X0124950Y0019900D02*
X0127619Y0019900D01*
X0124950Y0019900D02*
X0124950Y0020567D01*
X0127619Y0023236D01*
X0127619Y0023903D01*
X0124950Y0023903D01*
X0115743Y0023903D02*
X0115743Y0020567D01*
X0138941Y0014903D02*
X0141609Y0014903D01*
X0140275Y0014903D02*
X0140275Y0010900D01*
X0143544Y0010900D02*
X0143544Y0014903D01*
X0146213Y0014903D01*
X0148148Y0014903D02*
X0150817Y0014903D01*
X0149483Y0014903D02*
X0149483Y0010900D01*
X0144879Y0012902D02*
X0143544Y0012902D01*
X0178343Y0022296D02*
X0178343Y0024298D01*
X0179010Y0024965D01*
X0179678Y0024965D01*
X0180345Y0024298D01*
X0180345Y0022296D01*
X0182346Y0022296D02*
X0178343Y0022296D01*
X0180345Y0024298D02*
X0181012Y0024965D01*
X0181679Y0024965D01*
X0182346Y0024298D01*
X0182346Y0022296D01*
X0180345Y0026900D02*
X0180345Y0029569D01*
X0182346Y0028902D02*
X0178343Y0028902D01*
X0180345Y0026900D01*
X0180345Y0062296D02*
X0180345Y0064298D01*
X0181012Y0064965D01*
X0181679Y0064965D01*
X0182346Y0064298D01*
X0182346Y0062296D01*
X0178343Y0062296D01*
X0178343Y0064298D01*
X0179010Y0064965D01*
X0179678Y0064965D01*
X0180345Y0064298D01*
X0181679Y0066900D02*
X0182346Y0067567D01*
X0182346Y0068902D01*
X0181679Y0069569D01*
X0181012Y0069569D01*
X0180345Y0068902D01*
X0180345Y0068234D01*
X0180345Y0068902D02*
X0179678Y0069569D01*
X0179010Y0069569D01*
X0178343Y0068902D01*
X0178343Y0067567D01*
X0179010Y0066900D01*
X0178343Y0102296D02*
X0178343Y0104298D01*
X0179010Y0104965D01*
X0179678Y0104965D01*
X0180345Y0104298D01*
X0180345Y0102296D01*
X0182346Y0102296D02*
X0182346Y0104298D01*
X0181679Y0104965D01*
X0181012Y0104965D01*
X0180345Y0104298D01*
X0182346Y0102296D02*
X0178343Y0102296D01*
X0179010Y0106900D02*
X0178343Y0107567D01*
X0178343Y0108902D01*
X0179010Y0109569D01*
X0179678Y0109569D01*
X0182346Y0106900D01*
X0182346Y0109569D01*
X0182346Y0142296D02*
X0178343Y0142296D01*
X0178343Y0144298D01*
X0179010Y0144965D01*
X0179678Y0144965D01*
X0180345Y0144298D01*
X0180345Y0142296D01*
X0182346Y0142296D02*
X0182346Y0144298D01*
X0181679Y0144965D01*
X0181012Y0144965D01*
X0180345Y0144298D01*
X0179678Y0146900D02*
X0178343Y0148234D01*
X0182346Y0148234D01*
X0182346Y0146900D02*
X0182346Y0149569D01*
X0126223Y0148400D02*
X0123554Y0148400D01*
X0123554Y0152403D01*
X0126223Y0152403D01*
X0124889Y0150402D02*
X0123554Y0150402D01*
X0121619Y0150402D02*
X0121619Y0151736D01*
X0120952Y0152403D01*
X0118950Y0152403D01*
X0118950Y0148400D01*
X0118950Y0149734D02*
X0120952Y0149734D01*
X0121619Y0150402D01*
X0117015Y0151736D02*
X0115681Y0150402D01*
X0115681Y0148400D01*
X0115681Y0150402D02*
X0114346Y0151736D01*
X0114346Y0152403D01*
X0112411Y0152403D02*
X0109742Y0152403D01*
X0111077Y0152403D02*
X0111077Y0148400D01*
X0107808Y0150402D02*
X0105139Y0150402D01*
X0103204Y0152403D02*
X0100535Y0149734D01*
X0101202Y0150402D02*
X0103204Y0148400D01*
X0100535Y0148400D02*
X0100535Y0152403D01*
X0090421Y0152403D02*
X0090421Y0151736D01*
X0089087Y0150402D01*
X0089087Y0148400D01*
X0089087Y0150402D02*
X0087752Y0151736D01*
X0087752Y0152403D01*
X0085817Y0151069D02*
X0085817Y0148400D01*
X0085817Y0150402D02*
X0083148Y0150402D01*
X0083148Y0151069D02*
X0084483Y0152403D01*
X0085817Y0151069D01*
X0083148Y0151069D02*
X0083148Y0148400D01*
X0081213Y0148400D02*
X0078544Y0148400D01*
X0078544Y0152403D01*
X0076609Y0152403D02*
X0073941Y0152403D01*
X0073941Y0148400D01*
X0076609Y0148400D01*
X0075275Y0150402D02*
X0073941Y0150402D01*
X0072006Y0150402D02*
X0072006Y0151736D01*
X0071338Y0152403D01*
X0069337Y0152403D01*
X0069337Y0148400D01*
X0069337Y0149734D02*
X0071338Y0149734D01*
X0072006Y0150402D01*
X0070671Y0149734D02*
X0072006Y0148400D01*
X0117015Y0151736D02*
X0117015Y0152403D01*
X0057956Y0109903D02*
X0057956Y0105900D01*
X0057956Y0107902D02*
X0055287Y0107902D01*
X0055287Y0109903D02*
X0055287Y0105900D01*
X0053352Y0106567D02*
X0052685Y0105900D01*
X0051350Y0105900D01*
X0050683Y0106567D01*
X0050683Y0109236D01*
X0051350Y0109903D01*
X0052685Y0109903D01*
X0053352Y0109236D01*
X0048748Y0109903D02*
X0046079Y0109903D01*
X0047414Y0109903D02*
X0047414Y0105900D01*
X0044344Y0105900D02*
X0043010Y0105900D01*
X0043677Y0105900D02*
X0043677Y0109903D01*
X0043010Y0109903D02*
X0044344Y0109903D01*
X0041075Y0109903D02*
X0041075Y0105900D01*
X0039740Y0107234D01*
X0038406Y0105900D01*
X0038406Y0109903D01*
X0036471Y0109236D02*
X0035804Y0109903D01*
X0034469Y0109903D01*
X0033802Y0109236D01*
X0033802Y0108569D01*
X0034469Y0107902D01*
X0035804Y0107902D01*
X0036471Y0107234D01*
X0036471Y0106567D01*
X0035804Y0105900D01*
X0034469Y0105900D01*
X0033802Y0106567D01*
D20*
X0105607Y0124300D02*
X0105607Y0126502D01*
X0106341Y0125768D01*
X0107075Y0126502D01*
X0107075Y0124300D01*
X0107817Y0124300D02*
X0107817Y0125768D01*
X0108551Y0126502D01*
X0109285Y0125768D01*
X0109285Y0124300D01*
X0110027Y0124300D02*
X0111495Y0126502D01*
X0112237Y0126135D02*
X0112604Y0126502D01*
X0113337Y0126502D01*
X0113704Y0126135D01*
X0113704Y0125768D01*
X0113337Y0125401D01*
X0113704Y0125034D01*
X0113704Y0124667D01*
X0113337Y0124300D01*
X0112604Y0124300D01*
X0112237Y0124667D01*
X0111495Y0124300D02*
X0110027Y0126502D01*
X0109285Y0125401D02*
X0107817Y0125401D01*
X0112970Y0125401D02*
X0113337Y0125401D01*
X0114446Y0125768D02*
X0115180Y0126502D01*
X0115180Y0124300D01*
X0114446Y0124300D02*
X0115914Y0124300D01*
X0116656Y0124667D02*
X0116656Y0125034D01*
X0117023Y0125401D01*
X0117757Y0125401D01*
X0118124Y0125034D01*
X0118124Y0124667D01*
X0117757Y0124300D01*
X0117023Y0124300D01*
X0116656Y0124667D01*
X0117023Y0125401D02*
X0116656Y0125768D01*
X0116656Y0126135D01*
X0117023Y0126502D01*
X0117757Y0126502D01*
X0118124Y0126135D01*
X0118124Y0125768D01*
X0117757Y0125401D01*
X0118866Y0125401D02*
X0119600Y0125768D01*
X0119967Y0125768D01*
X0120334Y0125401D01*
X0120334Y0124667D01*
X0119967Y0124300D01*
X0119233Y0124300D01*
X0118866Y0124667D01*
X0118866Y0125401D02*
X0118866Y0126502D01*
X0120334Y0126502D01*
X0121076Y0126502D02*
X0121076Y0125401D01*
X0121810Y0125768D01*
X0122177Y0125768D01*
X0122544Y0125401D01*
X0122544Y0124667D01*
X0122177Y0124300D01*
X0121443Y0124300D01*
X0121076Y0124667D01*
X0121076Y0126502D02*
X0122544Y0126502D01*
D21*
X0084346Y0129472D03*
D22*
X0062421Y0016900D03*
M02*
