%
M48
M72
T01C0.02362
T02C0.02559
T03C0.03150
T04C0.03346
T05C0.04000
T06C0.04724
T07C0.10000
%
T01
X34346Y40400
X43386Y64439
X32346Y80400
X30346Y86400
X56346Y82400
X61346Y94400
X68846Y105440
X85346Y109400
X93346Y101400
X87346Y82400
X79346Y74400
X71346Y79400
X70346Y69400
X97346Y61400
X95346Y42400
X91346Y33400
X133346Y24400
X155346Y12400
X155346Y51400
X137346Y74400
X154346Y92400
X159346Y126400
X116846Y126900
X61346Y133400
X37385Y146438
T02
X103277Y91470
X84346Y67339
X75607Y67400
X81346Y54453
X150346Y66400
X182346Y86400
X150346Y106400
X150346Y146400
X150346Y36400
T03
X182346Y36243
X182346Y56557
X182346Y76243
X182346Y96557
X182346Y116243
X182346Y136557
X182346Y156243
X182346Y16557
T04
X30008Y91920
X30008Y106880
T05
X41346Y116400
X51346Y116400
X48346Y158400
X38346Y158400
X28346Y158400
X58346Y158400
X75346Y159400
X85346Y159400
X109346Y159400
X119346Y159400
X145346Y151400
X145346Y141400
X145346Y131400
X145346Y121400
X145346Y111400
X145346Y101400
X145346Y91400
X145346Y81400
X145346Y71400
X145346Y61400
X145346Y51400
X145346Y41400
X145346Y31400
X145346Y21400
X124846Y13400
X114846Y13400
X91846Y13400
X81846Y13400
T06
X172504Y12620
X172504Y40180
X172504Y52620
X172504Y80180
X172504Y92620
X172504Y120180
X172504Y132620
X172504Y160180
T07
X22346Y14400
M30
