G75*
%MOIN*%
%OFA0B0*%
%FSLAX25Y25*%
%IPPOS*%
%LPD*%
%AMOC8*
5,1,8,0,0,1.08239X$1,22.5*
%
%ADD10C,0.10800*%
%ADD11C,0.04146*%
%ADD12C,0.08200*%
%ADD13C,0.09000*%
%ADD14C,0.07000*%
%ADD15C,0.05359*%
D10*
X0022346Y0014400D03*
D11*
X0030008Y0091920D03*
X0030008Y0106880D03*
D12*
X0041346Y0116400D03*
X0051346Y0116400D03*
X0048346Y0158400D03*
X0038346Y0158400D03*
X0028346Y0158400D03*
X0058346Y0158400D03*
X0075346Y0159400D03*
X0085346Y0159400D03*
X0109346Y0159400D03*
X0119346Y0159400D03*
X0145346Y0151400D03*
X0145346Y0141400D03*
X0145346Y0131400D03*
X0145346Y0121400D03*
X0145346Y0111400D03*
X0145346Y0101400D03*
X0145346Y0091400D03*
X0145346Y0081400D03*
X0145346Y0071400D03*
X0145346Y0061400D03*
X0145346Y0051400D03*
X0145346Y0041400D03*
X0145346Y0031400D03*
X0145346Y0021400D03*
X0124846Y0013400D03*
X0114846Y0013400D03*
X0091846Y0013400D03*
X0081846Y0013400D03*
D13*
X0172504Y0012620D03*
X0172504Y0040180D03*
X0172504Y0052620D03*
X0172504Y0080180D03*
X0172504Y0092620D03*
X0172504Y0120180D03*
X0172504Y0132620D03*
X0172504Y0160180D03*
D14*
X0182346Y0156243D03*
X0182346Y0136557D03*
X0182346Y0116243D03*
X0182346Y0096557D03*
X0182346Y0076243D03*
X0182346Y0056557D03*
X0182346Y0036243D03*
X0182346Y0016557D03*
D15*
X0150346Y0036400D03*
X0150346Y0066400D03*
X0182346Y0086400D03*
X0150346Y0106400D03*
X0103277Y0091470D03*
X0084346Y0067339D03*
X0075607Y0067400D03*
X0081346Y0054453D03*
X0150346Y0146400D03*
M02*
